<svg xmlns="http://www.w3.org/2000/svg" xmlns:xlink="http://www.w3.org/1999/xlink" width="98.277" height="108.687" viewBox="0 0 98.277 108.687">
  <defs>
    <linearGradient id="linear-gradient" x1="0.5" y1="7.791" x2="0.5" y2="36.862" gradientUnits="objectBoundingBox">
      <stop offset="0" stop-color="#be9000"/>
      <stop offset="1" stop-color="#e2407a"/>
    </linearGradient>
  </defs>
  <g id="_5859972_allergy_dermatitis_disease_health_medical_icon" data-name="5859972_allergy_dermatitis_disease_health_medical_icon" transform="translate(-27.322 -12.208)">
    <path id="Path_68078" data-name="Path 68078" d="M59.28,182.045a239.455,239.455,0,0,0-20.763,15.168s-6.341,21.708-7.708,30.933h79.322s-8.454-26.954-13.179-35.16L77.183,181.8l-.42-6C69.99,176.516,63.853,178.151,59.28,182.045Z" transform="translate(-2.286 -107.251)" fill="none"/>
    <path id="Path_68079" data-name="Path 68079" d="M113.479,169.791h0a83.7,83.7,0,0,1,17.483-6.245l-.45-6.437H113.479Z" transform="translate(-56.485 -94.998)" fill="#be9000"/>
    <path id="Path_68080" data-name="Path 68080" d="M71.759,15.708s12.313,9.7,32.7,14.327a4.492,4.492,0,0,1,3.489,4.012c.512,6.284,1.412,20.354.448,32.862L79.578,65.2l-2.142-26.35a11.737,11.737,0,0,1-5.677-7.5l4.927-.107S70.9,24.492,71.759,15.708Z" transform="translate(-29.076 -2.295)" fill="none"/>
    <path id="Path_68081" data-name="Path 68081" d="M118.787,121.975l12.177.5s.634-4.938-2.006-7.726a7.676,7.676,0,0,0-4.649-1.14C117.612,114.457,118.787,121.975,118.787,121.975Z" transform="translate(-59.913 -66.452)" fill="#fff"/>
    <path id="Path_68082" data-name="Path 68082" d="M121.935,111.612c-7.648.252-5.967,9.076-5.967,9.076l3.269.125c-.106-1.2-.179-4.931,2.782-6.438a8.989,8.989,0,0,1,5.134-.906A6.5,6.5,0,0,0,121.935,111.612Z" transform="translate(-58.014 -65.165)" fill="#be9000"/>
    <circle id="Ellipse_358" data-name="Ellipse 358" cx="1.205" cy="1.205" r="1.205" transform="translate(68.707 38.538)" fill="url(#linear-gradient)"/>
    <circle id="Ellipse_359" data-name="Ellipse 359" cx="1.205" cy="1.205" r="1.205" transform="translate(73.272 34.746)" fill="url(#linear-gradient)"/>
    <circle id="Ellipse_360" data-name="Ellipse 360" cx="1.205" cy="1.205" r="1.205" transform="translate(72.359 42.864)" fill="url(#linear-gradient)"/>
    <path id="Path_68083" data-name="Path 68083" d="M147.871,251.328a2.075,2.075,0,0,1-1.91-1.8,4.2,4.2,0,0,1,.985-3.185,4.714,4.714,0,0,1,2.562-1.806,2.113,2.113,0,0,1,2.514,1.392,5.7,5.7,0,0,1-.083,3.413,1.991,1.991,0,0,1-.369.709A4.087,4.087,0,0,1,147.871,251.328Z" transform="translate(-77.764 -152.276)" fill="#be9000"/>
    <circle id="Ellipse_361" data-name="Ellipse 361" cx="1.205" cy="1.205" r="1.205" transform="translate(89.267 90.664)" fill="#be9000"/>
    <circle id="Ellipse_362" data-name="Ellipse 362" cx="1.205" cy="1.205" r="1.205" transform="translate(81.496 93.075)" fill="#be9000"/>
    <circle id="Ellipse_363" data-name="Ellipse 363" cx="1.205" cy="1.205" r="1.205" transform="translate(77.611 85.396)" fill="#be9000"/>
    <circle id="Ellipse_364" data-name="Ellipse 364" cx="1.205" cy="1.205" r="1.205" transform="translate(76.887 103.337)" fill="#be9000"/>
    <circle id="Ellipse_365" data-name="Ellipse 365" cx="1.205" cy="1.205" r="1.205" transform="translate(93.654 112.33)" fill="#be9000"/>
    <path id="Path_68084" data-name="Path 68084" d="M199.538,270.225a6.8,6.8,0,0,1,1.639-3.569,1.86,1.86,0,0,1,1.346-.62c1.039-.012,2.838.405,4.007,3.1a1.771,1.771,0,0,1-.011,1.435,4.806,4.806,0,0,1-2.609,2.4,1.8,1.8,0,0,1-1.082.1,7.793,7.793,0,0,1-2.415-.992A1.86,1.86,0,0,1,199.538,270.225Z" transform="translate(-112.892 -166.409)" fill="#be9000"/>
    <path id="Path_68085" data-name="Path 68085" d="M174.452,297.041a6.23,6.23,0,0,0-2.747,2.046,2.131,2.131,0,0,0-.161,2.411,4.772,4.772,0,0,0,2.419,1.82,2,2,0,0,0,.645.138,7.58,7.58,0,0,0,3.18-.595,2.129,2.129,0,0,0,1.137-2.821,6.212,6.212,0,0,0-2.59-2.824,2.155,2.155,0,0,0-1.883-.175Z" transform="translate(-94.356 -186.645)" fill="#be9000"/>
    <circle id="Ellipse_366" data-name="Ellipse 366" cx="1.205" cy="1.205" r="1.205" transform="translate(104.884 48.704)" fill="#be9000"/>
    <path id="Path_68086" data-name="Path 68086" d="M217.629,152.3a1.205,1.205,0,0,1-.985-1.9l2.763-3.932a3.672,3.672,0,0,0,.544-3.065l-.327-1.223a6.076,6.076,0,0,1,.257-3.907,30.565,30.565,0,0,1,4.687-7.545,1.205,1.205,0,0,1,1.808,1.6h0a28.589,28.589,0,0,0-4.273,6.885,3.653,3.653,0,0,0-.15,2.349l.327,1.223a6.075,6.075,0,0,1-.9,5.074l-2.763,3.932A1.205,1.205,0,0,1,217.629,152.3Z" transform="translate(-123.976 -77.436)" fill="#be9000"/>
    <path id="Path_68087" data-name="Path 68087" d="M239.384,175.67a1.205,1.205,0,0,1-.792-2.114l3.622-3.157a3.672,3.672,0,0,0,1.262-2.847l-.025-1.265a6.076,6.076,0,0,1,1.183-3.732,30.557,30.557,0,0,1,6.355-6.206,1.205,1.205,0,0,1,1.374,1.981h0a28.6,28.6,0,0,0-5.8,5.664,3.654,3.654,0,0,0-.707,2.245l.025,1.265a6.077,6.077,0,0,1-2.087,4.712l-3.624,3.158a1.2,1.2,0,0,1-.791.3Z" transform="translate(-138.237 -94.358)" fill="#be9000"/>
    <path id="Path_68088" data-name="Path 68088" d="M257.317,208.226a1.205,1.205,0,0,1-.465-2.318l4.434-1.853a3.672,3.672,0,0,0,2.1-2.3l.376-1.208a6.074,6.074,0,0,1,2.3-3.168,30.553,30.553,0,0,1,7.99-3.882,1.205,1.205,0,1,1,.678,2.313h0a28.612,28.612,0,0,0-7.289,3.546,3.651,3.651,0,0,0-1.378,1.907l-.376,1.208a6.077,6.077,0,0,1-3.468,3.811l-4.434,1.853A1.2,1.2,0,0,1,257.317,208.226Z" transform="translate(-149.994 -118.818)" fill="#be9000"/>
    <path id="Path_68089" data-name="Path 68089" d="M125.4,110.3a7.714,7.714,0,0,0-6.084-2.185,7.035,7.035,0,0,0-5.551,2.508c-2.463,3.078-1.6,7.8-1.56,8a1.205,1.205,0,0,0,1.137.979l3.269.125h.046a1.226,1.226,0,0,0,.213-.022l9.662.4h.051a1.205,1.205,0,0,0,1.195-1.052c.029-.225.672-5.542-2.326-8.708C125.438,110.325,125.419,110.313,125.4,110.3Zm-9.753,1.829a4.681,4.681,0,0,1,3.748-1.6q.314-.01.609,0a10.243,10.243,0,0,0-1.111.485c-2.781,1.415-3.386,4.332-3.465,6.223l-.726-.03a1.245,1.245,0,0,0-.234.013C114.386,115.93,114.44,113.638,115.649,112.126Zm2.187,5.2c.052-1.335.439-3.3,2.152-4.174a7.7,7.7,0,0,1,4.005-.817,8.889,8.889,0,0,1,1.452,5.306Z" transform="translate(-55.534 -62.87)" fill="#be9000"/>
    <path id="Path_68090" data-name="Path 68090" d="M95.712,85.133a1.205,1.205,0,0,0-.451-.448l-19.2-10.87-.575-8.221,3.765.224.073,0a1.205,1.205,0,0,0,1.2-1.113,225.3,225.3,0,0,0-.449-33.052,5.677,5.677,0,0,0-4.425-5.087c-19.851-4.512-32.1-14.005-32.218-14.1a1.205,1.205,0,0,0-1.945.83A23.184,23.184,0,0,0,45.292,27.79l-2.634.058a1.205,1.205,0,0,0-1.142,1.5,13.126,13.126,0,0,0,5.694,7.934L49.3,63A1.205,1.205,0,0,0,50.43,64.1l5.359.319v9.712C53.654,75.517,45.673,80.8,35.475,89.024a1.205,1.205,0,0,0-.4.6c-.26.89-6.38,21.893-7.744,31.094a1.221,1.221,0,0,0-.008.177h2.42c1.293-8.477,6.716-27.376,7.542-30.232,11.208-9.015,29.878-18.942,36.093-20.584L73.7,74.63a1.205,1.205,0,0,0,.609.964L93.783,86.619c4.339,7.788,11.791,31.095,12.8,34.276h2.458a1.087,1.087,0,0,0-.044-.361C108.648,119.428,100.446,93.359,95.712,85.133ZM58.2,72.864v-8.3l14.851.885.153,2.183A86.764,86.764,0,0,0,58.2,72.864ZM51.619,61.759,49.563,36.453a1.205,1.205,0,0,0-.684-.991,10.356,10.356,0,0,1-4.546-5.239l3.306-.072a1.205,1.205,0,0,0,.89-1.988,22.377,22.377,0,0,1-4.716-12.45,93.531,93.531,0,0,0,31.3,13.2,3.276,3.276,0,0,1,2.555,2.934A232.175,232.175,0,0,1,78.2,63.34Z" fill="#be9000"/>
  </g>
</svg>
