<svg id="Layer_1" xmlns="http://www.w3.org/2000/svg" width="13.409" height="15.365" viewBox="0 0 13.409 15.365">
  <g id="Group_7116" data-name="Group 7116" transform="translate(0 0)">
    <path id="Path_67813" data-name="Path 67813" d="M19.059,18.455a.559.559,0,0,0,.559-.559V12.309a.559.559,0,0,0-1.117,0V17.9A.559.559,0,0,0,19.059,18.455Z" transform="translate(-10.399 -6.442)" fill="#24394d"/>
    <path id="Path_67814" data-name="Path 67814" d="M12.059,18.455a.559.559,0,0,0,.559-.559V12.309a.559.559,0,0,0-1.117,0V17.9A.559.559,0,0,0,12.059,18.455Z" transform="translate(-7.31 -6.442)" fill="#24394d"/>
    <path id="Path_67815" data-name="Path 67815" d="M16.028,3.367a.559.559,0,0,0,0-1.117h-4.47a.559.559,0,0,0,0,1.117Z" transform="translate(-7.089 -2.25)" fill="#24394d"/>
    <path id="Path_67816" data-name="Path 67816" d="M4.559,5.25a.559.559,0,0,0,0,1.117h.559v10.28a2.294,2.294,0,0,0,2.291,2.291H14a2.294,2.294,0,0,0,2.291-2.291V6.367h.559a.559.559,0,0,0,0-1.117H4.559ZM15.174,6.367v10.28A1.173,1.173,0,0,1,14,17.821H7.408a1.173,1.173,0,0,1-1.173-1.173V6.367Z" transform="translate(-4 -3.574)" fill="#24394d"/>
  </g>
</svg>
