<svg xmlns="http://www.w3.org/2000/svg" width="108.702" height="150.91" viewBox="0 0 108.702 150.91">
  <g id="Group_7280" data-name="Group 7280" transform="translate(-1141.868 -479.09)">
    <text id="Diabetes" transform="translate(1197 624)" fill="#24394d" font-size="24" font-family="Arial-Mdm, Arial" font-weight="500"><tspan x="-45" y="0">Diabetes</tspan></text>
    <g id="_5803963_blood_test_diabetes_lab_laboratory_icon" data-name="5803963_blood test_diabetes_lab_laboratory_icon" transform="translate(1141.865 479.071)">
      <path id="Path_68075" data-name="Path 68075" d="M68.543,40.631a6.378,6.378,0,0,0,3.176-4.73A9.732,9.732,0,0,0,69.8,29.361c9.495-2.667,18.182-5.35,19.8-6.65A4.841,4.841,0,0,0,91.617,18.4,7.576,7.576,0,0,0,88.1,13.209c-.713-.391-1.231-.679-18.794,3.074-8.229,1.749-17.554,3.856-19.176,4.331-1.376.4-6.412,1.265-11.27,2.055a14.182,14.182,0,0,1,1.6-1.325c2.132-1.563,5.885-5.282,7.04-12.688.535-3.4-.467-6.166-2.735-7.643A5.614,5.614,0,0,0,38.718.8c-1.605.994-2.811,2.658-4.246,4.586a28.874,28.874,0,0,1-4.323,5.1,46.071,46.071,0,0,1-5.741,4.025,42.208,42.208,0,0,0-6.573,4.73L15.1,21.854a101.62,101.62,0,0,1-8.645,7.762c-3.974,2.955-6.166,11.066-6.4,12a1.7,1.7,0,0,0,1.223,2.047,1.5,1.5,0,0,0,.425.059,1.7,1.7,0,0,0,1.648-1.257c.561-2.183,2.6-8.221,5.146-10.115a102.668,102.668,0,0,0,9-8.051c.934-.9,1.843-1.775,2.709-2.548a38.955,38.955,0,0,1,6.047-4.331,47.872,47.872,0,0,0,6.174-4.348,31.762,31.762,0,0,0,4.849-5.664A14.681,14.681,0,0,1,40.5,3.723a2.242,2.242,0,0,1,2.378.119c1.121.747,1.58,2.318,1.265,4.323-.968,6.2-3.983,9.223-5.7,10.48a13.647,13.647,0,0,0-4.323,4.824l-3.745.577a1.717,1.717,0,1,0,.51,3.4c.7-.11,17.18-2.624,20.187-3.5,3.72-1.079,31.685-7.159,35.668-7.5a4.246,4.246,0,0,1,1.495,2.242c0,.187.059.7-.764,1.359-1.359,1.053-11.4,4.076-23.779,7.465l-.212.051h-.059C56.832,29.353,49.579,31.255,42.607,33a1.7,1.7,0,0,0,.416,3.346,1.741,1.741,0,0,0,.416-.051c3.2-.807,12.221-3.1,21.46-5.622a2.132,2.132,0,0,1,1.919.416A5.779,5.779,0,0,1,68.365,35.5c-.2,1.868-2.378,2.548-2.454,2.6h0c-.144.051-14.717,4.62-18.047,5.529a1.7,1.7,0,0,0,.442,3.338,2.047,2.047,0,0,0,.45-.059c2.786-.756,12.815-3.89,16.671-5.1a6.545,6.545,0,0,1-.34,5.367c-.7,1.1-3.924,2.811-5.877,3.626h-.119a34.4,34.4,0,0,1-10.25,3.066,1.7,1.7,0,0,0,.187,3.4h.187a36.4,36.4,0,0,0,9.571-2.548,6.5,6.5,0,0,1-.093,2.463c-.45,1.919-1.817,3.5-7.015,5.011-1.826.527-4.493,1.52-7.592,2.658-5.724,2.123-12.858,4.756-17.4,5.478-6.794,1.079-15.966,0-16.051,0a1.7,1.7,0,0,0-1.41.484L.5,79.484A1.693,1.693,0,1,0,2.9,81.879l8.093-8.085c2.5.263,10.038.9,16.136-.068,4.866-.773,12.178-3.473,18.047-5.647,3.032-1.121,5.656-2.089,7.363-2.548,4.034-1.172,8.314-2.981,9.342-7.5a10,10,0,0,0,0-4.662c1.877-.849,4.849-2.548,5.945-4.246A9.81,9.81,0,0,0,68.543,40.631Z" transform="translate(0 0)" fill="#24394d"/>
      <path id="Path_68076" data-name="Path 68076" d="M119.065,64H81.7a1.7,1.7,0,0,0,0,3.4h3.4v36.518c0,7.822,7,14.437,15.286,14.437s15.286-6.616,15.286-14.437V67.4h3.4a1.7,1.7,0,1,0,0-3.4Zm-6.794,39.915c0,5.885-5.554,11.04-11.889,11.04s-11.889-5.155-11.889-11.04V67.4h23.779Z" transform="translate(-12.06 -9.645)" fill="#24394d"/>
      <path id="Path_68077" data-name="Path 68077" d="M101.5,35.5c-.654.654-6.395,6.531-6.395,11.439a7.6,7.6,0,0,0,15.193,0c0-4.909-5.741-10.785-6.395-11.439a1.7,1.7,0,0,0-2.4,0Zm1.206,15.635a4.246,4.246,0,0,1-4.246-4.2c0-2.174,2.242-5.477,4.246-7.736,1.953,2.259,4.2,5.563,4.2,7.737A4.246,4.246,0,0,1,102.711,51.136Z" transform="translate(-14.338 -5.274)" fill="#24394d"/>
    </g>
  </g>
</svg>
