<svg xmlns="http://www.w3.org/2000/svg" width="13.409" height="13.409" viewBox="0 0 13.409 13.409">
  <path id="Edit" d="M34.616,37.409H26.794A2.8,2.8,0,0,1,24,34.616V26.794A2.8,2.8,0,0,1,26.794,24h4.47a.559.559,0,1,1,0,1.117h-4.47a1.678,1.678,0,0,0-1.676,1.676v7.822a1.678,1.678,0,0,0,1.676,1.676h7.822a1.678,1.678,0,0,0,1.676-1.676v-4.47a.559.559,0,0,1,1.117,0v4.47A2.8,2.8,0,0,1,34.616,37.409ZM36.2,27.59l.716-.728a1.676,1.676,0,0,0-2.367-2.374l-.732.72Zm-.784.8L31.1,32.772a.559.559,0,0,1-.4.167H29.028a.559.559,0,0,1-.559-.559V30.7a.558.558,0,0,1,.167-.4l4.386-4.315Z" transform="translate(-24 -24)" fill="#24394d"/>
</svg>
