<svg xmlns="http://www.w3.org/2000/svg" width="108.19" height="108.687" viewBox="0 0 108.19 108.687"><g transform="translate(-246 -261)"><g transform="translate(246 261)"><path d="M100.291,36.9,86.705,44.354a4.415,4.415,0,0,1-4.246-7.735,3.907,3.907,0,0,1,.577-.263l14.5-5.443a3.3,3.3,0,0,1,2.751,5.986Z" transform="translate(-12.616 -4.633)" fill="#ffc298"/><path d="M99.709,51.847,86.718,55.49a4.356,4.356,0,1,1-2.344-8.39,4.553,4.553,0,0,1,.662-.127l13.391-1.6a3.312,3.312,0,0,1,1.282,6.47Z" transform="translate(-12.747 -6.844)" fill="#ffc298"/><path d="M26.73,97.593l3.15-6.1s4.016-1.1,15,4.959S56.9,105.889,56.9,105.889s-2.547,5.095-3.855,5.095C49.58,111.23,32.555,101.253,26.73,97.593Z" transform="translate(-4.53 -13.794)" fill="#892e1d"/><path d="M98.563,62.421l-8.491-1.41,3.133-.569-5.214,2.785a3.312,3.312,0,0,1-3.7-5.451L88.781,54a3.15,3.15,0,0,1,2.972-.6h.127l8.219,2.6a3.3,3.3,0,0,1-1.537,6.4Z" transform="translate(-13.036 -8.035)" fill="#ffc298"/><path d="M97.879,74.041,84.751,75.909a3.889,3.889,0,1,1-1.1-7.7H84L97.25,67.52a3.295,3.295,0,0,1,.628,6.521Z" transform="translate(-12.615 -10.188)" fill="#ffc298"/><path d="M46.625,44.53s-7.413,6.139-9.96,11.37S31.57,96.029,31.57,96.029L50.7,107.305a44.613,44.613,0,0,1,5.095-10c3.2-4.466,12.737-7.54,15.114-13.025S67.921,50.644,68.031,49.82,46.625,44.53,46.625,44.53Z" transform="translate(-5.261 -6.719)" fill="#ffc298"/><path d="M49.355,50.76S42.9,58.665,43.326,63.989a27.019,27.019,0,0,0,2.361,9.145l6.36-12.125Z" transform="translate(-7.031 -7.659)" fill="#e1927a"/><path d="M56.453,79.677S56.029,90.6,51.91,94.715a141.752,141.752,0,0,0-9.79,11.641l10.189,6.02a44.612,44.612,0,0,1,5.095-10c3.2-4.466,12.737-7.54,15.114-13.025.8-1.868.7-6.351.238-11.489l-7.642.679Z" transform="translate(-6.852 -11.748)" fill="#e1927a"/><rect width="78.525" height="47.115" rx="4" transform="translate(87.25) rotate(90)" fill="#cdcfce"/><rect width="66.31" height="36.645" rx="2.7" transform="translate(82.015 5.235) rotate(90)" fill="#fff"/><path d="M20.22,104.287S28.015,93.18,28.9,91.55c.7,2.114,6.054,9.612,12.024,12.414s12.958,3.982,15,1.978L50.041,122.5s-19.725.1-29.821-18.214" transform="translate(-3.548 -13.813)" fill="#cdcfce"/><rect width="26.175" height="10.47" rx="1.97" transform="translate(50.605 54.095)" fill="#313534"/><path d="M71.426,59.792l-3.074.951-3.091.849c-2.072.569-4.152,1.1-6.266,1.588h0l2.411-.993A21.312,21.312,0,0,0,56.83,71.23a109.406,109.406,0,0,0-2.335,11.956,9.017,9.017,0,0,1-17.815-2.8,9.637,9.637,0,0,1,.713-2.344A119.809,119.809,0,0,1,43.864,65.3a40.512,40.512,0,0,1,4.73-6.368,28.021,28.021,0,0,1,6.428-5.307l1.078-.637a2.615,2.615,0,0,1,1.333-.357h0c2-.11,4.025-.263,6.046-.45l3.04-.255,2.989-.357h.17a4.246,4.246,0,0,1,1.749,8.287Z" transform="translate(-6.015 -7.775)" fill="#ffc298"/><path d="M53.842,114.5a5.944,5.944,0,0,1-1.944,4.067c-1.061.849-1.927.509-1.927-.849a6.046,6.046,0,0,1,1.927-4.067C52.976,112.763,53.842,113.145,53.842,114.5Z" transform="translate(-8.037 -17.076)" fill="#3b0b1b"/><rect width="108.19" height="108.19" transform="translate(0)" fill="none"/></g><g transform="translate(297.44 275.25)"><path d="M20.31,3H4.062A4.074,4.074,0,0,0,0,7.062V17.217a4.074,4.074,0,0,0,4.062,4.062H20.31a4.074,4.074,0,0,0,4.062-4.062V7.062A4.074,4.074,0,0,0,20.31,3Zm1.625,5.89-8.022,5.382a3.423,3.423,0,0,1-1.726.508,3.423,3.423,0,0,1-1.726-.508L2.437,8.89a1.074,1.074,0,0,1-.2-1.422,1.074,1.074,0,0,1,1.422-.2l8.022,5.382a1.1,1.1,0,0,0,1.117,0l8.022-5.382a1,1,0,0,1,1.422.3A1.108,1.108,0,0,1,21.934,8.89Z" transform="translate(0 -3)" fill="#313534"/></g></g></svg>