<svg xmlns="http://www.w3.org/2000/svg" width="12.384" height="12.325" viewBox="0 0 12.384 12.325"><g transform="translate(0.15 0.15)"><path d="M8.624,8.017h.757a6.37,6.37,0,0,1,6.269-5.261l.383,0L14.657,4.135a.376.376,0,1,0,.531.531l2.22-2.278L15.188.11a.376.376,0,1,0-.531.531l1.364,1.364h-.355A7.136,7.136,0,0,0,8.624,8.017Z" transform="translate(-5.383 0)" fill="#24394d" fill-rule="evenodd"/><path d="M9.507,8.167H8.448l.028-.174a7.286,7.286,0,0,1,7.182-6.139L14.551.747a.525.525,0,0,1,0-.743.525.525,0,0,1,.743,0l2.323,2.384L15.3,4.771a.526.526,0,1,1-.745-.742l1.123-1.123h-.023A6.207,6.207,0,0,0,9.529,8.043Zm-.705-.3h.455a6.507,6.507,0,0,1,6.394-5.261l.381,0,.358,0-.25.253L14.763,4.241a.226.226,0,1,0,.319.319L17.2,2.388,15.081.215a.226.226,0,0,0-.318.321l1.622,1.622-.482,0h-.236A6.95,6.95,0,0,0,8.8,7.867Z" transform="translate(-5.383 0)" fill="#24394d"/><path d="M10.9,10.63a.376.376,0,0,0-.376.376v5.261H.752V8.752H4.134a.376.376,0,1,0,0-.752H.752A.752.752,0,0,0,0,8.752v7.516a.752.752,0,0,0,.752.752h9.77a.752.752,0,0,0,.752-.752V11.006A.376.376,0,0,0,10.9,10.63Z" transform="translate(0 -4.994)" fill="#24394d" fill-rule="evenodd"/><path d="M.752,7.85H4.134a.526.526,0,0,1,0,1.052H.9v7.216h9.47V11.006a.526.526,0,1,1,1.052,0v5.261a.9.9,0,0,1-.9.9H.752a.9.9,0,0,1-.9-.9V8.752A.9.9,0,0,1,.752,7.85ZM4.134,8.6a.226.226,0,0,0,0-.452H.752a.6.6,0,0,0-.6.6v7.516a.6.6,0,0,0,.6.6h9.77a.6.6,0,0,0,.6-.6V11.006a.226.226,0,1,0-.452,0v5.411H.6V8.6Z" transform="translate(0 -4.994)" fill="#24394d"/></g></svg>