<svg xmlns="http://www.w3.org/2000/svg" width="26" height="16" viewBox="0 0 26 16">
  <g id="_6646077_essentials_eye_ui_view_icon" data-name="6646077_essentials_eye_ui_view_icon" transform="translate(-3 -8)">
    <g id="Path_736" data-name="Path 736" fill="none" stroke-linecap="round" stroke-linejoin="round">
      <path d="M29,16s-5.8,8-13,8S3,16,3,16,8.8,8,16,8,29,16,29,16Z" stroke="none"/>
      <path d="M 16 10 C 12.91567039489746 10 10.03549957275391 11.88533020019531 8.162469863891602 13.4669303894043 C 7.081167221069336 14.37998580932617 6.197307586669922 15.30407333374023 5.582752227783203 16.00128173828125 C 6.181537628173828 16.6806468963623 7.038824081420898 17.57699584960938 8.09623908996582 18.47692108154297 C 9.984710693359375 20.08412933349609 12.88890075683594 22 16 22 C 19.08432960510254 22 21.96450042724609 20.11466979980469 23.8375301361084 18.5330696105957 C 24.91883277893066 17.62001419067383 25.80269241333008 16.69592666625977 26.4172477722168 15.99871826171875 C 25.81846237182617 15.3193531036377 24.9611759185791 14.42300415039062 23.90375900268555 13.52308082580566 C 22.01528930664062 11.91587066650391 19.11109924316406 10 16 10 M 16 8 C 23.20000076293945 8 29 16 29 16 C 29 16 23.20000076293945 24 16 24 C 8.799999237060547 24 3 16 3 16 C 3 16 8.799999237060547 8 16 8 Z" stroke="none" fill="#fff"/>
    </g>
    <g id="Ellipse_68" data-name="Ellipse 68" transform="translate(12 12)" fill="none" stroke="#fff" stroke-linecap="round" stroke-linejoin="round" stroke-width="2">
      <circle cx="4" cy="4" r="4" stroke="none"/>
      <circle cx="4" cy="4" r="3" fill="none"/>
    </g>
  </g>
</svg>
