<svg xmlns="http://www.w3.org/2000/svg" width="108.777" height="108.777" viewBox="0 0 108.777 108.777">
  <g id="Group_7276" data-name="Group 7276" transform="translate(-906 -494)">
    <g id="_7727534_vision_eye_view_business_focus_icon" data-name="7727534_vision_eye_view_business_focus_icon" transform="translate(906 494)">
      <path id="Path_68091" data-name="Path 68091" d="M3.4,3.4H22.288V0H0V23.566H3.4Z" fill="#be9000"/>
      <path id="Path_68092" data-name="Path 68092" d="M3.4,51.207H0V72.951H22.288v-3.4H3.4Z" transform="translate(0 35.827)" fill="#be9000"/>
      <path id="Path_68093" data-name="Path 68093" d="M50.887,0V3.4H69.775V21.744h3.4V0Z" transform="translate(35.603)" fill="#be9000"/>
      <path id="Path_68094" data-name="Path 68094" d="M69.775,69.551H50.887v3.4H73.175V51.207h-3.4Z" transform="translate(35.603 35.827)" fill="#be9000"/>
      <path id="Path_68095" data-name="Path 68095" d="M4.586,38.661,1.9,41.372l2.691,2.692A68.353,68.353,0,0,0,53.059,64.1a68.355,68.355,0,0,0,48.469-20.032l2.69-2.691-2.691-2.718A68.65,68.65,0,0,0,4.586,38.661Zm48.473,10.65a7.952,7.952,0,1,1,7.952-7.952A7.961,7.961,0,0,1,53.059,49.311ZM6.7,41.361l.3-.3a64.791,64.791,0,0,1,36.1-18.268,21.073,21.073,0,0,0,0,37.136A64.793,64.793,0,0,1,7,41.66Zm92.726,0-.3.3a64.8,64.8,0,0,1-36.1,18.268,21.073,21.073,0,0,0,0-37.135A64.8,64.8,0,0,1,99.121,41.056Z" transform="translate(1.33 13.03)" fill="#be9000"/>
      <path id="Path_68096" data-name="Path 68096" d="M33.874,29.322a4.552,4.552,0,1,0,4.553,4.552A4.558,4.558,0,0,0,33.874,29.322Z" transform="translate(20.515 20.515)" fill="#be9000"/>
      <rect id="Rectangle_3900" data-name="Rectangle 3900" width="3.399" height="5.099" transform="matrix(0.802, -0.597, 0.597, 0.802, 32.719, 12.132)" fill="#be9000"/>
      <rect id="Rectangle_3901" data-name="Rectangle 3901" width="3.399" height="5.099" transform="matrix(0.802, -0.597, 0.597, 0.802, 38.812, 20.309)" fill="#be9000"/>
      <rect id="Rectangle_3902" data-name="Rectangle 3902" width="3.399" height="4.249" transform="translate(52.689 17.915)" fill="#be9000"/>
      <rect id="Rectangle_3903" data-name="Rectangle 3903" width="3.399" height="5.099" transform="translate(52.689 7.717)" fill="#be9000"/>
      <rect id="Rectangle_3904" data-name="Rectangle 3904" width="5.099" height="3.399" transform="matrix(0.598, -0.802, 0.802, 0.598, 64.193, 22.367)" fill="#be9000"/>
      <rect id="Rectangle_3905" data-name="Rectangle 3905" width="5.099" height="3.399" transform="matrix(0.598, -0.802, 0.802, 0.598, 70.286, 14.19)" fill="#be9000"/>
      <rect id="Rectangle_3906" data-name="Rectangle 3906" width="3.399" height="5.099" transform="matrix(0.802, -0.597, 0.597, 0.802, 70.287, 94.587)" fill="#be9000"/>
      <rect id="Rectangle_3907" data-name="Rectangle 3907" width="3.399" height="5.099" transform="matrix(0.802, -0.597, 0.597, 0.802, 64.194, 86.41)" fill="#be9000"/>
      <rect id="Rectangle_3908" data-name="Rectangle 3908" width="3.399" height="5.099" transform="translate(52.689 95.961)" fill="#be9000"/>
      <rect id="Rectangle_3909" data-name="Rectangle 3909" width="3.399" height="4.249" transform="translate(52.689 86.613)" fill="#be9000"/>
      <rect id="Rectangle_3910" data-name="Rectangle 3910" width="5.099" height="3.399" transform="matrix(0.598, -0.802, 0.802, 0.598, 32.718, 96.644)" fill="#be9000"/>
      <rect id="Rectangle_3911" data-name="Rectangle 3911" width="5.099" height="3.399" transform="matrix(0.598, -0.802, 0.802, 0.598, 38.811, 88.467)" fill="#be9000"/>
    </g>
  </g>
</svg>
