<svg xmlns="http://www.w3.org/2000/svg" width="30.534" height="30.324" viewBox="0 0 30.534 30.324"><g transform="translate(0)"><path d="M252.423,55.589a1.24,1.24,0,0,0-1.094-.3l-6.238,1.3a1.239,1.239,0,1,0,.505,2.426l2.435-.508-6.9,7.2a11.342,11.342,0,1,0,1.676,1.831l7.065-7.375-.313,2.513a1.24,1.24,0,0,0,1.078,1.382,1.3,1.3,0,0,0,.155.01,1.237,1.237,0,0,0,1.227-1.084l.79-6.331A1.237,1.237,0,0,0,252.423,55.589ZM233.642,83.105a8.876,8.876,0,0,1,0-17.752,8.748,8.748,0,0,1,3.625.778,8.873,8.873,0,0,1-3.625,16.974Z" transform="translate(-222.289 -55.26)" fill="#24394d"/></g></svg>