<svg xmlns="http://www.w3.org/2000/svg" width="98.138" height="108.687" viewBox="0 0 98.138 108.687">
  <g id="Group_7282" data-name="Group 7282" transform="translate(-674 -479.09)">
    <g id="_4042254_blood_healthcare_healthy_life_hypertension_medical_icon" data-name="4042254_blood_healthcare_healthy life_hypertension_medical_icon" transform="translate(627.315 454.906)">
      <g id="Group_7268" data-name="Group 7268" transform="translate(46.685 24.184)">
        <path id="Path_68067" data-name="Path 68067" d="M71.449,129.337v2.344a13.443,13.443,0,0,1,13.427,13.428h2.344A15.79,15.79,0,0,0,71.449,129.337Z" transform="translate(-65.644 -104.686)" fill="#24394d"/>
        <rect id="Rectangle_3886" data-name="Rectangle 3886" width="2.344" height="19.926" transform="translate(20.526 68.665)" fill="#24394d"/>
        <rect id="Rectangle_3887" data-name="Rectangle 3887" width="2.344" height="19.554" transform="translate(30.919 62.799)" fill="#24394d"/>
        <rect id="Rectangle_3888" data-name="Rectangle 3888" width="2.344" height="3.516" transform="translate(30.919 85.635)" fill="#24394d"/>
        <g id="Group_7267" data-name="Group 7267" transform="translate(47.785 7.517)">
          <path id="Path_68068" data-name="Path 68068" d="M250.523,102.8v10.84h24v5.394a6.279,6.279,0,0,1-6.272,6.272H262.3a6.876,6.876,0,1,0,0,13.753h18.85a8.01,8.01,0,0,1,0,16.019h-8.731v2.344h8.731a10.354,10.354,0,0,0,0-20.708H262.3a4.532,4.532,0,1,1,0-9.064h5.959a8.626,8.626,0,0,0,8.616-8.616v-5.394h24V56.251H250.523Zm48.009,8.5H252.867v-6.151h45.664Zm0-52.7v44.2H252.867V58.6Z" transform="translate(-250.523 -56.251)" fill="#24394d"/>
          <path id="Path_68069" data-name="Path 68069" d="M348.1,87.886H321.411v24.237H348.1Zm-2.344,21.893h-22V90.23h22Z" transform="translate(-304.793 -80.47)" fill="#24394d"/>
          <rect id="Rectangle_3889" data-name="Rectangle 3889" width="2.344" height="6.296" transform="translate(25.059 12.01)" fill="#24394d"/>
          <rect id="Rectangle_3890" data-name="Rectangle 3890" width="2.344" height="6.296" transform="translate(28.887 12.01)" fill="#24394d"/>
          <path id="Path_68070" data-name="Path 68070" d="M375.749,148.387h2.658v3.942h2.344v-6.286h-5Z" transform="translate(-346.393 -124.993)" fill="#24394d"/>
          <rect id="Rectangle_3891" data-name="Rectangle 3891" width="2.344" height="6.296" transform="translate(35.842 21.04)" fill="#24394d"/>
          <path id="Path_68071" data-name="Path 68071" d="M395.547,107.493h-5.47v6.29h5.47Zm-2.344,3.946h-.782v-1.6h.782Z" transform="translate(-357.362 -95.481)" fill="#24394d"/>
          <rect id="Rectangle_3892" data-name="Rectangle 3892" width="4.842" height="2.344" transform="translate(20.845 23.809)" fill="#24394d"/>
          <rect id="Rectangle_3893" data-name="Rectangle 3893" width="8.311" height="2.344" transform="translate(6.069 13.986)" fill="#24394d"/>
          <rect id="Rectangle_3894" data-name="Rectangle 3894" width="8.311" height="2.344" transform="translate(6.069 23.607)" fill="#24394d"/>
          <rect id="Rectangle_3895" data-name="Rectangle 3895" width="32.294" height="2.344" transform="translate(12.75 50.796)" fill="#24394d"/>
          <rect id="Rectangle_3896" data-name="Rectangle 3896" width="4.042" height="2.344" transform="translate(5.309 50.796)" fill="#24394d"/>
          <path id="Path_68072" data-name="Path 68072" d="M408.891,207.251a3.5,3.5,0,1,0,3.5,3.5A3.5,3.5,0,0,0,408.891,207.251Zm0,4.656a1.156,1.156,0,1,1,1.156-1.156A1.157,1.157,0,0,1,408.891,211.907Z" transform="translate(-369.086 -171.853)" fill="#24394d"/>
          <path id="Path_68073" data-name="Path 68073" d="M368.1,207.251a3.5,3.5,0,1,0,3.5,3.5A3.5,3.5,0,0,0,368.1,207.251Zm0,4.656a1.156,1.156,0,1,1,1.156-1.156A1.157,1.157,0,0,1,368.1,211.907Z" transform="translate(-337.854 -171.853)" fill="#24394d"/>
          <rect id="Rectangle_3897" data-name="Rectangle 3897" width="15.824" height="2.344" transform="translate(6.069 36.084)" fill="#24394d"/>
          <rect id="Rectangle_3898" data-name="Rectangle 3898" width="15.824" height="2.344" transform="translate(6.069 39.862)" fill="#24394d"/>
        </g>
        <path id="Path_68074" data-name="Path 68074" d="M69.261,123.454H83.813V82.169H59.364V77.9a18.505,18.505,0,0,0-5.945-13.429,13.7,13.7,0,0,1-4.389-10.106V45.455a4,4,0,0,1,3.993-3.993H63.583a.491.491,0,0,1,.49.49,3.665,3.665,0,0,1-3.661,3.661h-7.85v2.344h7.85A5.98,5.98,0,0,0,64.4,46.433a4.907,4.907,0,0,0,6.8-.664A4.9,4.9,0,0,0,79.577,44.2a8.651,8.651,0,0,1,.924,3.872V61.257a6.879,6.879,0,0,1-1.381,4.153,12.956,12.956,0,0,0-2.67,7.8v6.172h2.344V73.213a10.632,10.632,0,0,1,2.2-6.4,9.205,9.205,0,0,0,1.849-5.559V48.073a11.035,11.035,0,0,0-2.992-7.529V32.211a4.9,4.9,0,0,0-7.579-4.117,4.9,4.9,0,0,0-8.545-2.176c-.086-.1-.173-.2-.267-.295a4.908,4.908,0,0,0-8.277,2.466A4.909,4.909,0,0,0,47.6,32.211V37.4h2.344v-5.19a2.57,2.57,0,0,1,2.567-2.567,2.566,2.566,0,0,1,2.565,2.567h2.344V29.1a2.566,2.566,0,0,1,5.132,0v2.253H64.9V29.1a2.564,2.564,0,0,1,4.38-1.813,2.541,2.541,0,0,1,.751,1.813v3.115h2.344a2.569,2.569,0,0,1,2.565-2.567,2.57,2.57,0,0,1,2.567,2.567V42.593a2.566,2.566,0,0,1-5.132,0V35.716H70.032v6.877a2.567,2.567,0,0,1-4.213,1.968,5.972,5.972,0,0,0,.6-2.609A2.836,2.836,0,0,0,64.9,39.445V33.788H62.556v5.329H57.425V35.7H55.081v3.419H53.022a6.345,6.345,0,0,0-6.337,6.337v8.907a16.232,16.232,0,0,0,5.133,11.819A16.154,16.154,0,0,1,57.02,77.9v4.272h-2.7v3.642h-3.95v34h3.951v3.642H66.9a10.6,10.6,0,0,0,10.522,9.416h34.84v-2.344H77.42A8.256,8.256,0,0,1,69.261,123.454Zm-16.549-35.3H71.54v29.313H52.712Zm3.95,31.657H73.884v-34H56.662v-1.3H81.469v36.6H56.662Z" transform="translate(-46.685 -24.184)" fill="#24394d"/>
      </g>
    </g>
  </g>
</svg>
