<svg xmlns="http://www.w3.org/2000/svg" width="21.276" height="30.324" viewBox="0 0 21.276 30.324"><g transform="translate(-99.575 -49.711)"><path d="M117.739,67.874A10.642,10.642,0,0,0,103.882,51.8a10.447,10.447,0,0,0-1.194,1.028,10.644,10.644,0,0,0,6.34,18.1l.058,2.135.017.578h-.212l-2.187.009a1.162,1.162,0,0,0,0,2.323h.005l2.062-.009.4,0,.015.462.07,2.484a1.163,1.163,0,0,0,1.162,1.13h.032a1.166,1.166,0,0,0,1.13-1.2l-.07-2.417-.015-.47h.006l2.225-.009a1.162,1.162,0,0,0-.006-2.324h-.006l-1.905.009h-.378l-.017-.566-.047-1.6-.014-.529h.006A10.563,10.563,0,0,0,117.739,67.874Zm-7.525.8a8.319,8.319,0,1,1,5.884-2.437A8.263,8.263,0,0,1,110.213,68.67Z" transform="translate(0)" fill="#be9000"/></g></svg>