<svg xmlns="http://www.w3.org/2000/svg" width="44" height="45" viewBox="0 0 44 45"><g transform="translate(-260 -13)"><rect width="44" height="45" rx="7" transform="translate(260 13)" fill="#fff"/><path d="M7,1A6.007,6.007,0,0,0,1,7V38a6.007,6.007,0,0,0,6,6H37a6.007,6.007,0,0,0,6-6V7a6.007,6.007,0,0,0-6-6H7M7,0H37a7,7,0,0,1,7,7V38a7,7,0,0,1-7,7H7a7,7,0,0,1-7-7V7A7,7,0,0,1,7,0Z" transform="translate(260 13)" fill="#b2bec2"/><g transform="translate(270 23)"><path d="M20.673,6H2.692a.692.692,0,0,0,0,1.383H20.673a.692.692,0,0,0,0-1.383Z" transform="translate(0 0)" fill="#24394d"/><path d="M2.692,16.383h8.991a.692.692,0,1,0,0-1.383H2.692a.692.692,0,0,0,0,1.383Z" transform="translate(0 -2.776)" fill="#24394d"/><path d="M17.906,24H2.692a.692.692,0,0,0,0,1.383H17.906a.692.692,0,0,0,0-1.383Z" transform="translate(0 -5.552)" fill="#24394d"/></g></g></svg>