<svg xmlns="http://www.w3.org/2000/svg" width="108.215" height="108.687" viewBox="0 0 108.215 108.687"><g transform="translate(-0.266)"><path d="M100.291,36.9,86.705,44.354a4.415,4.415,0,0,1-4.246-7.735,3.907,3.907,0,0,1,.577-.263l14.5-5.443a3.3,3.3,0,0,1,2.751,5.986Z" transform="translate(-12.338 -4.633)" fill="#ffc298"/><path d="M99.709,51.847,86.718,55.49a4.356,4.356,0,1,1-2.344-8.39,4.551,4.551,0,0,1,.662-.127l13.391-1.6a3.312,3.312,0,0,1,1.282,6.47Z" transform="translate(-12.469 -6.844)" fill="#ffc298"/><path d="M26.73,97.593l3.15-6.1s4.016-1.1,15,4.959S56.9,105.889,56.9,105.889s-2.547,5.095-3.855,5.095C49.58,111.23,32.555,101.253,26.73,97.593Z" transform="translate(-4.252 -13.794)" fill="#892e1d"/><path d="M98.563,62.421l-8.491-1.41,3.133-.569-5.214,2.785a3.312,3.312,0,0,1-3.7-5.451L88.781,54a3.15,3.15,0,0,1,2.972-.6h.127l8.219,2.6a3.3,3.3,0,0,1-1.537,6.4Z" transform="translate(-12.758 -8.035)" fill="#ffc298"/><path d="M97.879,74.041,84.751,75.909a3.889,3.889,0,1,1-1.1-7.7H84L97.25,67.52a3.295,3.295,0,0,1,.628,6.521Z" transform="translate(-12.337 -10.188)" fill="#ffc298"/><path d="M46.625,44.53s-7.413,6.139-9.96,11.37S31.57,96.029,31.57,96.029L50.7,107.305a44.613,44.613,0,0,1,5.095-10c3.2-4.466,12.737-7.54,15.114-13.025S67.921,50.644,68.031,49.82,46.625,44.53,46.625,44.53Z" transform="translate(-4.982 -6.719)" fill="#ffc298"/><path d="M49.355,50.76S42.9,58.665,43.326,63.989a27.019,27.019,0,0,0,2.361,9.145l6.36-12.125Z" transform="translate(-6.753 -7.659)" fill="#e1927a"/><path d="M56.453,79.677S56.029,90.6,51.91,94.715a141.756,141.756,0,0,0-9.79,11.641l10.189,6.02a44.612,44.612,0,0,1,5.095-10c3.2-4.466,12.737-7.54,15.114-13.025.8-1.868.7-6.351.238-11.489l-7.642.679Z" transform="translate(-6.574 -11.748)" fill="#e1927a"/><path d="M6.98,0H71.545a6.98,6.98,0,0,1,6.98,6.98V40.135a6.98,6.98,0,0,1-6.98,6.98H6.98A6.98,6.98,0,0,1,0,40.135V6.98A6.98,6.98,0,0,1,6.98,0Z" transform="translate(87.528) rotate(90)" fill="#be9000"/><rect width="65.985" height="36.292" rx="2.7" transform="translate(82.087 5.421) rotate(90)" fill="#fff"/><path d="M20.22,104.287S28.015,93.18,28.9,91.55c.7,2.114,6.054,9.612,12.024,12.414s12.958,3.982,15,1.978L50.041,122.5s-19.725.1-29.821-18.214" transform="translate(-3.27 -13.813)" fill="#be9000"/><rect width="25.734" height="10.558" rx="1.97" transform="translate(51.074 54.25)" fill="#be9000"/><path d="M71.426,59.792l-3.074.951-3.091.849c-2.072.569-4.152,1.1-6.266,1.588h0l2.411-.993A21.312,21.312,0,0,0,56.83,71.23a109.409,109.409,0,0,0-2.335,11.956,9.017,9.017,0,0,1-17.814-2.8,9.637,9.637,0,0,1,.713-2.344A119.808,119.808,0,0,1,43.864,65.3a40.511,40.511,0,0,1,4.73-6.368,28.021,28.021,0,0,1,6.428-5.307l1.078-.637a2.615,2.615,0,0,1,1.333-.357h0c2-.11,4.025-.263,6.046-.45l3.04-.255,2.989-.357h.17a4.246,4.246,0,0,1,1.749,8.287Z" transform="translate(-5.737 -7.775)" fill="#ffc298"/><path d="M53.842,114.5a5.944,5.944,0,0,1-1.944,4.067c-1.061.849-1.928.509-1.928-.849a6.046,6.046,0,0,1,1.928-4.067C52.976,112.763,53.842,113.145,53.842,114.5Z" transform="translate(-7.758 -17.076)" fill="#3b0b1b"/><path d="M86.3,36.943c0-.2-.323-.408-.535-.459q-3.8-.9-7.642-1.7a.747.747,0,0,0-.62.3c-.246.4-.459.849-.671,1.24-.093.187-.178.374-.263.56-.212.476-.408.382-.968.391-2.607-.008-9.247-6.64-9.153-9.187,0-.552-.085-.747.391-.959.263-.119.535-.246.79-.382h0c.34-.17.679-.357,1.01-.56a.773.773,0,0,0,.3-.611l-1.7-7.642a.764.764,0,0,0-.467-.535,5.044,5.044,0,0,0-1.078-.076h-.17c-2.547.144-5.095,2.148-5.095,7.251,0,7.158,10.045,18.732,18.74,18.732,4.916,0,6.954-2.386,7.226-4.823h0A5.094,5.094,0,0,0,86.3,36.943Z" transform="translate(-9.337 -2.613)" fill="#be9000"/><path d="M83.461,30.641h-2A5.357,5.357,0,0,0,76.11,25.29v-2A7.36,7.36,0,0,1,83.461,30.641Z" transform="translate(-11.703 -3.665)" fill="#be9000" opacity="0.51"/><path d="M88.429,29.76h-2a10.31,10.31,0,0,0-10.31-10.31h-.008l0-2a12.31,12.31,0,0,1,12.32,12.31Z" transform="translate(-11.703 -2.784)" fill="#be9000" opacity="0.51"/><path d="M76.11,28.85v2.479h2.454A2.471,2.471,0,0,0,76.11,28.85Z" transform="translate(-11.703 -4.353)" fill="#be9000" opacity="0.51"/><rect width="108.215" height="108.215" transform="translate(0.266 0.142)" fill="none"/></g></svg>