<svg xmlns="http://www.w3.org/2000/svg" width="28.911" height="30.324" viewBox="0 0 28.911 30.324"><path d="M228.877,331.3a1.039,1.039,0,0,0-.918-.253l-4.67.972a1.044,1.044,0,0,0,.427,2.043l1.83-.38-.573.6-4.135,4.315-.315.329a8.621,8.621,0,0,0-1.925-1.248,8.576,8.576,0,0,0-7.026-.146,8.614,8.614,0,0,0-2.428,1.549l-.339-.355-1.006-1.05-.274-.288,1.37-1.162a1.043,1.043,0,1,0-1.35-1.591l-1.468,1.243-.318-.332-1.164-1.215-.621-.649,1.827.38a1.044,1.044,0,1,0,.427-2.043l-4.668-.972a1.043,1.043,0,0,0-1.25,1.15l.591,4.737a1.045,1.045,0,0,0,1.034.914,1.262,1.262,0,0,0,.132-.007,1.043,1.043,0,0,0,.9-1.164l-.146-1.176.369.383.974,1.018.313.327-1.475,1.25a1.044,1.044,0,0,0,1.35,1.593l1.572-1.333.262.274,1.187,1.241.394.411a8.606,8.606,0,0,0,5.721,13.292l.009.362.035,1.178.014.515-1.8.007a1.044,1.044,0,0,0,0,2.087h0l1.848-.007.014.452.051,1.786a1.043,1.043,0,0,0,1.041,1.013h.03a1.044,1.044,0,0,0,1.013-1.074l-.049-1.725-.011-.461,1.66-.007a1.044,1.044,0,0,0,0-2.087h0l-1.712.007-.014-.505-.033-1.146-.009-.3a8.6,8.6,0,0,0,6.352-13.58l.324-.341,3.9-4.07.533-.557-.146,1.176a1.043,1.043,0,0,0,.907,1.164,1.247,1.247,0,0,0,.13.007,1.041,1.041,0,0,0,1.034-.914l.591-4.737A1.047,1.047,0,0,0,228.877,331.3Zm-13.955,20.69a6.526,6.526,0,0,1-2.409-12.592,6.519,6.519,0,0,1,5.192.162,6.526,6.526,0,0,1-2.783,12.429Z" transform="translate(-200.303 -331.029)" fill="#24394d"/></svg>