<svg xmlns="http://www.w3.org/2000/svg" width="45" height="45" viewBox="0 0 45 45"><g transform="translate(-1831 -11)"><circle cx="22.5" cy="22.5" r="22.5" transform="translate(1831 11)" fill="#fff"/><path d="M22.5,1a21.493,21.493,0,1,0,8.368,1.689A21.506,21.506,0,0,0,22.5,1m0-1A22.5,22.5,0,1,1,0,22.5,22.5,22.5,0,0,1,22.5,0Z" transform="translate(1831 11)" fill="#24394d"/><g transform="translate(1843.008 19.509)"><rect width="5.409" height="1.992" transform="translate(7.784 20.515)" fill="#74b5b5"/><path d="M73.552,280.89h-4.4s.111,2.775-.427,3.58h5.3C73.5,283.665,73.552,280.89,73.552,280.89Z" transform="translate(-60.89 -262.712)" fill="#f7ae77"/><path d="M70.27,282.986a4.674,4.674,0,0,0,2.315.615,5.5,5.5,0,0,0,2.243-.5,17.877,17.877,0,0,1-.107-2.209h-4.4a17.7,17.7,0,0,1-.056,2.094Z" transform="translate(-62.059 -262.712)" fill="#f8dad2"/><path d="M55.21,296.517l-6.379-2.285H44.6l-6.379,2.285s-2.234.735-1.973,4.3H57.183C57.488,297.033,55.21,296.517,55.21,296.517Z" transform="translate(-36.228 -272.836)" fill="#f7ae77"/><path d="M55.21,297.738,50,295.871l-3.278,2.286-3.2-2.315-5.3,1.9s-2.234.735-1.973,4.3H57.183C57.488,298.254,55.21,297.738,55.21,297.738Z" transform="translate(-36.228 -274.057)" fill="#edf8f4"/><path d="M43.518,295.841l-5.3,1.9s-2.234.735-1.973,4.3h8.439Z" transform="translate(-36.228 -274.057)" fill="#060c36"/><path d="M95.137,297.831l-5.213-1.867-1.077,6.167H97.11C97.415,298.347,95.137,297.831,95.137,297.831Z" transform="translate(-76.155 -274.15)" fill="#060c36"/><g transform="translate(15.263 11.183)"><path d="M99.545,253.428c-.152.937.111,1.77.587,1.859s.982-.6,1.133-1.533-.112-1.769-.587-1.859S99.7,252.492,99.545,253.428Z" transform="translate(-99.502 -251.887)" fill="#f7ae77"/><g transform="translate(0.37 0.365)"><g transform="translate(0.24)"><path d="M102.034,254.323s.007-.053.026-.138a1.7,1.7,0,0,1,.114-.337c.06-.125.156-.269.276-.277a.26.26,0,0,1,.092.013.461.461,0,0,1,.046.024.335.335,0,0,1,.034.028.479.479,0,0,1,.114.2,1.18,1.18,0,0,1,.056.266,1.284,1.284,0,0,1,0,.268c-.015.094-.019.191-.036.272l-.045.235c-.019.073-.034.141-.048.2s-.031.111-.042.155c-.024.086-.037.136-.037.136s.025-.043.064-.121c.018-.04.045-.086.069-.144s.051-.122.078-.194.049-.157.075-.244.038-.177.057-.272a1.281,1.281,0,0,0,.012-.321,1.445,1.445,0,0,0-.061-.317.656.656,0,0,0-.165-.275.347.347,0,0,0-.068-.049.505.505,0,0,0-.065-.027.38.38,0,0,0-.143-.007.375.375,0,0,0-.233.165.88.88,0,0,0-.113.235,1.474,1.474,0,0,0-.063.377A.9.9,0,0,0,102.034,254.323Z" transform="translate(-102.03 -253.399)" fill="#f79665"/></g><path d="M101.572,256.84s-.044-.1.269-.124c0,0,.349.064.144.531a1.51,1.51,0,0,0-.1.314c-.031.156.024.368-.059.507-.109.179-.384.077-.4-.128a1.18,1.18,0,0,1,.223-.538.418.418,0,0,0-.077-.562Z" transform="translate(-101.327 -255.916)" fill="#f79665"/><g transform="translate(0 2.005)"><path d="M101.129,261.71a.127.127,0,0,0-.024.025.305.305,0,0,0-.046.087.287.287,0,0,0-.016.067.238.238,0,0,0-.006.078.341.341,0,0,0,.007.083.644.644,0,0,0,.026.078.356.356,0,0,0,.035.071c.014.02.032.037.046.054a.2.2,0,0,0,.1.068.29.29,0,0,0,.107.027.713.713,0,0,0-.049-.114.3.3,0,0,0-.026-.044c-.007-.016-.013-.035-.022-.052a.4.4,0,0,0-.026-.049.265.265,0,0,1-.02-.052.542.542,0,0,1-.038-.1.442.442,0,0,1-.014-.052.38.38,0,0,0-.012-.051A.874.874,0,0,1,101.129,261.71Z" transform="translate(-101.035 -261.71)" fill="#f79665"/></g></g></g><g transform="translate(3.987 11.183)"><path d="M54.52,253.428c.152.937-.112,1.77-.586,1.859s-.982-.6-1.133-1.533.112-1.769.587-1.859S54.37,252.492,54.52,253.428Z" transform="translate(-52.758 -251.887)" fill="#f7ae77"/><g transform="translate(0.277 0.365)"><path d="M54.821,254.323s-.007-.053-.026-.138a1.7,1.7,0,0,0-.114-.337c-.06-.125-.155-.269-.276-.277a.26.26,0,0,0-.092.013.488.488,0,0,0-.046.024.331.331,0,0,0-.034.028.479.479,0,0,0-.114.2,1.208,1.208,0,0,0-.056.266,1.268,1.268,0,0,0,0,.268c.014.094.019.191.036.272s.031.162.045.235.034.141.047.2.031.111.042.155c.024.086.036.136.036.136s-.025-.043-.064-.121c-.018-.04-.045-.086-.068-.144s-.051-.122-.079-.194-.049-.157-.075-.244-.038-.177-.057-.272a1.247,1.247,0,0,1-.012-.321,1.416,1.416,0,0,1,.061-.317.658.658,0,0,1,.165-.275.347.347,0,0,1,.068-.049.519.519,0,0,1,.065-.027.381.381,0,0,1,.143-.007.375.375,0,0,1,.233.165.866.866,0,0,1,.113.235,1.475,1.475,0,0,1,.063.377A.9.9,0,0,1,54.821,254.323Z" transform="translate(-53.908 -253.399)" fill="#f79665"/><path d="M56.192,256.84s.044-.1-.269-.124c0,0-.349.064-.144.531a1.512,1.512,0,0,1,.1.314c.031.156-.025.368.059.507.108.179.384.077.4-.128a1.175,1.175,0,0,0-.222-.538.419.419,0,0,1,.076-.562Z" transform="translate(-55.279 -255.916)" fill="#f79665"/><g transform="translate(0.839 2.005)"><path d="M57.613,261.71a.118.118,0,0,1,.024.025.305.305,0,0,1,.046.087.286.286,0,0,1,.016.067.238.238,0,0,1,.006.078.341.341,0,0,1-.007.083.571.571,0,0,1-.026.078.358.358,0,0,1-.035.071.68.68,0,0,1-.046.054.2.2,0,0,1-.1.068.29.29,0,0,1-.107.027.738.738,0,0,1,.048-.114.414.414,0,0,1,.026-.044c.008-.016.013-.035.022-.052a.364.364,0,0,1,.026-.049.238.238,0,0,0,.02-.052.542.542,0,0,0,.038-.1.5.5,0,0,0,.013-.052.38.38,0,0,1,.012-.051A.9.9,0,0,0,57.613,261.71Z" transform="translate(-57.388 -261.71)" fill="#f79665"/></g></g></g><path d="M62.61,216.369h-.15c-3.776.034-5.9,1.109-5.318,7.993l.65,5.483a2.282,2.282,0,0,0,1.213,1.6l2.051,1.521a4.376,4.376,0,0,0,1.48.39,4.371,4.371,0,0,0,1.479-.39l2.051-1.521a2.28,2.28,0,0,0,1.213-1.6l.685-5.356C68.544,217.6,66.386,216.4,62.61,216.369Z" transform="translate(-52.025 -213.753)" fill="#f7ae77"/><path d="M68.267,249.329c0,.357.2.647.449.645s.443-.293.44-.651-.2-.647-.448-.645S68.265,248.971,68.267,249.329Z" transform="translate(-60.539 -238.269)" fill="#1b0d08"/><path d="M68.168,249.914a.192.192,0,1,1-.056-.136.192.192,0,0,1,.056.136Z" transform="translate(-60.173 -239.061)" fill="#fff"/><path d="M88.679,249.329c0,.357-.2.647-.449.645s-.443-.293-.441-.651.2-.647.448-.645S88.681,248.971,88.679,249.329Z" transform="translate(-75.353 -238.269)" fill="#1b0d08"/><path d="M90.365,249.914a.192.192,0,1,0,.056-.136.192.192,0,0,0-.056.136Z" transform="translate(-77.307 -239.061)" fill="#fff"/><g transform="translate(9.373 13.112)"><path d="M76.893,261.318a1.253,1.253,0,0,1-.357.236,1.4,1.4,0,0,1-.427.116,1.41,1.41,0,0,1-.685-.092,1.91,1.91,0,0,1-.213-.1l-.088-.045-.02-.149a1.767,1.767,0,0,1-.016-.186v-.181a2.033,2.033,0,0,1,.049-.357,1.6,1.6,0,0,1,.12-.346,1.257,1.257,0,0,1,.209-.323,1.7,1.7,0,0,1,.1.365,2.586,2.586,0,0,1,.043.346c0,.113.007.226,0,.338l-.011.167a1.2,1.2,0,0,1-.017.163l-.108-.194c.048.029.092.069.142.1a1.209,1.209,0,0,0,.153.078,1.68,1.68,0,0,0,.164.062c.057.012.115.032.176.04a1.307,1.307,0,0,0,.185.02,1.711,1.711,0,0,0,.193,0,2.423,2.423,0,0,0,.408-.053Z" transform="translate(-75.085 -259.888)" fill="#ef9163"/></g><path d="M65.9,244.52a.312.312,0,0,1-.353.239,3.418,3.418,0,0,0-1.8.151.322.322,0,0,1-.384-.177h0a.285.285,0,0,1,.156-.4,4.043,4.043,0,0,1,2.116-.187.316.316,0,0,1,.261.376Z" transform="translate(-56.798 -234.782)" fill="#e37a44"/><path d="M85.038,244.52a.312.312,0,0,0,.352.239,3.42,3.42,0,0,1,1.8.151.322.322,0,0,0,.384-.177h0a.285.285,0,0,0-.156-.4,4.042,4.042,0,0,0-2.116-.187.316.316,0,0,0-.261.376Z" transform="translate(-73.259 -234.782)" fill="#e37a44"/><path d="M74.575,271.278l.309.607a1.8,1.8,0,0,0,2.353-.576A24.162,24.162,0,0,1,74.575,271.278Z" transform="translate(-65.326 -255.418)" fill="#fff"/><g transform="translate(4.044)"><path d="M64.972,208.426c.443-1.932-1.9-2.219-1.9-2.219a18.282,18.282,0,0,1-4.224-.561c-4.785-.673-5.334,1.7-5.334,1.7A7.811,7.811,0,0,0,53,210.093l.57,6.623s.487-.081.646.655l.118.871.55.007c-.139-2.73-.139-4.961-.139-4.961.043-.8,0-1.966,1.222-2.1a18.281,18.281,0,0,0,1.846.25,15.454,15.454,0,0,0,3.531-.088c.759-.093,2.067-.389,2.6.338a3.615,3.615,0,0,1,.382,1.944c.009.331-.022.653-.042.982l-.309,3.641h.66c.106-1.667.971-1.428.971-1.428.5-3.742,1.023-6.181,1.023-6.182s.183-2.064-1.657-2.213" transform="translate(-52.994 -205.526)" fill="#e37a44"/></g><g transform="translate(16.022 1.992)"><path d="M102.841,213.784s.541.479-.189,1.086l.618.733s.658-.949,1.136-.558a.652.652,0,0,0-.86-.391S103.831,213.847,102.841,213.784Z" transform="translate(-102.652 -213.784)" fill="#e37a44"/></g><path d="M57.563,295.841l1.17,6.2H57.46l-2.722-5.185Z" transform="translate(-50.272 -274.056)" fill="#0a1253"/><path d="M89.925,295.964l-1.077,6.167h1.187L92.4,296.85Z" transform="translate(-76.155 -274.15)" fill="#0a1253"/><path d="M70.163,294.152l-.43-2.2-2.276-1.377-.332,1.385Z" transform="translate(-59.673 -270.063)" fill="#74b5b5"/><path d="M79.717,294.152l.43-2.2,2.276-1.377.331,1.385Z" transform="translate(-69.227 -270.063)" fill="#74b5b5"/><g transform="translate(9.074 22.19)"><path d="M76.357,297.521H74.184a.664.664,0,0,0-.278.8l.692,1.1h1.346l.691-1.1a.663.663,0,0,0-.278-.8Z" transform="translate(-73.853 -297.521)" fill="#f72c2f"/><path d="M76.5,297.647a1.2,1.2,0,0,1-.044.646,1.265,1.265,0,0,1-.965.892.838.838,0,0,1-.994-.555,1.191,1.191,0,0,1,.068-1.11h-.387a.664.664,0,0,0-.278.8l.692,1.1h1.346l.691-1.1A.611.611,0,0,0,76.5,297.647Z" transform="translate(-73.853 -297.521)" fill="#f72c2f"/><path d="M74.59,305.4l-.743,3.892h2.836l-.747-3.892Z" transform="translate(-73.847 -303.497)" fill="#f72c2f"/></g><path d="M66.276,291.955,65.2,293.926l-2.63-1.787L64,290.578Z" transform="translate(-56.216 -270.063)" fill="#c2e8db"/><path d="M81.5,291.955l1.076,1.971,2.63-1.787-1.43-1.561Z" transform="translate(-70.58 -270.063)" fill="#c2e8db"/></g></g></svg>