<svg xmlns="http://www.w3.org/2000/svg" xmlns:xlink="http://www.w3.org/1999/xlink" width="300" height="176" viewBox="0 0 300 176"><defs><clipPath id="a"><rect width="300" height="176" transform="translate(1135 -374)" fill="#fff" stroke="#707070" stroke-width="1"/></clipPath></defs><g transform="translate(-1135 374)" clip-path="url(#a)"><g transform="translate(104.486 -881.875)"><g transform="translate(1051 466)"><rect width="291.744" height="0.146" transform="translate(0 191.06)" fill="#ebebeb"/><rect width="19.326" height="0.146" transform="translate(243.185 200.452)" fill="#ebebeb"/><rect width="5.072" height="0.146" transform="translate(188.19 202.035)" fill="#ebebeb"/><rect width="11.199" height="0.146" transform="translate(231.403 195.034)" fill="#ebebeb"/><rect width="25.203" height="0.146" transform="translate(30.609 196.014)" fill="#ebebeb"/><rect width="3.695" height="0.146" transform="translate(61.007 196.014)" fill="#ebebeb"/><rect width="54.659" height="0.146" transform="translate(76.712 198.478)" fill="#ebebeb"/><g transform="translate(45.549 37.652)"><g transform="translate(112.684 1.347)"><rect width="87.962" height="78.053" fill="#e6e6e6"/><rect width="83.444" height="73.816" transform="translate(2.203 2.14)" fill="#f0f0f0"/><path d="M294.544,125.458,274.96,199.113V164.5l10.34-39.045Z" transform="translate(-272.758 -123.318)" fill="#fff"/><path d="M304.057,125.458,284.3,199.274h-3.153L300.9,125.458Z" transform="translate(-275.335 -123.318)" fill="#fff"/><path d="M412.865,205.285v11.8l-4,15.442h-3.153Z" transform="translate(-327.219 -156.567)" fill="#fff"/><rect width="1.406" height="76.791" transform="translate(29.901 0.813)" fill="#e6e6e6"/><rect width="1.406" height="76.791" transform="translate(57.142 0.813)" fill="#e6e6e6"/></g><g transform="translate(0 28.204)"><rect width="93.688" height="27.531" fill="#e6e6e6"/><rect width="82.908" height="27.531" transform="translate(10.78)" fill="#ebebeb"/><rect width="24.03" height="79.408" transform="translate(91.938 1.751) rotate(90)" fill="#e0e0e0"/><rect width="1.385" height="24.03" transform="translate(27.102 1.751)" fill="#ebebeb"/><rect width="1.385" height="24.03" transform="translate(51.487 18.328) rotate(90)" fill="#ebebeb"/><rect width="1.385" height="24.03" transform="translate(76.347 8.561) rotate(90)" fill="#ebebeb"/><rect width="1.385" height="24.03" transform="translate(51.624 1.751)" fill="#ebebeb"/><rect width="1.385" height="24.03" transform="translate(76.73 1.751)" fill="#ebebeb"/></g><g transform="translate(30.139)"><circle cx="9.033" cy="9.033" r="9.033" transform="translate(0 4.151) rotate(-13.283)" fill="#e0e0e0"/><circle cx="7.68" cy="7.68" r="7.68" transform="translate(2.055 4.516) rotate(-9.217)" fill="#f0f0f0"/><path d="M145.179,143.3v-5.369l-3.558,2.013" transform="translate(-134.675 -127.168)" fill="#f0f0f0"/><path d="M145.179,143.8a.5.5,0,0,1-.5-.5v-4.511l-2.812,1.591a.5.5,0,1,1-.492-.87l3.558-2.013a.5.5,0,0,1,.746.435V143.3A.5.5,0,0,1,145.179,143.8Z" transform="translate(-134.675 -127.168)" fill="#e0e0e0"/></g></g></g><g transform="translate(1083 670.198)"><ellipse cx="113.132" cy="6.607" rx="113.132" ry="6.607" transform="translate(0 0)" fill="#f5f5f5"/></g><g transform="translate(1168 568.529)"><g transform="translate(13.242)"><path d="M274.355,234.628v-1.9h-3.347v1.9a3.044,3.044,0,0,1-1.535,2.644h0a3.043,3.043,0,0,0-1.535,2.643v17.8a2.012,2.012,0,0,0,2.012,2.012h5.463a2.012,2.012,0,0,0,2.012-2.012v-17.8a3.043,3.043,0,0,0-1.535-2.643h0a3.044,3.044,0,0,1-1.535-2.644Z" transform="translate(-267.938 -231.526)" fill="#407bff"/><path d="M274.355,234.628v-1.9h-3.347v1.9a3.044,3.044,0,0,1-1.535,2.644h0a3.043,3.043,0,0,0-1.535,2.643v17.8a2.012,2.012,0,0,0,2.012,2.012h5.463a2.012,2.012,0,0,0,2.012-2.012v-17.8a3.043,3.043,0,0,0-1.535-2.643h0a3.044,3.044,0,0,1-1.535-2.644Z" transform="translate(-267.938 -231.526)" fill="#fff" opacity="0.7"/><rect width="3.613" height="2.258" transform="translate(2.938)" fill="#407bff"/><rect width="9.488" height="2.589" transform="translate(0 13.778)" fill="#fff" opacity="0.2"/><rect width="9.488" height="2.589" transform="translate(0 16.806)" fill="#fff" opacity="0.2"/><rect width="9.488" height="2.589" transform="translate(0 19.834)" fill="#fff" opacity="0.2"/></g><g transform="translate(25.584 18.741)"><path d="M296.384,272.716H290.69L290,263.91h7.079Z" transform="translate(-289.469 -263.256)" fill="#407bff"/><path d="M297.076,263.908l-.2,2.532-.5,6.273h-5.689l-.5-6.273-.2-2.532Z" transform="translate(-289.469 -263.255)" fill="#fff" opacity="0.7"/><path d="M297.019,268.248l-.5,6.272H290.83l-.5-6.272Z" transform="translate(-289.611 -265.063)" fill="#fff" opacity="0.2"/><path d="M297.228,263.882h-8.137l.584-1.093h6.969Z" transform="translate(-289.091 -262.789)" fill="#407bff"/></g><g transform="translate(36.199 21.928)"><path d="M327.661,268.252H308.643a1.361,1.361,0,0,0-1.36,1.361V355.05h3.475v-6.074h14.788v6.074h3.475V269.613A1.36,1.36,0,0,0,327.661,268.252Z" transform="translate(-307.283 -268.252)" fill="#263238"/><path d="M327.661,268.252H308.643a1.361,1.361,0,0,0-1.36,1.361V355.05h3.475v-6.074h14.788v6.074h3.475V269.613A1.36,1.36,0,0,0,327.661,268.252Z" transform="translate(-307.283 -268.252)" fill="#fff" opacity="0.7"/><path d="M326.493,268.252h-17.85a1.361,1.361,0,0,0-1.36,1.361V355.05h2.307v-6.074h15.956v6.074h2.307V269.613A1.361,1.361,0,0,0,326.493,268.252Z" transform="translate(-307.283 -268.252)" fill="#fff" opacity="0.4"/></g><rect width="52.91" height="74.304" transform="translate(1.788 28.201)" fill="#263238"/><rect width="52.91" height="74.304" transform="translate(1.788 28.201)" fill="#fff" opacity="0.75"/><g transform="translate(0 21.928)"><path d="M265.621,268.252H246.6a1.36,1.36,0,0,0-1.36,1.361V355.05h3.475v-6.074H263.5v6.074h3.475V269.613a1.361,1.361,0,0,0-1.357-1.361Z" transform="translate(-245.244 -268.252)" fill="#263238"/><path d="M265.621,268.252H246.6a1.36,1.36,0,0,0-1.36,1.361V355.05h3.475v-6.074H263.5v6.074h3.475V269.613a1.361,1.361,0,0,0-1.357-1.361Z" transform="translate(-245.244 -268.252)" fill="#fff" opacity="0.7"/><path d="M264.454,268.252H246.6a1.36,1.36,0,0,0-1.36,1.361V355.05h2.307v-6.074H263.5v6.074h2.307V269.613A1.361,1.361,0,0,0,264.454,268.252Z" transform="translate(-245.244 -268.252)" fill="#fff" opacity="0.4"/></g><rect width="29.635" height="9.052" transform="translate(22.6 30.397)" fill="#fff" opacity="0.2"/><rect width="29.635" height="58.44" transform="translate(22.6 41.477)" fill="#fff" opacity="0.2"/></g><g transform="translate(1100 573.998)"><g transform="translate(77.981 59.126)"><g transform="translate(10.46 0.836)"><path d="M261.243,358.76c-.442-.134-.709-.362-.709-.606V343.548a.357.357,0,0,1,.033-.163.622.622,0,0,1,.2-.235,1.561,1.561,0,0,1,.479-.225,2.854,2.854,0,0,1,.624-.109c.088-.006.177-.008.266-.008H334.9c.089,0,.177,0,.264.008a2.87,2.87,0,0,1,.636.112,1.537,1.537,0,0,1,.468.222.609.609,0,0,1,.2.235.356.356,0,0,1,.033.163v14.606c0,.244-.267.471-.709.606a3.224,3.224,0,0,1-1.487.058l-35.792-7.185-35.792,7.185a3.21,3.21,0,0,1-.626.06A3.021,3.021,0,0,1,261.243,358.76Zm2.43-14.123v12.412l30.914-6.206Zm38.784,6.206,30.914,6.206V344.637Zm-32.809-6.586,28.874,5.8,28.874-5.8Z" transform="translate(-260.533 -342.808)" fill="#263238"/><g opacity="0.3"><path d="M261.243,358.76c-.442-.134-.709-.362-.709-.606V343.548a.357.357,0,0,1,.033-.163.622.622,0,0,1,.2-.235,1.561,1.561,0,0,1,.479-.225,2.854,2.854,0,0,1,.624-.109c.088-.006.177-.008.266-.008H334.9c.089,0,.177,0,.264.008a2.87,2.87,0,0,1,.636.112,1.537,1.537,0,0,1,.468.222.609.609,0,0,1,.2.235.356.356,0,0,1,.033.163v14.606c0,.244-.267.471-.709.606a3.224,3.224,0,0,1-1.487.058l-35.792-7.185-35.792,7.185a3.21,3.21,0,0,1-.626.06A3.021,3.021,0,0,1,261.243,358.76Zm2.43-14.123v12.412l30.914-6.206Zm38.784,6.206,30.914,6.206V344.637Zm-32.809-6.586,28.874,5.8,28.874-5.8Z" transform="translate(-260.533 -342.808)" fill="#fff"/></g></g><path d="M244.176,341.375H350.322a1.569,1.569,0,0,1,1.57,1.57h0a1.57,1.57,0,0,1-1.57,1.57H244.176a1.57,1.57,0,0,1-1.57-1.57h0a1.57,1.57,0,0,1,1.57-1.57Z" transform="translate(-242.606 -341.375)" fill="#263238"/><g opacity="0.3"><path d="M244.176,341.375H350.322a1.569,1.569,0,0,1,1.57,1.57h0a1.57,1.57,0,0,1-1.57,1.57H244.176a1.57,1.57,0,0,1-1.57-1.57h0a1.57,1.57,0,0,1,1.57-1.57Z" transform="translate(-242.606 -341.375)" fill="#fff"/></g><g transform="translate(4.03 13.689)"><path d="M345.916,379.616a1.647,1.647,0,0,0,1.646-1.606l.283-11.485a1.648,1.648,0,0,0-1.647-1.689H257.513a1.647,1.647,0,0,0-1.415.8L249.746,376.3a1.648,1.648,0,0,0,2.831,1.686l5.873-9.859h86.06l-.242,9.8a1.647,1.647,0,0,0,1.606,1.687Z" transform="translate(-249.513 -364.836)" fill="#263238"/><g opacity="0.3"><path d="M345.916,379.616a1.647,1.647,0,0,0,1.646-1.606l.283-11.485a1.648,1.648,0,0,0-1.647-1.689H257.513a1.647,1.647,0,0,0-1.415.8L249.746,376.3a1.648,1.648,0,0,0,2.831,1.686l5.873-9.859h86.06l-.242,9.8a1.647,1.647,0,0,0,1.606,1.687Z" transform="translate(-249.513 -364.836)" fill="#fff"/></g></g></g><path d="M108.96,243.113V303.37c0,1.7.966,3.07,2.152,3.07H180.33c1.189,0,2.155-1.373,2.155-3.07V243.113c0-1.7-.966-3.07-2.155-3.07H111.112C109.926,240.043,108.96,241.416,108.96,243.113Zm58.866,3.7c0-1.56.886-2.828,1.983-2.828h7.018a1.742,1.742,0,0,1,1.4.829,3.514,3.514,0,0,1,.582,2c0,1.565-.886,2.828-1.983,2.828h-7.018a1.735,1.735,0,0,1-1.4-.829,3.49,3.49,0,0,1-.582-2Zm-55.19,0c0-1.56.885-2.828,1.979-2.828h7.021a1.748,1.748,0,0,1,1.4.829,3.518,3.518,0,0,1,.581,2c0,1.565-.889,2.828-1.983,2.828h-7.021a1.74,1.74,0,0,1-1.4-.829,3.546,3.546,0,0,1-.576-2Z" transform="translate(-108.96 -240.043)" fill="#407bff"/><path d="M108.96,243.113V303.37c0,1.7.966,3.07,2.152,3.07H180.33c1.189,0,2.155-1.373,2.155-3.07V243.113c0-1.7-.966-3.07-2.155-3.07H111.112C109.926,240.043,108.96,241.416,108.96,243.113Zm58.866,3.7c0-1.56.886-2.828,1.983-2.828h7.018a1.742,1.742,0,0,1,1.4.829,3.514,3.514,0,0,1,.582,2c0,1.565-.886,2.828-1.983,2.828h-7.018a1.735,1.735,0,0,1-1.4-.829,3.49,3.49,0,0,1-.582-2Zm-55.19,0c0-1.56.885-2.828,1.979-2.828h7.021a1.748,1.748,0,0,1,1.4.829,3.518,3.518,0,0,1,.581,2c0,1.565-.889,2.828-1.983,2.828h-7.021a1.74,1.74,0,0,1-1.4-.829,3.546,3.546,0,0,1-.576-2Z" transform="translate(-108.96 -240.043)" fill="#fff" opacity="0.6"/><path d="M110.94,243.113V303.37c0,1.7.966,3.07,2.152,3.07H182.31c1.19,0,2.155-1.373,2.155-3.07V243.113c0-1.7-.966-3.07-2.155-3.07H113.092C111.906,240.043,110.94,241.416,110.94,243.113Zm58.867,3.7c0-1.56.885-2.828,1.982-2.828h7.018a1.743,1.743,0,0,1,1.4.829,3.518,3.518,0,0,1,.581,2c0,1.565-.885,2.828-1.983,2.828h-7.018a1.735,1.735,0,0,1-1.4-.829,3.49,3.49,0,0,1-.58-2Zm-55.19,0c0-1.56.885-2.828,1.979-2.828h7.022a1.747,1.747,0,0,1,1.4.829,3.513,3.513,0,0,1,.581,2c0,1.565-.889,2.828-1.982,2.828H116.6a1.739,1.739,0,0,1-1.4-.829,3.546,3.546,0,0,1-.583-2Z" transform="translate(-109.785 -240.043)" fill="#407bff"/><path d="M110.94,243.113V303.37c0,1.7.966,3.07,2.152,3.07H182.31c1.19,0,2.155-1.373,2.155-3.07V243.113c0-1.7-.966-3.07-2.155-3.07H113.092C111.906,240.043,110.94,241.416,110.94,243.113Zm58.867,3.7c0-1.56.885-2.828,1.982-2.828h7.018a1.743,1.743,0,0,1,1.4.829,3.518,3.518,0,0,1,.581,2c0,1.565-.885,2.828-1.983,2.828h-7.018a1.735,1.735,0,0,1-1.4-.829,3.49,3.49,0,0,1-.58-2Zm-55.19,0c0-1.56.885-2.828,1.979-2.828h7.022a1.747,1.747,0,0,1,1.4.829,3.513,3.513,0,0,1,.581,2c0,1.565-.889,2.828-1.982,2.828H116.6a1.739,1.739,0,0,1-1.4-.829,3.546,3.546,0,0,1-.583-2Z" transform="translate(-109.785 -240.043)" fill="#fff" opacity="0.7"/><rect width="66.175" height="19.249" rx="2.952" transform="translate(71.005 56.191) rotate(180)" opacity="0.1"/><path d="M73.523.788H0V-.788H73.523Z" transform="translate(1.156 60.078)" fill="#407bff"/><g transform="translate(7.919 59.126)"><g transform="translate(10.46 0.836)"><path d="M141.168,358.76c-.442-.134-.709-.362-.709-.606V343.548a.349.349,0,0,1,.032-.163.624.624,0,0,1,.2-.235,1.559,1.559,0,0,1,.478-.225,2.857,2.857,0,0,1,.624-.109c.088-.006.178-.008.266-.008h72.765c.088,0,.177,0,.264.008a2.856,2.856,0,0,1,.635.112,1.541,1.541,0,0,1,.469.222.617.617,0,0,1,.2.235.349.349,0,0,1,.032.163v14.606c0,.244-.267.471-.709.606a3.223,3.223,0,0,1-1.487.058l-35.792-7.185-35.792,7.185a3.212,3.212,0,0,1-.626.06,3.017,3.017,0,0,1-.85-.118Zm2.43-14.123v12.412l30.914-6.206Zm38.784,6.206,30.914,6.206V344.637Zm-32.81-6.586,28.874,5.8,28.874-5.8Z" transform="translate(-140.458 -342.808)" fill="#263238"/><g opacity="0.5"><path d="M141.168,358.76c-.442-.134-.709-.362-.709-.606V343.548a.349.349,0,0,1,.032-.163.624.624,0,0,1,.2-.235,1.559,1.559,0,0,1,.478-.225,2.857,2.857,0,0,1,.624-.109c.088-.006.178-.008.266-.008h72.765c.088,0,.177,0,.264.008a2.856,2.856,0,0,1,.635.112,1.541,1.541,0,0,1,.469.222.617.617,0,0,1,.2.235.349.349,0,0,1,.032.163v14.606c0,.244-.267.471-.709.606a3.223,3.223,0,0,1-1.487.058l-35.792-7.185-35.792,7.185a3.212,3.212,0,0,1-.626.06,3.017,3.017,0,0,1-.85-.118Zm2.43-14.123v12.412l30.914-6.206Zm38.784,6.206,30.914,6.206V344.637Zm-32.81-6.586,28.874,5.8,28.874-5.8Z" transform="translate(-140.458 -342.808)" fill="#fff"/></g></g><path d="M124.1,341.375H230.247a1.57,1.57,0,0,1,1.57,1.57h0a1.57,1.57,0,0,1-1.57,1.57H124.1a1.57,1.57,0,0,1-1.57-1.57h0a1.569,1.569,0,0,1,1.57-1.57Z" transform="translate(-122.531 -341.375)" fill="#263238"/><g opacity="0.6"><path d="M124.1,341.375H230.247a1.57,1.57,0,0,1,1.57,1.57h0a1.57,1.57,0,0,1-1.57,1.57H124.1a1.57,1.57,0,0,1-1.57-1.57h0a1.569,1.569,0,0,1,1.57-1.57Z" transform="translate(-122.531 -341.375)" fill="#fff"/></g><g transform="translate(4.03 13.689)"><path d="M225.841,379.616a1.647,1.647,0,0,0,1.646-1.606l.283-11.485a1.649,1.649,0,0,0-1.647-1.689H137.438a1.648,1.648,0,0,0-1.416.8L129.67,376.3a1.648,1.648,0,0,0,2.831,1.686l5.873-9.859h86.06l-.241,9.8a1.647,1.647,0,0,0,1.606,1.687Z" transform="translate(-129.438 -364.836)" fill="#263238"/><g opacity="0.6"><path d="M225.841,379.616a1.647,1.647,0,0,0,1.646-1.606l.283-11.485a1.649,1.649,0,0,0-1.647-1.689H137.438a1.648,1.648,0,0,0-1.416.8L129.67,376.3a1.648,1.648,0,0,0,2.831,1.686l5.873-9.859h86.06l-.241,9.8a1.647,1.647,0,0,0,1.606,1.687Z" transform="translate(-129.438 -364.836)" fill="#fff"/></g></g></g><g transform="translate(10.093 37.812)"><rect width="118.169" height="11.59" rx="1.848" transform="translate(118.169 12.137) rotate(180)" fill="#263238"/><rect width="118.169" height="11.59" rx="1.848" transform="translate(118.169 12.137) rotate(180)" fill="#fff" opacity="0.2"/><rect width="135.693" height="12.638" rx="2.141" transform="translate(173.654 12.638) rotate(180)" fill="#407bff"/><rect width="135.693" height="12.638" rx="2.141" transform="translate(173.654 12.638) rotate(180)" fill="#fff" opacity="0.2"/></g><g transform="translate(79.631 82.091)"><path d="M260.622,403.811,258.1,406.33h-1.631l-.715-4.048Z" transform="translate(-249.734 -389.708)" fill="#407bff"/><g transform="translate(0 11.142)"><path d="M249.446,399.829h1.909c2.216,0,4.013,2.244,4.013,5.012s-1.8,5.012-4.013,5.012h-1.909c-2.215,0-4.012-2.244-4.012-5.012S247.231,399.829,249.446,399.829Z" transform="translate(-245.434 -399.829)" fill="#263238"/><ellipse cx="4.012" cy="5.012" rx="4.012" ry="5.012" transform="translate(0 0)" fill="#fff" opacity="0.3"/><ellipse cx="2.581" cy="3.581" rx="2.581" ry="3.581" transform="translate(1.431 1.431)" fill="#fff" opacity="0.3"/></g><path d="M251.051,401.566v-4.041a2.936,2.936,0,0,1,.86-2.076l2.349-2.349h4.4v6.889h-3.8l-2.23,2.229a.921.921,0,0,1-.7.269h0a.923.923,0,0,1-.874-.921Z" transform="translate(-247.774 -385.884)" fill="#407bff"/><path d="M251.05,397.526v4.042a.923.923,0,0,0,1.577.648l2.23-2.229h3.8V393.1h-4.4l-2.345,2.35a2.915,2.915,0,0,0-.867,2.076Z" transform="translate(-247.773 -385.884)" fill="#fff" opacity="0.3"/><path d="M251.05,397.526v4.042a.923.923,0,0,0,1.577.648l2.23-2.229V393.1h-.6l-2.345,2.35a2.915,2.915,0,0,0-.862,2.076Z" transform="translate(-247.773 -385.884)" fill="#fff" opacity="0.2"/><g transform="translate(1.896)"><rect width="9.686" height="7.712" rx="1.133" transform="translate(9.686 7.713) rotate(180)" fill="#407bff"/><path d="M248.688,381.392v6.392a.659.659,0,0,0,.659.665h8.364a.662.662,0,0,0,.659-.665v-6.392a.661.661,0,0,0-.659-.659h-8.364a.657.657,0,0,0-.659.659Z" transform="translate(-248.685 -380.733)" fill="#fff" opacity="0.2"/><path d="M248.688,381.392v6.392a.659.659,0,0,0,.659.665h4.52a.662.662,0,0,0,.659-.665v-6.392a.661.661,0,0,0-.659-.659h-4.52a.657.657,0,0,0-.659.659Z" transform="translate(-248.685 -380.733)" fill="#fff" opacity="0.2"/></g><g transform="translate(8.456 0.652)"><path d="M0,0H91.086A.614.614,0,0,1,91.7.614V5.578a.614.614,0,0,1-.614.614H0Z" transform="translate(91.7 6.192) rotate(180)" fill="#407bff"/><path d="M0,0H91.086A.614.614,0,0,1,91.7.614V5.578a.614.614,0,0,1-.614.614H0Z" transform="translate(91.7 6.192) rotate(180)" fill="#fff" opacity="0.3"/></g><g transform="translate(93.417)"><path d="M420.723,403.811,418.2,406.33h-1.631l-.715-4.048Z" transform="translate(-409.834 -389.708)" fill="#407bff"/><g transform="translate(0 11.142)"><path d="M409.547,399.829h1.909c2.216,0,4.012,2.244,4.012,5.012s-1.8,5.012-4.012,5.012h-1.909c-2.216,0-4.012-2.244-4.012-5.012S407.331,399.829,409.547,399.829Z" transform="translate(-405.535 -399.829)" fill="#263238"/><ellipse cx="4.012" cy="5.012" rx="4.012" ry="5.012" transform="translate(0 0)" fill="#fff" opacity="0.3"/><ellipse cx="2.581" cy="3.581" rx="2.581" ry="3.581" transform="translate(1.431 1.431)" fill="#fff" opacity="0.3"/></g><path d="M411.152,401.566v-4.041a2.936,2.936,0,0,1,.86-2.076l2.349-2.349h4.4v6.889h-3.806l-2.229,2.229a.922.922,0,0,1-.7.269h0a.922.922,0,0,1-.874-.921Z" transform="translate(-407.874 -385.884)" fill="#407bff"/><path d="M411.151,397.526v4.042a.923.923,0,0,0,1.576.648l2.23-2.229h3.806V393.1h-4.4l-2.345,2.35a2.917,2.917,0,0,0-.867,2.076Z" transform="translate(-407.874 -385.884)" fill="#fff" opacity="0.3"/><path d="M411.151,397.526v4.042a.923.923,0,0,0,1.576.648l2.23-2.229V393.1h-.6l-2.345,2.35a2.917,2.917,0,0,0-.861,2.076Z" transform="translate(-407.874 -385.884)" fill="#fff" opacity="0.2"/><g transform="translate(1.896)"><rect width="9.686" height="7.712" rx="1.133" transform="translate(9.686 7.713) rotate(180)" fill="#407bff"/><path d="M408.788,381.392v6.392a.659.659,0,0,0,.659.665h8.364a.662.662,0,0,0,.659-.665v-6.392a.661.661,0,0,0-.659-.659h-8.364a.657.657,0,0,0-.659.659Z" transform="translate(-408.786 -380.733)" fill="#fff" opacity="0.2"/><path d="M408.788,381.392v6.392a.659.659,0,0,0,.659.665h4.52a.662.662,0,0,0,.659-.665v-6.392a.661.661,0,0,0-.659-.659h-4.52a.657.657,0,0,0-.659.659Z" transform="translate(-408.786 -380.733)" fill="#fff" opacity="0.2"/></g></g></g><g transform="translate(8.195 47.996)"><rect width="134.619" height="10.003" rx="2.521" transform="translate(134.619 10.003) rotate(180)" fill="#407bff"/><rect width="134.619" height="10.003" rx="2.521" transform="translate(134.619 10.003) rotate(180)" fill="#fff" opacity="0.5"/><g transform="translate(34.95 2.256)" opacity="0.7"><path d="M185.649,331.657h23.126a2.746,2.746,0,1,0,0-5.492H185.649a2.746,2.746,0,0,0,0,5.492Z" transform="translate(-182.903 -326.165)" fill="#fff"/></g><g transform="translate(65.31 2.256)" opacity="0.7"><path d="M237.681,331.657H275.4a2.746,2.746,0,0,0,0-5.492H237.681a2.746,2.746,0,0,0,0,5.492Z" transform="translate(-234.935 -326.165)" fill="#fff"/></g><g transform="translate(1.67 2.256)" opacity="0.7"><path d="M128.613,331.657h26.629a2.746,2.746,0,1,0,0-5.492H128.613a2.746,2.746,0,1,0,0,5.492Z" transform="translate(-125.867 -326.165)" fill="#fff"/></g></g><g transform="translate(117.939 16.338)"><g transform="translate(0 1.177)"><path d="M311.087,273.132v42.742c0,1.7.966,3.07,2.152,3.07h69.218c1.189,0,2.155-1.373,2.155-3.07V273.132c0-1.7-.966-3.07-2.155-3.07H313.239C312.053,270.062,311.087,271.435,311.087,273.132Zm58.867,3.7c0-1.56.885-2.828,1.982-2.828h7.018a1.743,1.743,0,0,1,1.4.829,3.518,3.518,0,0,1,.581,2c0,1.565-.885,2.828-1.983,2.828h-7.018a1.734,1.734,0,0,1-1.4-.829,3.49,3.49,0,0,1-.58-2Zm-55.19,0c0-1.56.885-2.828,1.979-2.828h7.022a1.748,1.748,0,0,1,1.4.829,3.518,3.518,0,0,1,.581,2c0,1.565-.889,2.828-1.982,2.828h-7.022a1.741,1.741,0,0,1-1.4-.829,3.546,3.546,0,0,1-.578-2Z" transform="translate(-311.087 -270.062)" fill="#407bff"/><path d="M311.087,273.132v42.742c0,1.7.966,3.07,2.152,3.07h69.218c1.189,0,2.155-1.373,2.155-3.07V273.132c0-1.7-.966-3.07-2.155-3.07H313.239C312.053,270.062,311.087,271.435,311.087,273.132Zm58.867,3.7c0-1.56.885-2.828,1.982-2.828h7.018a1.743,1.743,0,0,1,1.4.829,3.518,3.518,0,0,1,.581,2c0,1.565-.885,2.828-1.983,2.828h-7.018a1.734,1.734,0,0,1-1.4-.829,3.49,3.49,0,0,1-.58-2Zm-55.19,0c0-1.56.885-2.828,1.979-2.828h7.022a1.748,1.748,0,0,1,1.4.829,3.518,3.518,0,0,1,.581,2c0,1.565-.889,2.828-1.982,2.828h-7.022a1.741,1.741,0,0,1-1.4-.829,3.546,3.546,0,0,1-.578-2Z" transform="translate(-311.087 -270.062)" fill="#fff" opacity="0.6"/></g><path d="M313.068,273.132v42.742c0,1.7.966,3.07,2.152,3.07h69.217c1.19,0,2.156-1.373,2.156-3.07V273.132c0-1.7-.966-3.07-2.156-3.07H315.22C314.034,270.062,313.068,271.435,313.068,273.132Zm58.866,3.7c0-1.56.885-2.828,1.983-2.828h7.018a1.742,1.742,0,0,1,1.4.829,3.514,3.514,0,0,1,.581,2c0,1.565-.885,2.828-1.982,2.828h-7.018a1.735,1.735,0,0,1-1.4-.829,3.49,3.49,0,0,1-.582-2Zm-55.19,0c0-1.56.886-2.828,1.979-2.828h7.022a1.747,1.747,0,0,1,1.4.829,3.513,3.513,0,0,1,.582,2c0,1.565-.89,2.828-1.983,2.828h-7.022a1.739,1.739,0,0,1-1.4-.829,3.547,3.547,0,0,1-.578-2Z" transform="translate(-311.912 -268.885)" fill="#407bff"/><path d="M313.068,273.132v42.742c0,1.7.966,3.07,2.152,3.07h69.217c1.19,0,2.156-1.373,2.156-3.07V273.132c0-1.7-.966-3.07-2.156-3.07H315.22C314.034,270.062,313.068,271.435,313.068,273.132Zm58.866,3.7c0-1.56.885-2.828,1.983-2.828h7.018a1.742,1.742,0,0,1,1.4.829,3.514,3.514,0,0,1,.581,2c0,1.565-.885,2.828-1.982,2.828h-7.018a1.735,1.735,0,0,1-1.4-.829,3.49,3.49,0,0,1-.582-2Zm-55.19,0c0-1.56.886-2.828,1.979-2.828h7.022a1.747,1.747,0,0,1,1.4.829,3.513,3.513,0,0,1,.582,2c0,1.565-.89,2.828-1.983,2.828h-7.022a1.739,1.739,0,0,1-1.4-.829,3.547,3.547,0,0,1-.578-2Z" transform="translate(-311.912 -268.885)" fill="#fff" opacity="0.7"/><rect width="66.175" height="19.249" rx="2.952" transform="translate(71.006 39.853) rotate(180)" opacity="0.1"/><path d="M73.523.788H0V-.788H73.523Z" transform="translate(1.156 43.74)" fill="#407bff"/><g transform="translate(26.47)"><path d="M359.764,268.044v23.029h22.945V268.044Zm8.053,1.183h6.84v4.486h-6.84Z" transform="translate(-357.832 -268.044)" fill="#407bff"/><g transform="translate(19.86 10.066)"><rect width="4.797" height="12.057" transform="translate(4.797 12.057) rotate(180)" fill="#407bff"/><rect width="4.797" height="12.057" transform="translate(4.797 12.057) rotate(180)" opacity="0.2"/></g><g transform="translate(2.141 10.066)"><rect width="4.797" height="12.057" transform="translate(4.797 12.057) rotate(180)" fill="#407bff"/><rect width="4.797" height="12.057" transform="translate(4.797 12.057) rotate(180)" opacity="0.2"/></g><g transform="translate(21.016 10.066)"><rect width="4.797" height="12.057" transform="translate(4.797 12.057) rotate(180)" fill="#407bff"/><rect width="4.797" height="12.057" transform="translate(4.797 12.057) rotate(180)" fill="#fff" opacity="0.2"/></g><g transform="translate(3.297 10.066)"><rect width="4.797" height="12.057" transform="translate(4.797 12.057) rotate(180)" fill="#407bff"/><rect width="4.797" height="12.057" transform="translate(4.797 12.057) rotate(180)" fill="#fff" opacity="0.2"/></g><rect width="3.097" height="1.177" transform="translate(3.097 1.178) rotate(180)" fill="#407bff"/></g></g><g transform="translate(8.194 82.091)"><path d="M138.193,403.811l-2.519,2.519h-1.631l-.715-4.048Z" transform="translate(-127.304 -389.708)" fill="#407bff"/><g transform="translate(0 11.142)"><path d="M127.017,399.829h1.909c2.215,0,4.012,2.244,4.012,5.012s-1.8,5.012-4.012,5.012h-1.909c-2.216,0-4.013-2.244-4.013-5.012S124.8,399.829,127.017,399.829Z" transform="translate(-123.004 -399.829)" fill="#263238"/><ellipse cx="4.012" cy="5.012" rx="4.012" ry="5.012" transform="translate(0 0)" fill="#fff" opacity="0.3"/><ellipse cx="2.581" cy="3.581" rx="2.581" ry="3.581" transform="translate(1.431 1.431)" fill="#fff" opacity="0.3"/></g><path d="M128.621,401.566v-4.041a2.936,2.936,0,0,1,.86-2.076l2.349-2.349h4.4v6.889h-3.8l-2.23,2.229a.922.922,0,0,1-.7.269h0a.923.923,0,0,1-.874-.921Z" transform="translate(-125.344 -385.884)" fill="#407bff"/><path d="M128.62,397.526v4.042a.923.923,0,0,0,1.577.648l2.23-2.229h3.8V393.1h-4.4l-2.345,2.35a2.918,2.918,0,0,0-.867,2.076Z" transform="translate(-125.343 -385.884)" fill="#fff" opacity="0.7"/><path d="M128.62,397.526v4.042a.923.923,0,0,0,1.577.648l2.23-2.229V393.1h-.6l-2.345,2.35A2.918,2.918,0,0,0,128.62,397.526Z" transform="translate(-125.343 -385.884)" fill="#fff" opacity="0.2"/><g transform="translate(1.896)"><rect width="9.686" height="7.712" rx="1.133" transform="translate(9.686 7.713) rotate(180)" fill="#407bff"/><path d="M1.129,0H8.552a1.129,1.129,0,0,1,1.13,1.129V6.586a1.13,1.13,0,0,1-1.13,1.13H1.129A1.129,1.129,0,0,1,0,6.586V1.129A1.129,1.129,0,0,1,1.129,0Z" transform="translate(0.003)" fill="#fff" opacity="0.5"/><path d="M126.258,381.392v6.392a.659.659,0,0,0,.659.665h4.52a.662.662,0,0,0,.659-.665v-6.392a.661.661,0,0,0-.659-.659h-4.52a.657.657,0,0,0-.659.659Z" transform="translate(-126.255 -380.733)" fill="#fff" opacity="0.2"/></g><g transform="translate(8.456 0.652)"><path d="M0,0H91.086A.614.614,0,0,1,91.7.614V5.578a.614.614,0,0,1-.614.614H0Z" transform="translate(91.7 6.192) rotate(180)" fill="#407bff"/><path d="M0,0H91.086A.614.614,0,0,1,91.7.614V5.578a.614.614,0,0,1-.614.614H0Z" transform="translate(91.7 6.192) rotate(180)" fill="#fff" opacity="0.7"/></g><g transform="translate(93.417)"><path d="M298.293,403.811l-2.519,2.519h-1.631l-.715-4.048Z" transform="translate(-287.405 -389.708)" fill="#407bff"/><g transform="translate(0 11.142)"><path d="M287.117,399.829h1.909c2.216,0,4.013,2.244,4.013,5.012s-1.8,5.012-4.013,5.012h-1.909c-2.216,0-4.012-2.244-4.012-5.012S284.9,399.829,287.117,399.829Z" transform="translate(-283.105 -399.829)" fill="#263238"/><ellipse cx="4.012" cy="5.012" rx="4.012" ry="5.012" transform="translate(0 0)" fill="#fff" opacity="0.3"/><ellipse cx="2.581" cy="3.581" rx="2.581" ry="3.581" transform="translate(1.431 1.431)" fill="#fff" opacity="0.3"/></g><path d="M288.722,401.566v-4.041a2.936,2.936,0,0,1,.86-2.076l2.349-2.349h4.4v6.889h-3.806l-2.23,2.229a.922.922,0,0,1-.7.269h0a.923.923,0,0,1-.873-.921Z" transform="translate(-285.444 -385.884)" fill="#407bff"/><path d="M288.721,397.526v4.042a.923.923,0,0,0,1.576.648l2.23-2.229h3.806V393.1h-4.4l-2.345,2.35a2.915,2.915,0,0,0-.867,2.076Z" transform="translate(-285.444 -385.884)" fill="#fff" opacity="0.7"/><path d="M288.721,397.526v4.042a.923.923,0,0,0,1.576.648l2.23-2.229V393.1h-.6l-2.345,2.35a2.915,2.915,0,0,0-.861,2.076Z" transform="translate(-285.444 -385.884)" fill="#fff" opacity="0.2"/><g transform="translate(1.896)"><rect width="9.686" height="7.712" rx="1.133" transform="translate(9.686 7.713) rotate(180)" fill="#407bff"/><path d="M286.359,381.392v6.392a.659.659,0,0,0,.659.665h8.364a.662.662,0,0,0,.659-.665v-6.392a.661.661,0,0,0-.659-.659h-8.364a.657.657,0,0,0-.659.659Z" transform="translate(-286.356 -380.733)" fill="#fff" opacity="0.5"/><path d="M286.359,381.392v6.392a.659.659,0,0,0,.659.665h4.52a.662.662,0,0,0,.659-.665v-6.392a.661.661,0,0,0-.659-.659h-4.52a.657.657,0,0,0-.659.659Z" transform="translate(-286.356 -380.733)" fill="#fff" opacity="0.2"/></g></g></g><rect width="66.199" height="21.434" rx="4.347" transform="translate(4.832 12.632)" opacity="0.1"/></g><g transform="translate(1185 620.777)"><path d="M88.766,362.6s2.772-6.047-.4-12.009S84.286,343.224,86.3,342s2.945,4.769,2.945,4.769a13.46,13.46,0,0,0,.3-8.434c-1.4-4.313-2.286-11.337-.367-12.091s.366,8.763,2.031,12.008a27.926,27.926,0,0,0,1.629-7.075c.23-3.464-.129-9,1.386-10.415s2.486-.438,1,7.207a79.974,79.974,0,0,0-1.478,13.859s3.289-10.028,5.5-10.32,2.2,2.955.315,5.772-5.534,7.863-6.131,10.459c0,0,3.61-7.546,6.858-5.233s-2.826,6.871-5.534,8.518S90.16,363,90.16,363Z" transform="translate(-78.506 -320.216)" fill="#407bff"/><path d="M88.766,362.6s2.772-6.047-.4-12.009S84.286,343.224,86.3,342s2.945,4.769,2.945,4.769a13.46,13.46,0,0,0,.3-8.434c-1.4-4.313-2.286-11.337-.367-12.091s.366,8.763,2.031,12.008a27.926,27.926,0,0,0,1.629-7.075c.23-3.464-.129-9,1.386-10.415s2.486-.438,1,7.207a79.974,79.974,0,0,0-1.478,13.859s3.289-10.028,5.5-10.32,2.2,2.955.315,5.772-5.534,7.863-6.131,10.459c0,0,3.61-7.546,6.858-5.233s-2.826,6.871-5.534,8.518S90.16,363,90.16,363Z" transform="translate(-78.506 -320.216)" opacity="0.2"/><path d="M86.311,366.783s-2.7-6.088.539-12,4.173-7.3,2.169-8.556-3,4.725-3,4.725a13.469,13.469,0,0,1-.2-8.438c1.457-4.292,2.422-11.3.512-12.085s-.471,8.757-2.175,11.975a27.977,27.977,0,0,1-1.544-7.1c-.188-3.468.237-8.993-1.261-10.435s-2.48-.474-1.083,7.192a80.014,80.014,0,0,1,1.312,13.88s-3.168-10.076-5.372-10.4-2.24,2.922-.385,5.767,5.439,7.945,6,10.55c0,0-3.52-7.6-6.794-5.335s2.744,6.913,5.431,8.6,4.443,12.039,4.443,12.039Z" transform="translate(-73.862 -321.92)" fill="#407bff"/><g transform="translate(0 40.523)"><path d="M73.7,389.665H96L94.2,405.62H75.507Z" transform="translate(-73.703 -389.665)" fill="#263238"/></g></g><g transform="translate(1158 525.93)"><g transform="translate(0.7 147.567)"><path d="M171.084,412.445a1.879,1.879,0,1,1,1.879,1.879,1.879,1.879,0,0,1-1.879-1.879Z" transform="translate(-144.979 -410.567)" fill="#263238"/><path d="M126.345,412.445a1.879,1.879,0,1,1,1.879,1.879A1.879,1.879,0,0,1,126.345,412.445Z" transform="translate(-126.345 -410.567)" fill="#263238"/></g><path d="M155.67,413.012a2,2,0,0,1-2-2v-1.886h-22.1v1.886a2,2,0,0,1-4,0v-1.927a3.964,3.964,0,0,1,3.959-3.959H153.71a3.964,3.964,0,0,1,3.959,3.959v1.927A2,2,0,0,1,155.67,413.012Z" transform="translate(-126.986 -261.567)" fill="#263238"/><path d="M0,146.569a2,2,0,0,1-2-2V0A2,2,0,0,1,0-2,2,2,0,0,1,2,0V144.569a2,2,0,0,1-2,2Z" transform="translate(15.631 0.99)" fill="#263238"/><path d="M153.949,163.759a1,1,0,0,1,0-2,1.459,1.459,0,0,0,1.458-1.458v-.182a1.459,1.459,0,0,0-1.458-1.458H127.6a1.459,1.459,0,0,0-1.458,1.458v.182a1.458,1.458,0,0,0,2.915,0v-.349a1,1,0,0,1,2,0v.349a3.458,3.458,0,1,1-6.916,0v-.182a3.462,3.462,0,0,1,3.458-3.458h26.347a3.462,3.462,0,0,1,3.458,3.458v.182a3.462,3.462,0,0,1-3.456,3.458Z" transform="translate(-125.145 -157.662)" fill="#263238"/><g transform="translate(24.854 3.314)"><path d="M167.74,167.758a1.146,1.146,0,0,1,1.146-1.147h0a1.146,1.146,0,0,0,1.146-1.146v-.215a1.875,1.875,0,0,1,1.709-1.906,1.807,1.807,0,0,1,1.9,1.8v.364a1.134,1.134,0,0,0,1.169,1.1,1.146,1.146,0,0,1,1.123,1.146v12.765a1.379,1.379,0,0,1-1.379,1.379h-.59a1.379,1.379,0,0,0-1.379,1.379v.977h-1.5v-.977a1.379,1.379,0,0,0-1.379-1.379h-.59a1.379,1.379,0,0,1-1.379-1.379Z" transform="translate(-167.74 -163.342)" fill="#407bff"/><path d="M167.74,167.758a1.146,1.146,0,0,1,1.146-1.147h0a1.146,1.146,0,0,0,1.146-1.146v-.215a1.875,1.875,0,0,1,1.709-1.906,1.807,1.807,0,0,1,1.9,1.8v.364a1.134,1.134,0,0,0,1.169,1.1,1.146,1.146,0,0,1,1.123,1.146v12.765a1.379,1.379,0,0,1-1.379,1.379h-.59a1.379,1.379,0,0,0-1.379,1.379v.977h-1.5v-.977a1.379,1.379,0,0,0-1.379-1.379h-.59a1.379,1.379,0,0,1-1.379-1.379Z" transform="translate(-167.74 -163.342)" fill="#fff" opacity="0.7"/><rect width="6.824" height="13.773" rx="1.088" transform="translate(7.511 17.662) rotate(180)" opacity="0.1"/><path d="M175.741,183.74v5.071a.689.689,0,0,1-.689.689H169.6a.688.688,0,0,1-.689-.689V183.74Z" transform="translate(-168.23 -171.838)" fill="#407bff"/></g><path d="M172.757,165.4a3.462,3.462,0,0,1-3.458-3.458v-.349a1,1,0,0,1,2,0v.349a1.459,1.459,0,0,0,1.458,1.458,1,1,0,0,1,0,2Z" transform="translate(-143.952 -159.297)" fill="#263238"/><path d="M166.65,238.957a3.575,3.575,0,0,1-3.571-3.571v-8.472c0-.009.07-1.106-.594-1.346l.34-.941a2.257,2.257,0,0,1,1.253,2.343v8.415a2.571,2.571,0,1,0,5.142,0V196.763h1v38.623A3.575,3.575,0,0,1,166.65,238.957Z" transform="translate(-140.769 -173.948)" fill="#407bff"/><g transform="translate(4.482 122.696)"><path d="M147.427,382.244v-14.3h49.155v28.629H132.83V382.244Z" transform="translate(-132.828 -367.943)" fill="#263238"/><path d="M132.826,382.244V396.57H196.58V367.942H147.425v14.3Z" transform="translate(-132.826 -367.942)" fill="#fff" opacity="0.2"/><path d="M132.829,382.244V396.57h35.032V382.244h14.593v-14.3H147.428v14.3Z" transform="translate(-132.827 -367.942)" fill="#fff" opacity="0.2"/><rect width="35.032" height="14.326" transform="translate(0.002 14.302)" fill="#fff" opacity="0.2"/></g><g transform="translate(14.211 23.648)"><path d="M213.852,201.332s-1.567-3.924-7.166-3-7.573,6.4-6.753,8.784-.154,5.334-1,5.931-.154,2.058.385,3.058.594,1.6-.781,3.807a4.575,4.575,0,0,0,.7,5.812c1.308,1.077,14.629,2.878,17.159.77,3.924-3.27.546-5.579.546-6.581,0-1.149.856-1.729,1.04-3.883s-1.74-3.542-1.97-4.657.576-2.225.6-3.632-.974-1.578-1.17-3.608A3.594,3.594,0,0,0,213.852,201.332Z" transform="translate(-169.622 -198.19)" fill="#263238"/><path d="M153.542,398.073a31.414,31.414,0,0,0,6.638-2.911c1.308-.7,1.318-.351,2.665-1.005a1.432,1.432,0,0,0,.249-2.3,13.259,13.259,0,0,1-1.769-1.677l-3.817.639c-.157,1.567-2.7,4.918-4.9,5.708C151.035,397.1,152.359,398.4,153.542,398.073Z" transform="translate(-150.494 -278.158)" fill="#ebb376"/><g transform="translate(6.914 47.721)"><path d="M182.381,279.975S167.8,297.37,163.047,305.85c-1.847,3.294-1.694,39.8-1.694,39.8l5.435-1.435,5.453-34.053,22.036-21.578,3.964-8.117Z" transform="translate(-161.35 -279.975)" fill="#407bff"/></g><g transform="translate(6.912 47.721)" opacity="0.2"><path d="M161.349,345.653l5.438-1.435,5.2-32.459.257-1.593,8.887-8.706,13.146-12.872,3.962-8.116-15.859-.5s-14.58,17.4-19.333,25.876C161.2,309.145,161.349,345.653,161.349,345.653Z" transform="translate(-161.346 -279.976)"/></g><path d="M178.016,316.853l.257-1.593,8.887-8.706,4.761-14.348s-11.687,6.3-15.223,12.3C174.841,307.651,176.253,312.727,178.016,316.853Z" transform="translate(-160.463 -237.349)" opacity="0.2"/><path d="M181.389,387.736a31.41,31.41,0,0,0,6.839-2.4c1.357-.594,1.341-.25,2.734-.8a1.431,1.431,0,0,0,.422-2.27,13.24,13.24,0,0,1-1.637-1.806l-3.854.349c-.275,1.55-3.064,4.7-5.319,5.321C178.962,386.575,180.184,387.977,181.389,387.736Z" transform="translate(-162.12 -274.106)" fill="#ebb376"/><g transform="translate(18.154 48.215)"><path d="M206.264,280.822s-20.84,9.486-24.984,17.99c-2.9,5.947,4.573,40.59,4.573,40.59l5.192-.368c-.094-12.02.837-33.389.837-33.389s14.794-6.9,16.184-10.044C210.679,289.7,206.264,280.822,206.264,280.822Z" transform="translate(-180.612 -280.822)" fill="#407bff"/></g><g transform="translate(18.154 48.215)" opacity="0.2"><path d="M206.264,280.822s-20.84,9.486-24.984,17.99c-2.9,5.947,4.573,40.59,4.573,40.59l5.192-.368c-.094-12.02.837-33.389.837-33.389s14.794-6.9,16.184-10.044C210.679,289.7,206.264,280.822,206.264,280.822Z" transform="translate(-180.612 -280.822)"/></g><path d="M170.8,255.418c-5.4,0-12.681-4.4-15.736-6.412a4.375,4.375,0,1,1,4.816-7.305c4.173,2.746,9.368,5.116,10.9,4.973,1.048-.293,5-2.84,8.347-5.429a4.375,4.375,0,1,1,5.357,6.918c-3.146,2.436-8.932,6.6-12.335,7.153a8.5,8.5,0,0,1-1.349.1Z" transform="translate(-152.821 -217.564)" fill="#e9b376"/><path d="M197.332,236.361c-3.625.4-8.51,5.432-8.51,5.432s1.967,6.845,3.864,7.25S197.332,236.361,197.332,236.361Z" transform="translate(-165.878 -214.089)" fill="#407bff"/><path d="M195.018,253.127c-.379.672-.756,1.047-1.1.972-.739-.159-1.494-1.3-2.134-2.637a12,12,0,0,1,2.757-2.962,7.843,7.843,0,0,1,.477,4.627Z" transform="translate(-167.111 -219.145)" opacity="0.1"/><path d="M194.54,242.874a50.85,50.85,0,0,0,.1,6.872c.194,3.344.125,7.179.712,12.657h17.5c-.429-4.74-.268-11.024,2.554-21.76a3.93,3.93,0,0,0-3.457-5.044c-.669-.055-1.378-.1-2.1-.119a53.585,53.585,0,0,0-7.65.145c-.83.091-1.69.212-2.511.342C196.718,236.437,194.575,239.9,194.54,242.874Z" transform="translate(-168.229 -213.695)" fill="#407bff"/><path d="M149.6,241.756l.447,1.175a1.46,1.46,0,0,0,1,.9l2.137.56a2.728,2.728,0,0,0,2.442-.546l.42-.351a9.286,9.286,0,0,0-2.737-3.714l-.553-.555a1.216,1.216,0,0,0-1.73-.046l-1.116,1.082a1.4,1.4,0,0,0-.31,1.5Z" transform="translate(-149.5 -215.119)" fill="#ebb376"/><g transform="translate(31.124 1.341)"><path d="M213.723,220.78c-.619,2.475-1.351,7,.279,8.612,0,0-1.65,2.123-7.519,5.412a4.1,4.1,0,0,1-.131-5.267c2.781-.709,2.824-2.746,2.452-4.653Z" transform="translate(-203.933 -208.94)" fill="#ebb376"/><path d="M214.106,223.651l-2.911,2.427a7.667,7.667,0,0,1,.16,1.355,3.746,3.746,0,0,0,2.734-2.454,3.671,3.671,0,0,0,.017-1.328Z" transform="translate(-206.321 -210.136)" opacity="0.2"/><path d="M214.641,207.845c-.672,3.989-.871,5.687-3.1,7.636-3.357,2.932-8.073,1.5-8.6-2.539-.473-3.64.7-9.551,4.775-10.941a5.181,5.181,0,0,1,6.925,5.844Z" transform="translate(-202.842 -200.984)" fill="#ebb376"/><path d="M213.822,213.094c-.042.337-.25.6-.466.589s-.357-.295-.314-.632.25-.6.466-.589S213.864,212.756,213.822,213.094Z" transform="translate(-207.087 -205.475)" fill="#263238"/><path d="M206.638,212.48c-.041.337-.25.6-.466.589s-.357-.295-.314-.631.25-.6.466-.589S206.68,212.142,206.638,212.48Z" transform="translate(-204.095 -205.219)" fill="#263238"/><path d="M206.276,211.691l-.763-.277S205.841,212.069,206.276,211.691Z" transform="translate(-203.954 -205.039)" fill="#263238"/><path d="M208.062,213.486a9.973,9.973,0,0,1-1.443,2.088,1.352,1.352,0,0,0,1.148.289Z" transform="translate(-204.415 -205.902)" fill="#d58745"/><path d="M214.713,209.311a.18.18,0,0,1-.139-.057,1.452,1.452,0,0,0-1.3-.469.181.181,0,0,1-.221-.152.214.214,0,0,1,.165-.236,1.813,1.813,0,0,1,1.645.574.2.2,0,0,1-.018.281.209.209,0,0,1-.132.059Z" transform="translate(-207.096 -203.772)" fill="#263238"/><path d="M204.572,208.107a.183.183,0,0,1-.139-.032.2.2,0,0,1-.031-.276,2.077,2.077,0,0,1,1.61-.894.181.181,0,0,1,.176.2.215.215,0,0,1-.212.194,1.659,1.659,0,0,0-1.268.722.21.21,0,0,1-.136.086Z" transform="translate(-203.474 -203.161)" fill="#263238"/><path d="M213.46,212.306l-.763-.277S213.025,212.684,213.46,212.306Z" transform="translate(-206.947 -205.295)" fill="#263238"/><path d="M214.935,210.335a21.006,21.006,0,0,1-1.393-7.832s-4.773-1.692-7.316,1.268c0,0,.669-2.8,4.907-3.256S220.2,205.312,214.935,210.335Z" transform="translate(-204.251 -200.488)" fill="#263238"/><path d="M222.393,216.245a3.239,3.239,0,0,1-2.067,1.371c-1.083.186-1.455-.9-1.012-1.935.4-.934,1.444-2.157,2.463-1.87a1.542,1.542,0,0,1,.616,2.434Z" transform="translate(-209.627 -206.019)" fill="#ebb376"/><path d="M208.12,220.61a.25.25,0,0,1-.117-.471,5.65,5.65,0,0,1,2.1-.518.25.25,0,1,1,.02.5,5.225,5.225,0,0,0-1.887.46A.249.249,0,0,1,208.12,220.61Z" transform="translate(-205.04 -208.561)" fill="#263238"/></g><path d="M227.594,244.99c-.766,2.963-1.35,5.509-1.776,7.748-2.533-3.313-1.376-8.307-1.376-8.307C225.472,243.791,226.581,244.127,227.594,244.99Z" transform="translate(-180.604 -217.311)" opacity="0.1"/><path d="M237.286,280.768a4.375,4.375,0,0,1-3.957-2.5c-.536-1.131-5.271-11.182-6.589-15.693-1.219-4.166-3.344-17.22-3.583-18.7a4.375,4.375,0,0,1,8.638-1.4c.624,3.859,2.44,14.549,3.343,17.635.953,3.26,4.726,11.5,6.1,14.4a4.377,4.377,0,0,1-3.951,6.248Z" transform="translate(-181.978 -216.928)" fill="#e9b376"/><path d="M224.1,236.359c3.349,1.4,5.165,7.315,5.165,7.315s-2.7,5.009-6.379,6.789c0,0-3.164-8.009-2.06-11.243S224.1,236.359,224.1,236.359Z" transform="translate(-179.112 -214.082)" fill="#407bff"/><g transform="translate(54.34 58.129)"><path d="M243.367,297.813l4.661.358-.959,3.972s-3.293.208-4.439-2.262Z" transform="translate(-242.63 -297.813)" fill="#ebb376"/><path d="M254.006,300.209,252.582,303l-2.345-.6.96-3.973Z" transform="translate(-245.798 -298.069)" fill="#ebb376"/></g><path d="M212.536,201.466s.232,3.1,2.181,3.336,1.96,2.9,1.96,2.9l2.637-3.885-2.075-2.65Z" transform="translate(-175.755 -199.43)" fill="#263238"/><path d="M196.471,220.087a.25.25,0,1,1-.03-.5,1.357,1.357,0,0,0,1-1.028,2.133,2.133,0,0,0-.279-1.391,3.156,3.156,0,0,1-.3-2.367,6.574,6.574,0,0,1,.784-1.419A4.793,4.793,0,0,0,198.7,209.4c-.639-3.161.592-5.83,3.661-7.933a.25.25,0,1,1,.283.412c-2.928,2.006-4.058,4.434-3.454,7.421a5.336,5.336,0,0,1-1.127,4.352,6.225,6.225,0,0,0-.728,1.307,2.723,2.723,0,0,0,.285,2.01,2.538,2.538,0,0,1,.294,1.735,1.838,1.838,0,0,1-1.42,1.374Z" transform="translate(-169.064 -199.644)" fill="#263238"/><path d="M217.117,209.094a.892.892,0,0,1-.382-.082c-.446-.207-.618-.736-.817-1.349-.273-.84-.583-1.793-1.671-2.092a2.7,2.7,0,0,1-2-2.271,4.883,4.883,0,0,1,0-1.67.25.25,0,1,1,.49.1h0a4.445,4.445,0,0,0,.007,1.495,2.194,2.194,0,0,0,1.638,1.866,3.109,3.109,0,0,1,2.014,2.42c.163.5.3.934.553,1.05a.721.721,0,0,0,.56-.058.25.25,0,0,1,.188.463,1.548,1.548,0,0,1-.58.128Z" transform="translate(-175.709 -199.644)" fill="#263238"/><path d="M230.487,225.185a.25.25,0,0,1-.194-.092c-.853-1.045-.383-2.254.031-3.321a5.091,5.091,0,0,0,.451-1.649,5.778,5.778,0,0,0-.959-2.879,4.034,4.034,0,0,1-.755-3.11c.5-1.8-.307-3.1-1.019-4.255a4.034,4.034,0,0,1-.816-1.942.25.25,0,1,1,.5,0,3.767,3.767,0,0,0,.741,1.679,5.514,5.514,0,0,1,1.076,4.652,3.618,3.618,0,0,0,.712,2.735,6.257,6.257,0,0,1,1.021,3.126,5.5,5.5,0,0,1-.485,1.824c-.4,1.031-.778,2-.11,2.824a.25.25,0,0,1-.194.408Z" transform="translate(-181.978 -202.25)" fill="#263238"/><path d="M159.766,244.4l-.42,1.581-.894-.325.475-1.68Z" transform="translate(-153.229 -217.261)" fill="#407bff"/><path d="M159.766,244.4l-.42,1.581-.894-.325.475-1.68Z" transform="translate(-153.229 -217.261)" fill="#fff" opacity="0.7"/><path transform="translate(-153.697 -217.703)" fill="#407bff"/></g></g></g></g></svg>