<svg xmlns="http://www.w3.org/2000/svg" xmlns:xlink="http://www.w3.org/1999/xlink" width="334.833" height="192.175" viewBox="0 0 334.833 192.175"><defs><clipPath id="a"><path d="M318.432,104.023c-27.515-9.9-68.953-13.892-98.834-13.337-30.241.561-66.654,4.333-95.085,13.754C78.4,119.722,37.886,165.137,57.024,214.1c6.808,17.415,21.594,31.773,39.128,41.773s37.733,15.941,58.186,20.015a367.181,367.181,0,0,0,145.635-.743c27.512-5.737,55.81-15.681,72.594-35.8,17.793-21.33,18.173-50.9,6.4-74.975C366.186,138.249,339.441,111.581,318.432,104.023Z" transform="translate(-52.167 -90.635)" fill="none"/></clipPath></defs><g transform="translate(-52.167 -90.635)"><g transform="translate(52.167 90.635)"><g clip-path="url(#a)"><path d="M368.959,157.717c-13.513-15.837-32.8-27.907-53.809-35.465-27.515-9.9-57.866-12.632-87.746-12.077-30.242.561-60.683,4.446-89.114,13.867-46.119,15.283-99.636,50.224-80.5,99.182C64.6,240.639,79.386,255,96.92,265s37.733,15.941,58.186,20.015a367.181,367.181,0,0,0,145.635-.743c27.512-5.737,55.81-15.681,72.594-35.8,17.793-21.33,18.9-51.271,6.4-74.975A86.57,86.57,0,0,0,368.959,157.717Z" transform="translate(-52.935 -99.763)" fill="#d8eefe"/><g transform="translate(58.657 13.468)"><path d="M182.545,446.325c.015-8.124.115-27.112.054-28.764a137.51,137.51,0,0,1,.807-20.7l19.6-.608,10.379,49.3s-.022.27-.064.768Z" transform="translate(-171.93 -247.379)" fill="#313858"/><path d="M215.586,446.728c-4.487-18.959-8.5-49.239-8.5-49.239l46.058-.374s1.718,29.206,2.789,49.613Z" transform="translate(-183.449 -247.782)" fill="#313858"/><path d="M237.151,160.874s2.16,17.211,2.617,18.278c1.012,2.367,7.222,9.575,7.222,9.575s-19,10.422-24.694,10.422-3.7-13.325-3.7-13.325,4.012-2.627,4.808-4.487c1.182-2.761,3.016-15.292,3.016-15.292Z" transform="translate(-188.689 -137.031)" fill="#fec4ad"/><path d="M228.634,181.4a44.749,44.749,0,0,0,6.848-2.1c.4-.158.8-.331,1.2-.508.913-.511,1.813-1.043,2.689-1.638.324-.22,2.01-1.557,2.118-1.56.566-.568,1.116-1.16,1.652-1.764.046-.051.1-.094.142-.144-.769-5.4-1.7-12.8-1.7-12.8l-10.727,5.171s-1.834,12.531-3.016,15.292c-.033.076-.079.156-.122.234C228.114,181.5,228.485,181.43,228.634,181.4Z" transform="translate(-193.124 -137.031)" fill="#f7a281"/><path d="M211.994,309.458c-7.807-.322-16.886-.777-24.426-2.7.123-23.664,1.019-65.985,1.716-71.034,1.085-7.859,1.963-18.6,1.963-18.6L203.7,205.652l5.149,4.227,21.96-6.505,10.665,8.6c-8.015,31.459.829,63.108,0,95.469C236.3,307.985,232.994,310.324,211.994,309.458Z" transform="translate(-174.3 -156.956)" fill="#6eafcf"/><g transform="translate(9.235 45.915)"><path d="M198.453,207.03s-5.644,19.752-1.64,40.311c1.142,5.863.827,25.521.827,25.521s.7,43.689-.61,47.9-.692,8.809-9,8.743c-7.879-.063-8.058-4.231-8.058-4.231s2.216-49.211,2.581-60.145-1.177-45.325,1.214-48.878C185.644,213.47,198.453,207.03,198.453,207.03Z" transform="translate(-179.975 -204.584)" fill="#fff"/><path d="M208.438,206.187s-2.206,5.788-2.206,8.641-.771,17.5-.719,27.893c.025,5.008.418,20.082.418,20.082s-8.17-32.179-7.576-33.829c.626-1.735,4.474-6.528,4.474-6.528s-1.571-5.543-2.1-7.1,1.344-3.3,2.736-5.32C204.593,208.4,208.438,206.187,208.438,206.187Z" transform="translate(-188.577 -204.189)" fill="#c0e7fa"/><g transform="translate(28.46)"><path d="M252.275,202.426s-9.61,20.167-10.869,26.192c-3.635,17.4-5.175,31.4-5.175,31.4s-4.094,53.888-2.163,60.966c2.121,7.773,4.813,8.982,14.681,9.162,10.494.192,20.584-4.581,20.584-4.581s-3.718-41.821-3.718-53.874,5.65-44.987-.74-58.351C263.337,210.122,252.275,202.426,252.275,202.426Z" transform="translate(-233.551 -202.426)" fill="#fff"/></g><path d="M255.358,202.531s-10.548,14.025-12.351,18.537-4.426,16.452-4.977,39.54c0,0,3.545-12.831,6.039-18.155,3.574-7.629,6.118-11.534,5.874-12.744-.351-1.737-2.681-3.452-3.282-5.425a34.074,34.074,0,0,1,8.7-5.708s2.112-8.172,2.42-10.922S255.358,202.531,255.358,202.531Z" transform="translate(-207.191 -202.475)" fill="#c0e7fa"/><rect width="15.094" height="2.468" transform="translate(38.938 82.815)" fill="#c0e7fa"/><rect width="11.459" height="2.468" transform="translate(3.287 82.815)" fill="#c0e7fa"/></g><path d="M246.829,198.192l-19.2,9.258s6.3,7.918,9.336,7.714c5-.336,13.518-14.666,13.518-14.666Z" transform="translate(-193.079 -154.526)" fill="#5f97b3"/><path d="M221.01,209.878s-4.208,6.76-6.253,6.015c-2.534-.923-.411-10.852-.411-10.852l4.651-1.67Z" transform="translate(-186.463 -156.954)" fill="#5f97b3"/><path d="M214.281,127.073a10.19,10.19,0,0,0-3.124,9.452c.566,2.772,2.616,8.946,2.616,8.946s2.195-9.47,3.654-12.817,3.866-7.751,3.866-7.751Z" transform="translate(-185.274 -120.169)" fill="#313131"/><path d="M219.451,128.275c-1.9,1.053-5.164,3.293-5.339,5s-.965,6.688-.768,9.621-.431,6.1.021,9.524,3.021,9.854,5.35,11.576c3.753,2.776,9.093-.8,12.493-3.086,3.955-2.655,5.422-5,5.2-12.322,0,0,2.579-13.461,1.852-15.486-1.767-4.922-12.031-2.834-14.964-3.27S219.451,128.275,219.451,128.275Z" transform="translate(-186.315 -121.749)" fill="#fec4ad"/><path d="M235.956,127.022c.984,1.6-2.236,3.572-2.492,5.032a19.029,19.029,0,0,0,.246,6.327l1.1,2.8s-.534,6.142-.035,8.156c.412,1.658,11.374-9.959,8.485-22.208a4.654,4.654,0,0,0-6.109-3.733c-.806-5.423-3.27-7.633-13.968-7.383s-12.555,8.818-12.555,8.818c1.8,1.161.764,4.5,6.372,4.852,10.279.639,11.838-3.693,15.906-4.392C233.774,125.137,234.972,125.424,235.956,127.022Z" transform="translate(-185.112 -115.989)" fill="#313131"/><path d="M254.217,161.032a11.938,11.938,0,0,1,2.4-3.9c1.308-1.285,3.274-1.314,3.778.724.613,2.482-1.629,4.063-1.755,5.518-.142,1.635-3.136,3.105-4.226,2.567Z" transform="translate(-205.545 -134.855)" fill="#fec4ad"/><path d="M258.676,160.328c.947-.58,1.65.209,1.8,1.071s-.108.352-.7-.212-1.452.6-1.49,1.417c-.053,1.123-.646,2.455-1.633,2.4s-.433-.322-.135-1.482-.054-.016.405-1.127A3.784,3.784,0,0,1,258.676,160.328Z" transform="translate(-206.422 -136.682)" fill="#965545" opacity="0.52"/><g transform="translate(0 51.667)"><path d="M264.33,266.775c1.146-12.841,1.251-25.7,2.2-33.761,2.113-17.981,5.706-19.759,5.706-19.759s7.6,2.659,10.36,20.855c.812,5.356,1.863,17.4.437,34.257-1.123,13.287-3.228,14.935-6.467,16.333-4.417,1.908-12.808,3.538-16.647.067C262.341,276.361,263.808,278.551,264.33,266.775Z" transform="translate(-208.217 -213.254)" fill="#fff"/><path d="M266.65,287.719c-3.176,0-5.7-.775-7.352-2.269a.921.921,0,0,1,1.236-1.367c1.914,1.731,5.1,1.906,7.427,1.748a26.449,26.449,0,0,0,8.238-1.977,5.98,5.98,0,0,0,3.561-3.259c1.089-2.285,1.837-6.2,2.354-12.306,1.53-18.089.293-29.295-.309-33.273-1.4-9.216-4.093-14.458-6.109-17.232a11.7,11.7,0,0,0-3.835-3.688.921.921,0,0,1,.747-1.684,13.067,13.067,0,0,1,4.578,4.289,29.834,29.834,0,0,1,3.588,6.79,53.844,53.844,0,0,1,2.852,11.249c.612,4.043,1.869,15.42.323,33.7-.543,6.426-1.323,10.418-2.527,12.944a7.738,7.738,0,0,1-4.493,4.158,28.4,28.4,0,0,1-8.843,2.124Q267.347,287.719,266.65,287.719Z" transform="translate(-208.217 -213.254)" fill="#c0e7fa"/><path transform="translate(-214.052 -230.693)" fill="#c0e7fa"/><path d="M178.412,266.846c.627-11.875,2.157-23.7,2.354-31.166C181.2,219.091,179.748,218,179.748,218s-6.291,3.125-9.7,14.67c-1.365,4.626-5.533,19.134-7.063,33.538-1.237,11.65.6,14.8,3.025,16.415,3.591,2.386,15,.656,17.895.284C182.8,274.772,177.382,277.674,178.412,266.846Z" transform="translate(-162.59 -215.477)" fill="#fff"/><path d="M172.672,284.493q-.884,0-1.663-.027c-2.794-.1-4.544-.44-5.506-1.08a7.747,7.747,0,0,1-3.272-4.989c-.69-2.78-.742-6.8-.16-12.29a199.35,199.35,0,0,1,7.1-33.7,36.077,36.077,0,0,1,3.031-7.351,25.743,25.743,0,0,1,3.293-4.669,14.515,14.515,0,0,1,3.847-3.215.921.921,0,0,1,.823,1.649,13.286,13.286,0,0,0-3.379,2.888,29.1,29.1,0,0,0-5.848,11.22A197.5,197.5,0,0,0,163.9,266.3c-1.2,11.337.547,14.173,2.619,15.55.365.242,1.441.665,4.551.773A78.79,78.79,0,0,0,179,282.4c5.68-.4,11.374-1.138,13.518-1.416l.457-.059a.921.921,0,1,1,.234,1.828l-.454.059c-2.159.28-7.892,1.025-13.627,1.427C176.662,284.406,174.5,284.493,172.672,284.493Z" transform="translate(-162.59 -215.477)" fill="#c0e7fa"/><path d="M193.048,297.435a.921.921,0,0,1-.921-.905,132.127,132.127,0,0,1,.805-19.52c.214-2.128.456-4.539.727-7.65a.921.921,0,1,1,1.836.159c-.271,3.124-.515,5.542-.729,7.675a129.289,129.289,0,0,0-.8,19.3.921.921,0,0,1-.905.937Z" transform="translate(-176.848 -239.594)" fill="#c0e7fa"/><path d="M278.177,283.961a.921.921,0,0,1-.92-.895c-.327-11.327-.243-22.5.251-33.21a.921.921,0,1,1,1.841.085c-.491,10.664-.575,21.791-.25,33.072a.921.921,0,0,1-.894.947Z" transform="translate(-216.686 -230.433)" fill="#c0e7fa"/><g transform="translate(1.422 48.45)"><path d="M247.191,327.129c4.661.865,4.865-9.682,4.865-9.682s-7.549-5.344-8.166-1.065C243.266,320.716,247.191,327.129,247.191,327.129Z" transform="translate(-202.094 -309.272)" fill="#808194"/><path d="M240.479,307.084c2.326.152,7.027-3.179,10.646-.28a37.451,37.451,0,0,1,6.031,6.1s-7.673-.663-11.915,1.36a46.4,46.4,0,0,0-8.455,5.606Z" transform="translate(-198.795 -305.003)" fill="#edbda6"/><path d="M208.262,305.486c-1.2,2.039.464,10.138.861,12.359,0,0-13.149,4.619-24.129,5.13-13.473.628-16.765-.734-19.149-3.313-2.346-2.538,2.794-18.273,9.184-14.665,3.994,2.255,10.537,3.556,16.971,2.34C198.529,306.105,208.262,305.486,208.262,305.486Z" transform="translate(-165.267 -304.463)" fill="#fff"/><path d="M235.462,324.711a.922.922,0,0,1-.906-.759c-.1-.548-.5-1.97-.975-3.616-.695-2.429-1.559-5.452-2.157-8.121a21.651,21.651,0,0,1-.692-4.824c-2.784.207-9.9.8-14.968,1.755a.921.921,0,1,1-.342-1.81c6.51-1.23,16.277-1.86,16.375-1.866a.921.921,0,0,1,.853,1.386,3.664,3.664,0,0,0-.022,1.626,31.155,31.155,0,0,0,.612,3.408c.587,2.6,1.433,5.561,2.114,7.941.524,1.833.9,3.157,1.017,3.8a.922.922,0,0,1-.908,1.084Z" transform="translate(-188.86 -305.366)" fill="#c0e7fa"/></g><g transform="translate(12.841 45.526)"><path d="M203.916,302.053c-2.175-.425-6.977-4.463-10.769-2.612a31.956,31.956,0,0,0-6.382,4.124s8.321,2.006,11.636,4.966a48.637,48.637,0,0,1,6.509,7.633Z" transform="translate(-186.765 -298.958)" fill="#edbda6"/><path d="M213.836,304.686c-2.932,1.008-5.019,3.972-5.527,14.706,0,0,11.271,6.326,19.338,9.129,13.263,3.852,20.978.822,24.51-1.024s4.7-19.5-2.73-18.833c-2.584.232-13.578,3.881-20.7,1.108C222.309,307.277,213.836,304.686,213.836,304.686Z" transform="translate(-196.865 -301.643)" fill="#fff"/></g><path d="M270.809,307.97c-1.73-1.373-3.434-1.672-5.316-2.33s-10.65-.884-11.57.2c0,0,6.366,4.208,7.53,5.992.7,1.191,1.368,2.744,2.142,3.2s1.432.2,1.669-.435a1.9,1.9,0,0,0-.077-.969,6.8,6.8,0,0,1,1.358.966c1.222,1.12,2.28,1.293,2.307.609a7.809,7.809,0,0,0-1.186-2.489,17.737,17.737,0,0,1,1.742,1.812c.709.889,2,1.229,1.975.12s-1.221-2.936-2.24-4.128a6.672,6.672,0,0,0-1.6-1.377c.472.249,1.225.639,1.731.854.922.392,3.173,1.973,3.679.947S272.545,309.349,270.809,307.97Z" transform="translate(-205.407 -256.306)" fill="#edbda6"/></g><path d="M189.008,310.708a.917.917,0,0,1-.464-.126,37.02,37.02,0,0,0-16.4-4.977.921.921,0,0,1,.108-1.839,38.871,38.871,0,0,1,17.22,5.225.921.921,0,0,1-.465,1.717Z" transform="translate(-167.095 -204.451)" fill="#c0e7fa"/><path d="M240.682,333.05q-1.715,0-3.55-.175a46.851,46.851,0,0,1-12.27-2.941A85.957,85.957,0,0,1,216.575,326c-1.28-.666-2.6-1.355-3.909-1.989l-.767-.372a22.278,22.278,0,0,1-4.134-2.353.921.921,0,0,1-.377-.751c0-.384.109-9.452,3.388-13.393a.921.921,0,0,1,1.416,1.178c-2.476,2.976-2.884,9.889-2.95,11.757a21.855,21.855,0,0,0,3.46,1.9l.77.373c1.327.645,2.662,1.34,3.954,2.012a84.554,84.554,0,0,0,8.109,3.856c6.685,2.622,17.081,4.517,24.379,1.227a.921.921,0,0,1,.757,1.68A24.18,24.18,0,0,1,240.682,333.05Z" transform="translate(-184.023 -205.878)" fill="#c0e7fa"/><path d="M239.345,311.758c-6.041,0-13.41-3.378-18.438-5.683a46.465,46.465,0,0,0-4.571-1.939.921.921,0,0,1,.535-1.763,46,46,0,0,1,4.8,2.027c5.333,2.445,13.393,6.14,19.185,5.427a.921.921,0,1,1,.225,1.829A14.256,14.256,0,0,1,239.345,311.758Z" transform="translate(-187.912 -203.78)" fill="#c0e7fa"/></g><g transform="translate(200.133 13.735)"><g transform="translate(27.56 3.272)"><path d="M513.509,145.808c-.4,6.681-3.6,17.132-5.051,18.42,0,0-1.947,1.4-9.032.634-7.367-.8-8.778-3.742-8.778-3.742s-8.064-11.926-5.539-22.3,4.05-14.053,9.551-15.737,11.971,2.127,11.971,2.127S513.87,139.8,513.509,145.808Z" transform="translate(-482.595 -122.652)" fill="#20000c"/><g transform="translate(0 24.658)"><path d="M481.07,197.853l-.262-10.058,6.627-3.566a8.728,8.728,0,0,0,2.085-1.213c2.551-2.687,2.57-13.683,2.57-13.683l9.4-.262s.031,10.315,3.105,13.879c.736.853,4.349,3.221,4.431,2.878l3.579,4.8-.912,7.551C501.5,197.557,491.287,197.565,481.07,197.853Z" transform="translate(-480.808 -169.071)" fill="#edbda6"/><path d="M504.622,181.408q-1.013.2-2.032.363l-.043.005c-1.225.109-2.446.226-3.675.292-.155.008-.309.012-.464.019,1.918-3.674,1.934-12.754,1.934-12.754l9.4-.262a42.073,42.073,0,0,0,1.469,10.664A56.012,56.012,0,0,1,504.622,181.408Z" transform="translate(-489.059 -169.071)" fill="#f7a281"/></g></g><path d="M489.182,202.573l1.914-5.178,11.7,5.273,7.183-5.273,2.218,9.341,5.052,65.1-25.916,1.157Z" transform="translate(-457.174 -154.419)" fill="#6eafcf"/><path d="M454.162,241.92c.836-7.406,4.612-18.051,4.612-18.051l-.994-17.293a26.231,26.231,0,0,0-6.228,6.083c-2.6,3.781-10.1,27.961-11.136,35.909s.87,7.549,3.6,7.095c.72-.12,3.271,2.362,6.631,2.07C451.754,252.45,452.693,247.12,454.162,241.92Z" transform="translate(-434.178 -158.724)" fill="#fff"/><g transform="translate(18.659 42.369)"><path d="M474.81,316.8a208.714,208.714,0,0,0,38.41,2.972c.714,3.1,1.6,6.465,2.674,10.176,6,20.663-2.163,65.041-2.163,65.041a53.2,53.2,0,0,1-23.007,3.171c-1.021-.064-2.077-.148-3.177-.261-5.432-.544-9.208-.685-16.025-3.136,0,0-5.867-33.75-1.55-58.339C471.31,328.806,473.346,322.746,474.81,316.8Z" transform="translate(-466.084 -252.767)" fill="#313858"/><path d="M522.589,330.791s-1.415-25.78-1.879-34.373c-1.97-36.429-.06-50.6-.084-57.332-.017-4.7,1.9-13.315,1.9-13.315l2.916-29.228,9.849,3.784c.749,2.267,5.19,23.256,4.576,27.429-.428,2.938.158,27.106,3.436,45.816,2.132,12.169.078,42.751-1.591,56.337C535.544,330.283,530.9,331.938,522.589,330.791Z" transform="translate(-490.194 -196.389)" fill="#fff"/><path d="M466.354,327.787c-.795-10.268-3.607-36.372-1.587-47.875,3.04-17.32,5.992-52.835,4.957-56.38-1.342-4.59-2.406-8.022-2.406-8.022s.934-11.507,1.676-13.774l9.524-4.82,2.913-.664,13.705,41.593.053,2.586s.936,77.057-2.538,90.223C492.266,332.6,472.952,332.328,466.354,327.787Z" transform="translate(-464.051 -196.253)" fill="#fff"/><g transform="translate(4.253 77.421)"><path d="M486.846,344.228s-8.812,10.232-14.44,8.113l-.348-2.118a14.842,14.842,0,0,0,7.394-3.156A16.73,16.73,0,0,0,484,342Z" transform="translate(-472.058 -342.002)" fill="#c0e7fa"/></g></g><path d="M489.588,196.873l-2.968,1.682,1.693,12.129,3.93-1.042.023,7.2c7.567,3.985,12.936,19.734,12.936,19.734s-3.8-16.134-6.17-21.706C492.76,200.134,489.588,196.873,489.588,196.873Z" transform="translate(-455.973 -154.175)" fill="#c0e7fa"/><g transform="translate(0 56.578)"><path d="M471.661,259.5l.251,2.015-42.987-22.79,3.14-3.837L454.183,223Z" transform="translate(-428.926 -223.003)" fill="#5f97b3"/><path d="M471.912,263.3,447.039,276.6l-18.113-36.1L454.433,226.8Z" transform="translate(-428.926 -224.782)" fill="#6eafcf"/></g><path d="M471.893,272.081a4.055,4.055,0,0,0,4.354,1.384s-.4-6.018-2.6-4.355S471.893,272.081,471.893,272.081Z" transform="translate(-449.052 -187.904)" fill="#5f97b3"/><path d="M468.335,248.692c1-1.7,0-4.081,2.55-7.356s3.506-6.823,4.462-5.724-.956,5.724-.956,5.724,2.072-4.456,3.347-3.781.956,3.037.956,3.037,1.275-1.212,2.072.744a3.445,3.445,0,0,1,0,3.137s1.753-.506,1.912,1.012-.8,1.857-.8,1.857,1.434,2.025-.319,2.7-5.737,1.856-6.852,2.531-4.881,4.973-4.881,4.973l-3.241-5.817S467.448,250.194,468.335,248.692Z" transform="translate(-446.581 -172.24)" fill="#edbda6"/><path d="M455.348,262.709c1.5,5.532,3.634,7.963,6.234,7.891,0,0,0,1.812-6.234,8.772-4.76,5.314-9.087,7.945-11.471,7.945s-3.918-6.813-3.066-11.242,4.183-4.056,7.431-7.1C451.171,266.232,455.348,262.709,455.348,262.709Z" transform="translate(-434.386 -185.039)" fill="#fff"/><path d="M444.093,288.239c-.729,0-1.79-.368-2.709-2.12a13.824,13.824,0,0,1-1.259-4.133.921.921,0,0,1,1.819-.292c.493,3.069,1.565,4.7,2.149,4.7,1.963,0,6.059-2.362,10.785-7.639,3.646-4.071,5.082-6.3,5.645-7.378a5.633,5.633,0,0,1-2.969-2.044,15.353,15.353,0,0,1-2.473-5.006c-1.432,1.227-4.014,3.464-5.994,5.319a16.765,16.765,0,0,1-3.6,2.471,14.919,14.919,0,0,0-1.773,1.087.921.921,0,1,1-1.115-1.467,16.24,16.24,0,0,1,1.994-1.232,15.03,15.03,0,0,0,3.23-2.2c2.914-2.73,7.1-6.265,7.142-6.3a.921.921,0,0,1,1.483.462c1.317,4.847,3.107,7.272,5.319,7.212a.921.921,0,0,1,.947.921c0,.508-.466,2.685-6.469,9.387C451.691,285.077,447.032,288.239,444.093,288.239Z" transform="translate(-434.602 -185.039)" fill="#c0e7fa"/><path d="M515.99,217.884a.879.879,0,1,1-.879-.879A.879.879,0,0,1,515.99,217.884Z" transform="translate(-468.917 -163.613)" fill="#fff"/><path d="M518.286,236.007a.879.879,0,1,1-.88-.879A.88.88,0,0,1,518.286,236.007Z" transform="translate(-469.993 -172.109)" fill="#fff"/><g transform="translate(32.789 3.948)"><path d="M490.954,144.688a18.934,18.934,0,0,0,.843,4.3c.334.992.707,1.7,1.057,2.555.695,1.719,4.562,5.634,7.289,6.952a5.061,5.061,0,0,0,2.9.1c3.486-.956,7.233-5.808,8.406-8.35a26.826,26.826,0,0,0,1.566-8.587c.161-3.245.41-7.546.269-10.056-.381-6.731-5.285-8.217-10.418-7.511-5.9.815-12.1,4.531-12.121,6.523A126.773,126.773,0,0,0,490.954,144.688Z" transform="translate(-490.652 -123.925)" fill="#edbda6"/></g><g transform="translate(28.105)"><path d="M481.836,161.252A29.83,29.83,0,0,0,487.5,159.2a20.052,20.052,0,0,1,2.261-1.112,26.6,26.6,0,0,1-2.707-16.8c1.8-10.568,6.993-8.354,13.206-9.928,2.819-.714,5.19-6.492,5.4-6.819,1.8-2.868-.986-5.981-.914-5.993a10.953,10.953,0,0,0-5.357-1.886c-7.719-1.229-13.536,4.284-15.448,9.666-2.43,6.852-.89,15.746-.626,21.961C483.671,156.74,481.771,161.3,481.836,161.252Z" transform="translate(-481.834 -116.492)" fill="#3d2716"/><path d="M523.353,126.834a5.341,5.341,0,0,1,.237,1.418c-.135,4.336,3.916,7.885,4.016,8.21,1.43,4.478-1.551,17.225-3.254,23.4,2.55,1.048,5.009,2.383,7.863,3.019a44.411,44.411,0,0,1-.512-13.351c1.795-15.414,2.093-17.8-.325-23.028-1.6-3.474-5.287-6.285-7.183-6.192a2.165,2.165,0,0,0-.289.032,2.046,2.046,0,0,0-.217.044C522,120.959,522.923,124.854,523.353,126.834Z" transform="translate(-500.997 -118.28)" fill="#3d2716"/></g><path d="M523.8,194.112l4.628,2L531,207.091l-3.16-.536,2.126,8c-4.245,4.865-8.361,20.72-8.361,20.72s1.362-13.418,2.253-22.124C525.5,197.1,523.8,194.112,523.8,194.112Z" transform="translate(-472.372 -152.881)" fill="#c0e7fa"/><path d="M521.982,349.01a.921.921,0,0,1-.92-.9c-.175-6.29-.181-21.044-.187-36.664-.006-15.534-.013-31.6-.195-39.389a.921.921,0,0,1,.9-.943h.022a.921.921,0,0,1,.921.9c.183,7.813.189,23.887.2,39.431.006,15.607.012,30.348.187,36.613a.921.921,0,0,1-.9.947Z" transform="translate(-472.372 -189.414)" fill="#c0e7fa"/><g transform="translate(33.922 40.248)"><path d="M514.814,200.26s4.735-3.873,5.307-8l2.3,2s1.867,10.366-.793,11.427C517.914,207.163,514.814,200.26,514.814,200.26Z" transform="translate(-503.112 -192.26)" fill="#5f97b3"/><path d="M504.487,200.26s-6.68-2.485-9.4-8l-2.3,2s2.488,12.078,5.881,12.253C503.466,206.758,504.487,200.26,504.487,200.26Z" transform="translate(-492.785 -192.26)" fill="#5f97b3"/></g><path d="M543.4,341.986a17.555,17.555,0,0,0,2.747,1.113,5.218,5.218,0,0,0,1-2.386c.043-1.607,3.793-9.288,3.793-9.288l-6-2.5c-.8,1.083-3.417,6.166-4.584,7.221a5.594,5.594,0,0,0-1.329,2.917A41.788,41.788,0,0,0,543.4,341.986Z" transform="translate(-480.536 -216.081)" fill="#edbda6"/><g transform="translate(61.083 46.307)"><path d="M564.465,240.886c-2.626-9.179-8.591-29.1-10.048-31.644-2.435-4.248-7.828-5.574-7.828-5.574l-1.177,20.189s4.9,16.779,8.37,23.478a75.885,75.885,0,0,1-3.451,12.178c-2.342,5.648-6.415,16.207-6.415,16.207,1.355.373,6.1,4.322,6.791,5.335,0,0,6.9-10.387,10.391-15.867C566.454,256.776,566.85,249.218,564.465,240.886Z" transform="translate(-543.917 -203.667)" fill="#fff"/><path d="M550.708,299.793a.921.921,0,0,1-.759-.4,22.263,22.263,0,0,0-2.967-2.711,15.629,15.629,0,0,0-3.31-2.257.921.921,0,0,1-.615-1.22c.041-.106,4.1-10.635,6.424-16.229a73.5,73.5,0,0,0,3.336-11.691c-3.458-6.868-8.09-22.675-8.288-23.354a.921.921,0,1,1,1.769-.516c.049.167,4.913,16.77,8.3,23.312a.921.921,0,0,1,.087.6,75.809,75.809,0,0,1-3.5,12.357c-1.937,4.672-5.1,12.814-6.1,15.385a25.974,25.974,0,0,1,3.051,2.18c.8.641,1.748,1.453,2.453,2.136,1.8-2.718,6.913-10.446,9.732-14.873a.921.921,0,0,1,1.554.99c-3.454,5.425-10.332,15.779-10.4,15.883a.921.921,0,0,1-.76.411Z" transform="translate(-543.917 -221.485)" fill="#c0e7fa"/><path d="M0,7.589a.923.923,0,0,1-.224-.028.921.921,0,0,1-.67-1.117L.775-.224a.921.921,0,0,1,1.117-.67A.921.921,0,0,1,2.562.224L.894,6.891A.922.922,0,0,1,0,7.589Z" transform="translate(9.753 37.564)" fill="#c0e7fa"/></g><path transform="translate(-500.969 -190.207)" fill="#c0e7fa"/><g transform="translate(56.161 119.79)"><path d="M534.651,344.228s8.812,10.232,14.44,8.113l.348-2.118a14.839,14.839,0,0,1-7.394-3.156A16.728,16.728,0,0,1,537.5,342Z" transform="translate(-534.651 -342.002)" fill="#c0e7fa"/></g></g><g transform="translate(131.365 2.204)"><path d="M382.677,187.676l-2.349-.3a8.8,8.8,0,0,0-.416-3.4,7.764,7.764,0,0,0-5-4.954,30.632,30.632,0,0,0-10.266-1.442c-4.294.076-7.886.923-10.114,2.385a5.135,5.135,0,0,0-2.6,4.143l-2.365-.132a7.116,7.116,0,0,1,1.115-3.492,8.547,8.547,0,0,1,2.547-2.5c5.733-3.762,16.969-3.226,22.5-1.185a10.107,10.107,0,0,1,6.466,6.542A11.034,11.034,0,0,1,382.677,187.676Z" transform="translate(-323.509 -133.039)" fill="#313858"/><path d="M385.809,177.522c-1.436,6.388-2.881,12.3-4.292,17.793H348.9c-1.274-5.933-2.709-12.337-4.332-19.27,3.336-1.666,7.777-2.227,9.253-5.179.546-1.089.693-5.048.719-7.108a49.749,49.749,0,0,0-.258-6.29h17.967a86.354,86.354,0,0,0-.181,9.622c.131,2.267.452,4.2,1.143,4.847C375.361,173.971,381.589,175.5,385.809,177.522Z" transform="translate(-320.61 -124.17)" fill="#edbda6"/><path d="M407.9,419.9c.234-23.517-3.741-45.539-3.642-48.8.445-14.736-.338-29.728-.338-29.728l-25.79-9.285-2.864,57.848s1.036,13.526,2.268,29.967Z" transform="translate(-335.003 -206.033)" fill="#313858"/><path d="M319.122,419.9h32.546c.675-5.483,1.123-9.045,1.123-9.045l-3.9-78.771-24.619,11.835S318.889,396.387,319.122,419.9Z" transform="translate(-308.678 -206.033)" fill="#313858"/><path d="M321.933,296.663c20.912-.353,36.525,2.892,57.155.253-.7-19.26-.689-47.319.975-60.085,2.365-18.148,3.8-32.737,3.8-32.737L364.37,192.839l-4.578,2.429-7.717,1.068-9.219-.388-5.383-1.729-14.161,9.875a104.76,104.76,0,0,0-.873,32.737C324.081,249.445,322.841,277.927,321.933,296.663Z" transform="translate(-309.831 -140.752)" fill="#6eafcf"/><path d="M361.668,170.867a4.449,4.449,0,0,1-.359.589c5.788.445,14.53-.7,18.65-3.745-.016-.2-.031-.409-.044-.62a86.35,86.35,0,0,1,.181-9.622H362.13a49.752,49.752,0,0,1,.258,6.29C362.361,165.819,362.214,169.777,361.668,170.867Z" transform="translate(-328.459 -124.17)" fill="#f7a281"/><path d="M313.425,215.123c1.8,18.334,4.234,30.43,3.953,47.273-.187,11.209-2.633,61.572-2.633,61.572s15.335-.212,27.185-5.38c7.978-3.479,6.921-27.784,6.464-54.5-.342-19.952-14.875-40.355-16.1-53.792-.513-5.615,1.463-21.511,1.463-21.511l-13.192,6.583Z" transform="translate(-306.011 -138.853)" fill="#fff"/><path d="M409.921,209.676c-.526,16.843-.088,24.74-.426,27.9-1.168,10.926-2.207,17.054-2.151,26.489.116,19.924,4.415,58.106,4.415,58.106s-22.09,1.845-29.944-4.913c-8.806-7.576-5.6-53.424-4.14-61.8,3.089-17.661,10.187-22.453,12.755-39.835a119.474,119.474,0,0,0,.588-28.7l16.215,7.022Z" transform="translate(-335.292 -137.978)" fill="#fff"/><path d="M352.326,187.855l2.944-2.285a29.275,29.275,0,0,0,2.964,2.659c5.541,3.954,8.605,4.307,8.605,4.307s-5.665,4.533-8.3,4.172C353.684,196.043,352.326,187.855,352.326,187.855Z" transform="translate(-324.248 -137.345)" fill="#5f97b3"/><path d="M392.113,186.871l-1.88-2.172a41.719,41.719,0,0,1-3.569,3.271c-5.439,3.884-8.447,4.231-8.447,4.231s5.56,4.454,8.15,4.1C391.129,195.646,392.113,186.871,392.113,186.871Z" transform="translate(-336.385 -136.936)" fill="#5f97b3"/><path d="M389.225,342.19a1.874,1.874,0,1,1-1.874-1.874A1.874,1.874,0,0,1,389.225,342.19Z" transform="translate(-339.789 -209.89)" fill="#c0e7fa"/><circle cx="1.874" cy="1.874" r="1.874" transform="translate(45.967 149.924)" fill="#c0e7fa"/><path d="M348.966,185.482s-1.647,7.319.929,19.748c1.624,7.839,2.249,13.081,3.89,19.246a132.064,132.064,0,0,1,4.54,28.675L340.086,204.6l3.13-3.855-6.255-3.019s5.011-8.886,7.422-10.609A8.043,8.043,0,0,1,348.966,185.482Z" transform="translate(-317.044 -137.303)" fill="#c0e7fa"/><path d="M390.6,184.7s1.186,7.476-1.225,20.521-5.322,25.151-6.614,29.632c-3.581,12.418-3.765,18.955-3.765,18.955s17.278-46.02,20.673-51.819l-3.443-2.62,3.924-3.013s-3.731-8.158-6.142-9.881S390.6,184.7,390.6,184.7Z" transform="translate(-336.749 -136.936)" fill="#c0e7fa"/><g transform="translate(0 55.965)"><path d="M418.548,253.719c.733-12.046.34-24.582,1.076-32.738,1.712-18.965,5.779-20.84,5.779-20.84s6.8,3.157,10.082,21.931c.923,5.277,3.834,16.548,2.473,32-1.024,11.633-3.095,13.189-6.3,14.621-4.4,1.963-12.89,4.027-17.013,1.354C416.828,262.486,418.454,264.319,418.548,253.719Z" transform="translate(-353.462 -200.141)" fill="#fff"/><path d="M420.089,272.234a11.056,11.056,0,0,1-5.946-1.419.921.921,0,0,1,1-1.546c3.643,2.362,11.629.59,16.136-1.422a6.261,6.261,0,0,0,3.526-3.067c1.054-2.037,1.764-5.467,2.233-10.793a98.726,98.726,0,0,0-1.981-29.22c-.189-.966-.353-1.8-.482-2.536-1.638-9.373-4.165-14.663-6-17.451-1.965-2.991-3.56-3.8-3.576-3.808l.009,0,.776-1.671c.3.137,7.275,3.578,10.6,22.608.125.718.287,1.543.475,2.5a100.4,100.4,0,0,1,2.009,29.736c-.5,5.65-1.247,9.19-2.432,11.478a8.027,8.027,0,0,1-4.411,3.9,34.108,34.108,0,0,1-8.862,2.487A23.424,23.424,0,0,1,420.089,272.234Z" transform="translate(-353.462 -200.141)" fill="#c0e7fa"/><path transform="translate(-357.858 -218.534)" fill="#c0e7fa"/><path d="M318.915,254.206c-.733-12.046-.341-24.582-1.077-32.738-1.712-18.965-3.819-20.289-3.819-20.289s-8.041,3.608-10.76,17.028c-1.064,5.25-4.164,21.264-3.755,36.347.317,11.674,3.1,14.567,6.353,15.9,4.724,1.94,18.341.023,21.689-.566C325.362,262.334,319.009,264.806,318.915,254.206Z" transform="translate(-299.467 -200.628)" fill="#fff"/><path d="M312.52,272.225a19.8,19.8,0,0,1-7.013-.917,8.587,8.587,0,0,1-4.754-4.523c-1.31-2.694-2.02-6.686-2.17-12.206-.281-10.349,1.023-22.99,3.773-36.555a33.411,33.411,0,0,1,2.911-8.558,24.748,24.748,0,0,1,3.711-5.426,15.845,15.845,0,0,1,4.664-3.7.921.921,0,0,1,.757,1.68,14.525,14.525,0,0,0-4.135,3.346,27.166,27.166,0,0,0-6.1,13.025c-2.722,13.43-4.014,25.927-3.736,36.139.143,5.252.792,9,1.985,11.45a6.781,6.781,0,0,0,3.8,3.624c1.861.764,5.646.972,10.946.6,4.349-.306,8.6-.932,10.233-1.22a.921.921,0,1,1,.319,1.815c-1.794.316-6.007.933-10.423,1.243Q314.656,272.225,312.52,272.225Z" transform="translate(-299.467 -200.628)" fill="#c0e7fa"/><path d="M336.7,288.787a.921.921,0,0,1-.91-.787,106.1,106.1,0,0,1-1.423-19.316c0-2.2-.01-4.695-.07-7.933a.921.921,0,0,1,1.842-.034c.06,3.253.066,5.756.07,7.963a104.648,104.648,0,0,0,1.4,19.051.921.921,0,0,1-.777,1.046A.931.931,0,0,1,336.7,288.787Z" transform="translate(-316.227 -228.547)" fill="#c0e7fa"/><path d="M431.915,271.583a.921.921,0,0,1-.918-.861c-.7-10.614-.954-21.386-.759-32.016a.921.921,0,1,1,1.842.034c-.194,10.578.06,21.3.755,31.861a.921.921,0,0,1-.859.98Z" transform="translate(-361.175 -218.229)" fill="#c0e7fa"/><g transform="translate(3.128 49.773)"><path d="M400.1,314.034c4.994.414,4.719-9.039,4.719-9.039s-8.521-4.477-8.932-.459S400.1,314.034,400.1,314.034Z" transform="translate(-347.787 -298.07)" fill="#808194"/><path d="M392.23,295.628c2.584.01,7.564-3.372,11.632-.859A36.4,36.4,0,0,1,410.506,300s-8.165-.128-12.633,1.986a51.837,51.837,0,0,0-8.868,5.674Z" transform="translate(-344.571 -293.84)" fill="#edbda6"/><path d="M354.4,295.2c-1.2,1.982,4.368,13.693,4.908,15.635a201.836,201.836,0,0,1-24.957,2.925c-14.225.611-24.584-.021-27.856-2.254s.711-18.07,9.153-14.845a38.814,38.814,0,0,0,20.471,1.242C343.512,296.333,354.4,295.2,354.4,295.2Z" transform="translate(-305.357 -294.475)" fill="#fff"/><path d="M386.462,311.751a.922.922,0,0,1-.887-.675c-.128-.461-.64-1.7-1.233-3.135-.9-2.173-2.015-4.877-2.826-7.295a17.454,17.454,0,0,1-1.044-4.405c-3.012.341-11.165,1.321-17.008,2.558a.921.921,0,0,1-.382-1.8c7.352-1.556,18.267-2.706,18.376-2.718a.921.921,0,0,1,.888,1.386c-.039.091-.276.881.96,4.529.789,2.327,1.869,4.942,2.737,7.044.666,1.612,1.147,2.777,1.305,3.345a.922.922,0,0,1-.888,1.168Z" transform="translate(-332.509 -294.475)" fill="#c0e7fa"/></g><g transform="translate(15.595 47.943)"><path d="M349,292.945c-2.568-.287-8.644-3.971-12.974-1.942a36.408,36.408,0,0,0-7.2,4.43s10.206,1.429,14.4,4.042a51.831,51.831,0,0,1,8.158,6.655Z" transform="translate(-328.826 -290.396)" fill="#edbda6"/><path d="M361.964,295.12c-3.312,1.14-5.45,4.113-4.957,14.229A127.794,127.794,0,0,0,379.086,315c14.061,2.241,21.8.011,25.3-1.831s4.484-17.362-3.154-16.349c-2.688.357-14.2,4.333-22.085,2.225C371.853,297.1,361.964,295.12,361.964,295.12Z" transform="translate(-342.005 -292.611)" fill="#fff"/></g><path d="M404.505,289.134a60.86,60.86,0,0,0,8.924-3.383c1.846-1.011,3.272-2.1,5.6-2.577s3.421-.82,3.9.143-3.27,1.665-4.158,1.859a7.059,7.059,0,0,0-2.293,1.647s3-.463,4.662-.529,2.8-.317,3.7.289-.251,1.353-1.449,1.366a7.7,7.7,0,0,0-2.626.68,8.322,8.322,0,0,1,2.642.55c.531.4-.2,1.01-1.936,1.268a20.657,20.657,0,0,0-2.821.6s-.609,1.312-2.87,1.162S404.505,289.134,404.505,289.134Z" transform="translate(-348.709 -238.846)" fill="#edbda6"/><path d="M425.348,297.056c-3.39.559-6.246,1.016-8.642,1.386l.035.262a10.453,10.453,0,0,1-.026,1.22,32.338,32.338,0,0,0,5.54-.479,25.739,25.739,0,0,0,3.081-.841C426.428,298.161,427.155,296.758,425.348,297.056Z" transform="translate(-354.429 -245.556)" fill="#edbda6"/></g><path d="M333.427,303.638a.92.92,0,0,1-.3-.051,57.058,57.058,0,0,0-20.848-3.006.921.921,0,1,1-.075-1.841,58.922,58.922,0,0,1,21.528,3.106.921.921,0,0,1-.3,1.792Z" transform="translate(-305.455 -190.808)" fill="#c0e7fa"/><path d="M321.251,331.85q-2.063,0-4.147-.09a.921.921,0,1,1,.082-1.841c8.275.367,16.356-.486,24.171-1.311,3.419-.361,6.649-.7,9.888-.945a.921.921,0,1,1,.138,1.837c-3.211.242-6.427.581-9.832.94A192.223,192.223,0,0,1,321.251,331.85Z" transform="translate(-307.754 -204.389)" fill="#c0e7fa"/><path d="M389.581,319.111a58.939,58.939,0,0,1-10.855-1.024c-3.23-.622-6.344-1.515-9.355-2.38-1.491-.428-3.032-.871-4.562-1.272-2.832-.743-4.826-1.218-7.868-1.751a.921.921,0,0,1-.75-.759c-.058-.356-1.383-8.769,1.845-12.881a.921.921,0,0,1,1.449,1.138c-2.272,2.893-1.793,8.846-1.561,10.806,2.743.5,4.683.965,7.353,1.666,1.551.407,3.1.853,4.6,1.284,2.972.853,6.046,1.736,9.195,2.342,7.517,1.447,18.093,1.717,25.232-1.865a.921.921,0,0,1,.826,1.647,33.044,33.044,0,0,1-13.522,3.012C390.921,319.1,390.243,319.111,389.581,319.111Z" transform="translate(-326.343 -190.808)" fill="#c0e7fa"/><path d="M390.774,300.887a42.661,42.661,0,0,1-7.339-.735c-3.994-.706-8-1.8-11.224-2.678-2.312-.631-4.309-1.176-5.548-1.368a.921.921,0,0,1,.283-1.821c1.342.208,3.287.739,5.75,1.411,6.224,1.7,15.629,4.265,21.816,3.014a.921.921,0,1,1,.365,1.806A20.752,20.752,0,0,1,390.774,300.887Z" transform="translate(-331.035 -188.737)" fill="#c0e7fa"/><g transform="translate(25.804)"><g transform="translate(26.819 22.812)"><path d="M398.908,142.342s-.218-4.732,3.748-4.611c2.531.078,2.727,2.4.755,5.391-.83,1.26-.914,4.11-1.945,5.026-1.253,1.114-2.3-.605-2.683-1.389C398.152,145.464,398.908,142.342,398.908,142.342Z" transform="translate(-398.531 -137.729)" fill="#edbda6"/></g><path d="M402.919,141.888c1.4-.779,2.959-.623,2.025.935s-1.557,2.025-1.48,3.738a1.429,1.429,0,0,1-1.324,1.636Z" transform="translate(-373.404 -116.652)" fill="#e7a699"/><g transform="translate(0 22.812)"><path d="M353.876,142.342s.218-4.732-3.747-4.611c-2.531.078-2.727,2.4-.755,5.391.83,1.26.914,4.11,1.944,5.026,1.254,1.114,2.3-.605,2.684-1.389C354.632,145.464,353.876,142.342,353.876,142.342Z" transform="translate(-348.044 -137.729)" fill="#edbda6"/></g><path d="M353.433,141.888c-1.4-.779-2.96-.623-2.025.935s1.558,2.025,1.48,3.738a1.429,1.429,0,0,0,1.324,1.636Z" transform="translate(-349.488 -116.652)" fill="#e7a699"/><path d="M380.96,114.212a44.863,44.863,0,0,1-.8,4.815c-.094.549-.2,1.177-.3,1.905-.819,5.681-1.858,13.406-2.307,14.557-.741,1.912-4.8,5.007-6.726,6.14s-6.774.9-8.7-.232-6.287-4-7.028-5.907c-.455-1.173-1.531-9.121-2.357-14.9-.094-.659-.185-1.228-.273-1.73a43.236,43.236,0,0,1-.781-4.652c-.3-4.8,5.106-11.78,14.639-11.78C377.6,102.432,381.258,109.412,380.96,114.212Z" transform="translate(-349.745 -98.369)" fill="#edbda6"/><path d="M358.989,112.111a68.687,68.687,0,0,1,19.159-1.4l3.055-2.047a27.32,27.32,0,0,0-12.441-3C361.716,105.709,358.989,112.111,358.989,112.111Z" transform="translate(-353.175 -99.881)" fill="#e1d2e3" style="mix-blend-mode:multiply;isolation:isolate"/><path d="M379.685,114.211c-.154.431-.3.819-.419,1.155l.05.075c-.095.549-.2,1.177-.3,1.905-.2,1.383-.412,2.887-.625,4.388l-1.6,1.964a65.342,65.342,0,0,0,1.467-8.383l-.008-.019a18.678,18.678,0,0,1-1.705-7.411l-.594-3.829-2.556.113c-.368-.377-5.914-.174-10.732.2-6.111.471-7.944,2.648-7.944,2.648-.356,2.3-.813,5.786-1.979,7.8l-.066.114-.09.155c.285,1.447.41,5.756,1.269,8.129l-1.284-1.473c-.23-1.618-.459-3.244-.671-4.727-.03-.211-.059-.4-.089-.592l-.009.014s-.257-.875-.615-2.118c-.263-.917-.916-5.609-1.073-6.271q-.076-.311-.132-.6c-.561-2.942.636-13.871,17.472-12.542.2.016.4.041.6.069,5.549.731,8.094,3.346,8.094,3.346l1.9,3.348c3.155.471,3.493,2.3,2.768,5.895C380.777,107.71,380,113.322,379.685,114.211Z" transform="translate(-348.903 -94.784)" fill="#422129"/></g><g transform="translate(10.334 49.384)"><g transform="translate(0 2.596)"><path d="M334.982,192.639l.095,1-.047-.5.048.5c-.046,0-6.126.293-8.76,4.063-2.865,4.1-7.4,15.8-6.22,18.216,1.3,2.668,6.952,5.1,7.009,5.125l-.392.921c-.246-.105-6.055-2.607-7.517-5.607-1.538-3.156,3.714-15.527,6.3-19.228C328.4,192.967,334.774,192.659,334.982,192.639Z" transform="translate(-318.921 -192.639)" fill="#313858"/></g><g transform="translate(2.59 2.596)"><path d="M324.758,205.384A42.56,42.56,0,0,1,328.6,197.7c2.634-3.77,8.714-4.058,8.76-4.063l-.048-.5-.047-.5c-.208.02-6.58.328-9.485,4.485A46,46,0,0,0,323.8,205.1Q324.278,205.239,324.758,205.384Z" transform="translate(-323.796 -192.639)" fill="#313858"/><path d="M324.758,205.661a.276.276,0,0,1-.08-.012c-.3-.092-.617-.184-.959-.283a.277.277,0,0,1-.18-.369,46.3,46.3,0,0,1,4.017-8.031,10.576,10.576,0,0,1,5.692-3.836,17.56,17.56,0,0,1,3.958-.764l.036,0a.278.278,0,0,1,.3.25l.1,1a.277.277,0,0,1-.247.3l-.024,0c-.618.038-6.11.47-8.537,3.944a41.987,41.987,0,0,0-3.815,7.631A.277.277,0,0,1,324.758,205.661Zm-.59-.741.428.126a41.859,41.859,0,0,1,3.78-7.507c2.355-3.371,7.351-4.039,8.684-4.159l-.042-.444c-1.48.133-6.558.839-9.008,4.346A44.888,44.888,0,0,0,324.168,204.92Z" transform="translate(-323.796 -192.639)" fill="#313858"/></g><path d="M333.037,244.4l1.459-.02a1.325,1.325,0,0,1,1.33,1.509h0a1.324,1.324,0,0,1-1.694,1.084l-1.4-.421a.239.239,0,0,1-.167-.261l.237-1.686A.238.238,0,0,1,333.037,244.4Z" transform="translate(-325.317 -214.301)" fill="#313858"/><g transform="translate(16.651 2.73)"><path d="M350.632,192.891l-.365.932.182-.466-.183.466c.043.017,5.809,1.968,7.3,6.317,1.625,4.73,2.76,17.228.965,19.225-1.985,2.207-8.088,2.99-8.149,3l.123.993c.266-.033,6.539-.839,8.77-3.322,2.347-2.61.7-15.95-.763-20.219C356.868,195.017,350.827,192.967,350.632,192.891Z" transform="translate(-350.267 -192.891)" fill="#313858"/></g><g transform="translate(16.651 2.73)"><path d="M359.151,208.587a42.572,42.572,0,0,0-1.58-8.448c-1.495-4.349-7.26-6.3-7.3-6.317l.183-.466.183-.466c.194.076,6.236,2.126,7.884,6.923a45.97,45.97,0,0,1,1.637,8.765Q359.652,208.58,359.151,208.587Z" transform="translate(-350.267 -192.891)" fill="#313858"/><path d="M359.151,208.864a.277.277,0,0,1-.275-.249,42.006,42.006,0,0,0-1.567-8.386c-1.38-4.014-6.539-5.936-7.123-6.142l-.02-.007a.277.277,0,0,1-.156-.359l.365-.932a.277.277,0,0,1,.359-.157l.035.013a17.59,17.59,0,0,1,3.6,1.826,10.573,10.573,0,0,1,4.412,5.252,46.283,46.283,0,0,1,1.651,8.827.277.277,0,0,1-.275.306c-.332,0-.669,0-1,.008Zm-8.523-15.2c1.25.482,5.866,2.5,7.2,6.389a41.871,41.871,0,0,1,1.568,8.258l.446,0a44.867,44.867,0,0,0-1.591-8.4c-1.39-4.044-6.08-6.123-7.464-6.658Z" transform="translate(-350.267 -192.891)" fill="#313858"/></g><path d="M350.068,246.724l-1.357-.409a1.342,1.342,0,0,0-1.525.654h0a1.328,1.328,0,0,0,1.2,1.925l1.375-.019a.238.238,0,0,0,.233-.206l.237-1.685A.239.239,0,0,0,350.068,246.724Z" transform="translate(-332.105 -215.183)" fill="#313858"/><path d="M346.778,191.628l1.278,0a.374.374,0,0,1,.1.014l1.228.355a.366.366,0,0,0,.436-.2l.193-.436a.367.367,0,0,0-.05-.378l-.055-.069a2.19,2.19,0,0,1-.482-1.264l-.073-1.434a.366.366,0,0,0-.339-.346l-.353-.026a.377.377,0,0,1-.048-.006l-.346-.072a.365.365,0,0,0-.421.24l-.465,1.359a2.187,2.187,0,0,1-.812,1.083l-.072.051a.367.367,0,0,0-.152.35l.066.472A.366.366,0,0,0,346.778,191.628Z" transform="translate(-331.777 -187.751)" fill="#313858"/></g><g transform="translate(29.574 19.74)"><path d="M391.5,136.89a4.006,4.006,0,0,1-4.091,3.076c-3.039,0-3.123-1.978-3.41-3.146a5.286,5.286,0,0,1-.153-2.368c.277-.686,1.076-.7,3.471-.75s3.715-.08,4.1.273S391.9,135.134,391.5,136.89Z" transform="translate(-368.565 -132.755)" fill="#fff" opacity="0.3"/><path d="M359.945,133.975c.387-.353,1.707-.321,4.1-.273s3.195.064,3.471.75a5.285,5.285,0,0,1-.153,2.368c-.287,1.168-.371,3.147-3.41,3.146a4.006,4.006,0,0,1-4.091-3.076C359.469,135.134,359.559,134.328,359.945,133.975Z" transform="translate(-357.236 -132.755)" fill="#fff" opacity="0.3"/><path d="M380.7,132.778c-.052-.524-2.652-.759-4.518-.795s-5.02-.132-6.14.253c-.993.342-.83.71-2.088.71-1.1,0-1.153-.368-2.146-.71-1.12-.385-4.273-.289-6.14-.253s-4.466.271-4.518.795a3.013,3.013,0,0,0,.1,1.015c.081.287,1.012.442,1.174.52.352.167.242,1.317.794,2.567.713,1.615,2.381,2.884,5.75,2.6,3.092-.259,3.032-3.53,3.417-4.409.329-.753.159-1,1.561-1,1.376,0,1.181.244,1.511,1,.385.879.325,4.15,3.417,4.409,3.369.282,4.961-.967,5.675-2.582.552-1.251.518-2.42.87-2.587.163-.078,1.093-.233,1.174-.52A3,3,0,0,0,380.7,132.778Zm-15.427,3.232c-.287,1.168-.371,3.147-3.41,3.146a4.006,4.006,0,0,1-4.091-3.076c-.4-1.756-.306-2.562.08-2.915s1.707-.321,4.1-.273,3.195.064,3.471.75A5.285,5.285,0,0,1,365.272,136.01Zm12.806.07a4.006,4.006,0,0,1-4.091,3.076c-3.039,0-3.123-1.978-3.41-3.146a5.285,5.285,0,0,1-.153-2.368c.277-.686,1.076-.7,3.471-.75s3.715-.08,4.1.273S378.474,134.324,378.078,136.08Z" transform="translate(-355.142 -131.945)" fill="#133a50"/></g><path d="M402.488,216.766l-2.167-.957a58.046,58.046,0,0,0,3.1-9.95c1.118-5.154,1.936-12.585-.519-18.711l2.2-.881a27.45,27.45,0,0,1,1.779,10.309,47.224,47.224,0,0,1-1.155,9.834A59.266,59.266,0,0,1,402.488,216.766Z" transform="translate(-347.256 -137.878)" fill="#313858"/><circle cx="3.505" cy="3.505" r="3.505" transform="translate(49.701 77.287)" fill="#fff"/><path d="M3.5-1.14A4.645,4.645,0,1,1-1.14,3.5,4.65,4.65,0,0,1,3.5-1.14Zm0,7.01A2.365,2.365,0,1,0,1.14,3.5,2.367,2.367,0,0,0,3.5,5.87Z" transform="translate(49.701 77.287)" fill="#313858"/><path d="M0,39.617A.921.921,0,0,1-.921,38.7V0A.921.921,0,0,1,0-.921.921.921,0,0,1,.921,0V38.7A.921.921,0,0,1,0,39.617Z" transform="translate(42.383 123.756)" fill="#c0e7fa"/></g></g></g></g></svg>