<svg xmlns="http://www.w3.org/2000/svg" width="543.998" height="240.063" viewBox="0 0 543.998 240.063"><g transform="translate(-1525.234 -816.451)"><g transform="translate(1525.234 816.451)"><g transform="translate(250.457)"><rect width="125.868" height="238.829" rx="12" transform="translate(0 0.001)" fill="#78acea"/><path d="M2730.3,822.893V1048.84a6.46,6.46,0,0,1-6.442,6.44H2610.875a6.459,6.459,0,0,1-6.44-6.44V822.893a6.459,6.459,0,0,1,6.44-6.442h112.986A6.46,6.46,0,0,1,2730.3,822.893Z" transform="translate(-2597.783 -816.451)" fill="#afcdfb"/><g transform="translate(48.228 6.495)"><path d="M2837.332,846.258h-32.719a1.277,1.277,0,0,1-1.273-1.273h0a1.276,1.276,0,0,1,1.273-1.273h32.719a1.277,1.277,0,0,1,1.273,1.273h0A1.277,1.277,0,0,1,2837.332,846.258Z" transform="translate(-2797.528 -843.712)" fill="#5e92dd" opacity="0.4"/><path d="M2780.22,846.258h0a1.277,1.277,0,0,1-1.273-1.273h0a1.277,1.277,0,0,1,1.273-1.273h0a1.277,1.277,0,0,1,1.273,1.273h0A1.277,1.277,0,0,1,2780.22,846.258Z" transform="translate(-2778.947 -843.712)" fill="#5e92dd" opacity="0.4"/></g><path d="M2857.092,1737.279a8.211,8.211,0,1,1-8.211-8.209A8.187,8.187,0,0,1,2857.092,1737.279Z" transform="translate(-2777.736 -1511.647)" fill="#95c0f4"/><rect width="111.615" height="198.673" transform="translate(14.189 14.713)" fill="#95c0f4"/><path d="M2854.711,1747.15a8.21,8.21,0,1,1-10.231-12.71A18.406,18.406,0,0,0,2854.711,1747.15Z" transform="translate(-2777.736 -1515.738)" fill="#8cbaf1"/></g><path d="M2760.568,977.908H2656.694a1.894,1.894,0,0,0-1.6,2.08V1046.4a1.893,1.893,0,0,0,1.6,2.077h103.873a1.893,1.893,0,0,0,1.606-2.077V979.988A1.894,1.894,0,0,0,2760.568,977.908Z" transform="translate(-2385.913 -939.442)" fill="#78acea" opacity="0.9"/><path d="M2672.224,1316.56H2591.24c-.687,0-1.251.935-1.251,2.08v66.411c0,1.142.563,2.078,1.251,2.078h80.984c.689,0,1.252-.936,1.252-2.078V1318.64C2673.476,1317.5,2672.913,1316.56,2672.224,1316.56Z" transform="translate(-2336.321 -1197.414)" fill="#78acea" opacity="0.9"/><g transform="translate(275.496 32.482)"><path d="M2820.259,954.875v66.412a2.084,2.084,0,0,1-2.08,2.076H2683.688a2.083,2.083,0,0,1-2.076-2.076V954.875a2.084,2.084,0,0,1,2.076-2.081h134.491A2.085,2.085,0,0,1,2820.259,954.875Z" transform="translate(-2681.612 -952.794)" fill="#fcecdb"/><path d="M3041.916,954.876v66.411a2.273,2.273,0,0,1-2.417,2.077h-66.906V952.8H3039.5A2.273,2.273,0,0,1,3041.916,954.876Z" transform="translate(-2903.269 -952.796)" fill="#f99746"/><g transform="translate(76.989 22.764)"><path d="M3029.945,1051.358h-23.67a1.512,1.512,0,0,1-1.507-1.508h0a1.512,1.512,0,0,1,1.507-1.507h23.67a1.512,1.512,0,0,1,1.507,1.507h0A1.512,1.512,0,0,1,3029.945,1051.358Z" transform="translate(-3004.768 -1048.343)" fill="#fcecdb"/><path d="M3023.916,1070.34h-17.641a1.512,1.512,0,0,1-1.507-1.507h0a1.512,1.512,0,0,1,1.507-1.507h17.641a1.512,1.512,0,0,1,1.507,1.507h0A1.512,1.512,0,0,1,3023.916,1070.34Z" transform="translate(-3004.768 -1062.803)" fill="#fcecdb"/></g><path d="M2721.526,1098.06h-37.837a2.083,2.083,0,0,1-2.076-2.076v-45.131C2691.927,1063.04,2712.123,1086.931,2721.526,1098.06Z" transform="translate(-2681.612 -1027.491)" fill="#f9e5d1"/><g transform="translate(8.075 55.22)"><path d="M2740.686,1187.59h-23.67a1.512,1.512,0,0,1-1.507-1.508h0a1.511,1.511,0,0,1,1.507-1.507h23.67a1.512,1.512,0,0,1,1.507,1.507h0A1.512,1.512,0,0,1,2740.686,1187.59Z" transform="translate(-2715.508 -1184.575)" fill="#efcbab"/><path d="M2734.656,1206.572h-17.641a1.511,1.511,0,0,1-1.507-1.507h0a1.511,1.511,0,0,1,1.507-1.507h17.641a1.512,1.512,0,0,1,1.507,1.507h0A1.511,1.511,0,0,1,2734.656,1206.572Z" transform="translate(-2715.508 -1199.035)" fill="#efcbab"/></g><g transform="translate(-632.972 -978.6)"><g transform="translate(647.269 985.695)" style="mix-blend-mode:multiply;isolation:isolate"><path d="M694.134,990.691h0v-.028c-6.261-8.417-20.745-5.832-20.029,5.441s19.991,27.053,19.991,27.053v-.146l.077.174s19.275-15.781,19.991-27.053S700.4,982.274,694.134,990.691Z" transform="translate(-674.079 -985.695)" fill="#dde1f5"/></g><g transform="translate(649.866 988.076)"><path d="M717.86,1012.44h0v-.028c-6.261-8.417-20.745-5.832-20.029,5.44s19.991,27.053,19.991,27.053v-.146l.077.174s19.275-15.781,19.991-27.053S724.121,1004.023,717.86,1012.44Z" transform="translate(-697.805 -1007.444)" fill="#f99746"/></g><g transform="translate(643.974 996.545)"><g transform="translate(0 0)"><path d="M674.859,1103.247H674.8a1.283,1.283,0,0,1-1.216-1.039l-3.291-16.135a.194.194,0,0,0-.374-.024l-4.187,12.237a1.3,1.3,0,0,1-2.373.2l-3.144-5.775a.185.185,0,0,0-.175-.1.187.187,0,0,0-.17.11l-2.193,4.542a1.308,1.308,0,0,1-1.171.735H644.527a.553.553,0,1,1,0-1.106H656.5a.2.2,0,0,0,.175-.11l2.193-4.542a1.3,1.3,0,0,1,2.314-.056l3.144,5.776a.194.194,0,0,0,.355-.03l4.186-12.237a1.3,1.3,0,0,1,2.5.161l3.291,16.136a.194.194,0,0,0,.377.017l3-10.044a1.3,1.3,0,0,1,2.354-.31l1.976,3.212a.189.189,0,0,0,.162.093.187.187,0,0,0,.165-.087l1.3-1.943a1.3,1.3,0,0,1,1.082-.579h16.169a.553.553,0,0,1,0,1.106H685.074a.193.193,0,0,0-.161.086l-1.3,1.943a1.3,1.3,0,0,1-2.19-.04l-1.976-3.212a.194.194,0,0,0-.352.046l-3,10.044A1.282,1.282,0,0,1,674.859,1103.247Z" transform="translate(-643.974 -1084.809)" fill="#fff"/></g></g></g></g><g transform="translate(209.087 114.049)"><path d="M2541.51,1297.247v66.412a2.084,2.084,0,0,1-2.078,2.078H2404.944a2.084,2.084,0,0,1-2.08-2.078v-66.412a2.084,2.084,0,0,1,2.08-2.076h134.489A2.084,2.084,0,0,1,2541.51,1297.247Z" transform="translate(-2402.863 -1295.17)" fill="#fcecdb"/><path d="M2786.923,1297.244v66.411a2.085,2.085,0,0,1-2.078,2.08h-59.816v-70.568h59.816A2.084,2.084,0,0,1,2786.923,1297.244Z" transform="translate(-2648.276 -1295.167)" fill="#f99746"/><g transform="translate(86.426 15.342)"><g transform="translate(8.626)"><path d="M2814.032,1393.889a3.354,3.354,0,0,1-2.895-1.661l-8.84-15.111a3.355,3.355,0,0,1,5.791-3.388l5.671,9.694,10.679-21.97a3.354,3.354,0,1,1,6.034,2.933L2817.049,1392a3.354,3.354,0,0,1-2.888,1.886Z" transform="translate(-2801.837 -1359.564)" fill="#fcecdb"/></g><g transform="translate(0 0.458)"><path d="M2786.452,1403.127a20.821,20.821,0,1,1,20.821-20.821A20.845,20.845,0,0,1,2786.452,1403.127Zm0-39.2a18.381,18.381,0,1,0,18.381,18.381A18.4,18.4,0,0,0,2786.452,1363.925Z" transform="translate(-2765.631 -1361.485)" fill="#fcecdb"/></g></g><path d="M2442.255,1420.4h-37.311a2.084,2.084,0,0,1-2.08-2.078v-51.391Z" transform="translate(-2402.863 -1349.836)" fill="#f9e5d1"/><g transform="translate(16.587 11.52)"><g transform="translate(20.651 1.666)"><path d="M2559.163,1353.528h-23.67a1.512,1.512,0,0,1-1.507-1.508h0a1.512,1.512,0,0,1,1.507-1.507h23.67a1.512,1.512,0,0,1,1.508,1.507h0A1.512,1.512,0,0,1,2559.163,1353.528Z" transform="translate(-2533.985 -1350.513)" fill="#efcbab"/><path d="M2553.133,1372.509h-17.641a1.512,1.512,0,0,1-1.507-1.507h0a1.512,1.512,0,0,1,1.508-1.507h17.64a1.512,1.512,0,0,1,1.507,1.507h0A1.512,1.512,0,0,1,2553.133,1372.509Z" transform="translate(-2533.985 -1364.972)" fill="#efcbab"/></g><g transform="translate(0 28.865)"><g transform="translate(18.851 1.879)"><path d="M2551.607,1475.579h-23.67a1.512,1.512,0,0,1-1.507-1.507h0a1.512,1.512,0,0,1,1.507-1.508h23.67a1.512,1.512,0,0,1,1.507,1.508h0A1.512,1.512,0,0,1,2551.607,1475.579Z" transform="translate(-2526.43 -1472.564)" fill="#efcbab"/><path d="M2545.578,1494.56h-17.641a1.512,1.512,0,0,1-1.507-1.507h0a1.512,1.512,0,0,1,1.508-1.508h17.641a1.512,1.512,0,0,1,1.507,1.507h0A1.512,1.512,0,0,1,2545.578,1494.56Z" transform="translate(-2526.43 -1487.023)" fill="#efcbab"/></g></g></g></g><g transform="translate(53.946 47.644)"><path d="M1778.856,1291.459a244.822,244.822,0,0,0-2.827-30.021c-2.028-11.723-3.853-18.467-3.874-18.539-.267-1.031-4.125-5.2-12.7-5.073s-7.764,5.6-7.764,5.6h0a1.767,1.767,0,0,0,.062.486,262.593,262.593,0,0,1,7.615,65.69c0,.517-.063,1.412-.026,2.008,0,0,19.877.513,19.882,0C1779.914,1308.388,1779.576,1299.461,1778.856,1291.459Z" transform="translate(-1751.668 -1185.079)" fill="#b7d3f3"/><path d="M1788.447,1309.42c-.006.513-.277.924-.608.924h-.008c-.331-.007-.594-.419-.6-.924H1770.2c-.006.513-.277.924-.608.924h-.008c-.337-.007-.6-.432-.6-.952a257.317,257.317,0,0,0-1.413-29.1,228.676,228.676,0,0,0-6.51-36.381,1.808,1.808,0,0,1-.062-.487s-.813-5.47,7.763-5.6,12.437,4.043,12.7,5.074c.016.054,1.049,3.873,2.423,10.739.455,2.274.946,4.883,1.451,7.8a245.009,245.009,0,0,1,2.826,30.021C1788.886,1299.461,1789.139,1306.2,1788.447,1309.42Z" transform="translate(-1758.76 -1185.079)" fill="#d2e3fc"/><path d="M1789.289,1524.8h66.784s-1.555-6.293-40.232-5.356C1788.47,1520.107,1789.289,1524.8,1789.289,1524.8Z" transform="translate(-1780.324 -1399.534)" fill="#c5dcf8"/><g transform="translate(3.529 126.242)"><path d="M1766.48,1611.086c7.743-39.2,5.752-63.254,5.742-63.557-.019-.6,1.093-1.152,1.692-1.171s3.278-.178,3.588.338c.405.677,1.964,30.314-9.576,64.39Z" transform="translate(-1766.48 -1546.324)" fill="#b7d3f3"/></g><g transform="translate(54.563 126.242)"><path d="M1992.014,1611.086c-7.744-39.2-5.753-63.254-5.743-63.557.019-.6-1.093-1.152-1.691-1.171s-3.278-.178-3.588.338c-.405.677-1.965,30.314,9.576,64.39Z" transform="translate(-1980.692 -1546.324)" fill="#b7d3f3"/></g><g transform="translate(66.92 126.242)"><path d="M2043.883,1611.086c-7.743-39.2-5.752-63.254-5.743-63.557.02-.6-1.093-1.152-1.691-1.171s-3.279-.178-3.588.338c-.405.677-1.964,30.314,9.576,64.39Z" transform="translate(-2032.562 -1546.324)" fill="#b7d3f3"/></g><g transform="translate(15.969 126.242)"><path d="M1818.7,1611.086c7.743-39.2,5.752-63.254,5.742-63.557-.019-.6,1.093-1.152,1.691-1.171s3.279-.178,3.588.338c.405.677,1.965,30.314-9.576,64.39Z" transform="translate(-1818.699 -1546.324)" fill="#b7d3f3"/></g><path d="M1.818,0H67.7A1.818,1.818,0,0,1,69.52,1.818v0A1.818,1.818,0,0,1,67.7,3.636H1.818A1.818,1.818,0,0,1,0,1.818v0A1.818,1.818,0,0,1,1.818,0Z" transform="translate(7.636 123.64)" fill="#b7d3f3"/><g transform="translate(13.019)"><path d="M2047.67,1282.13l22.2-4.808,1.307,3.187s-24.495,14.575-26.79,13.862S2047.67,1282.13,2047.67,1282.13Z" transform="translate(-1987.247 -1215.167)" fill="#ffb27d"/><path d="M1973.6,1662.345a1.972,1.972,0,0,0-.352,2.11.016.016,0,0,0,.005.01c.509,1.406,2.19,2.976,4.143,4.545.25.2.471.385.665.554.051.045.1.089.149.134s.077.071.115.1c1.821,1.678,1.136,2.063,4.407,5.47,3.731,3.881,6.3,3.951,7.03,3.6.618-.3-.638-2.36-2.029-4.674-.068-.112-.134-.225-.2-.337-.185-.308-.369-.62-.553-.929-1.631-2.784-1.212-4.091-.826-8.235.314-3.368,5.239-18.814,5.239-18.814l-7.149-1.231s-2.153,12.3-4.525,14.194c-1.269,1.01-2.688,1.022-3.907,1.771-.086.052-.171.105-.254.16A9.38,9.38,0,0,0,1973.6,1662.345Z" transform="translate(-1933.357 -1494.982)" fill="#ffb27d"/><path d="M1973.6,1713.392a1.972,1.972,0,0,0-.352,2.11.016.016,0,0,0,.005.01c.623,1.405,2.262,2.967,4.149,4.531.247.2.464.393.658.568.051.045.1.089.149.134s.077.07.115.1c1.821,1.679,1.136,2.063,4.407,5.47,3.731,3.881,6.3,3.951,7.03,3.6.618-.3-.638-2.36-2.029-4.673a15.9,15.9,0,0,1-6.65-4.9c-2.246-2.866-3.744-6.549-5.274-8.682-.086.052-.171.105-.254.16A9.384,9.384,0,0,0,1973.6,1713.392Z" transform="translate(-1933.357 -1546.029)" fill="#1c468a"/><path d="M2198.9,1650.925c.441,2.207,3.587,1.838,7.1.98s2.679.162,7.681-.392,6.517-2.418,6.669-3.162c.136-.66-2.335-.893-4.986-1.2-.333-.037-.668-.079-1-.12-2.993-.375-5.185-2.306-7.9-3.892-2.575-1.5-6.417-7.623-6.417-7.623l-6.859.543s3.6,5.467,4.991,7.844a8.286,8.286,0,0,1,.673,4.674A8.8,8.8,0,0,0,2198.9,1650.925Z" transform="translate(-2101.015 -1488.026)" fill="#ffb27d"/><path d="M2223.946,1689.109c3.515-.859,2.679.162,7.681-.392s6.516-2.418,6.669-3.162c.136-.66-2.335-.893-4.986-1.2l-.025.051a14.1,14.1,0,0,1-7.163,2.227c-3.393.083-6.987-.89-9.331-.852a8.808,8.808,0,0,0,.053,2.346C2217.286,1690.336,2220.431,1689.968,2223.946,1689.109Z" transform="translate(-2118.96 -1525.23)" fill="#1c468a"/><path d="M2153.119,1262.132s1.634-4,3.432-4.167,7.518-1.062,7.926-.245a5.653,5.653,0,0,1-1.226,4.821c-1.225,1.062-8.825,2.778-8.825,2.778Z" transform="translate(-2070.496 -1199.977)" fill="#ffb27d"/><path d="M2031.61,1480.936l-14.783,39.783a13.532,13.532,0,0,1-4.448-.408,19.163,19.163,0,0,1-4.3-2.094s3.667-38.2,10.39-46.144S2031.61,1480.936,2031.61,1480.936Z" transform="translate(-1960.011 -1361.897)" fill="#163560"/><path d="M1835.266,1411.021s42.477-14.363,51.95-11.307,37.917,59.646,37.917,59.646a5.494,5.494,0,0,1-2.394,1.511,22.589,22.589,0,0,1-5.575.573s-25.67-22-28.726-28.42-4.278-12.529-7.334-11.919-39.421,14.974-47.672,6.418-6.093-19.674-6.093-19.674Z" transform="translate(-1822.137 -1308.076)" fill="#1c468a"/><path d="M1850.335,1018.1a10.3,10.3,0,0,0-5.575-1.067,2.608,2.608,0,0,1,1.176-.558,8.644,8.644,0,0,0-3.085.8c-13.275-5.115-15.362,14.431-15.083,18.973s.31,9.768-6.317,13.841c-13.039,8.013-2.037,22-2.037,22,.1.061,6.067,10.176,6.067,10.176-.335-3.67,16.6-23.036,25.431-28.835,2.15-3.166,2.915-8.759,2.972-9.2-.371,4.434-1.13,6.922-1.808,8.323C1859.557,1045.675,1855.2,1020.864,1850.335,1018.1Z" transform="translate(-1812.99 -1016.432)" fill="#b5453c"/><path d="M1923.309,1131.148c.044.02-4.265,2.258-7.507,1.371-3.049-.831-5.041-4.785-5-4.794,1.291-.257,1.664-2.031,1.636-9.656l.584.115,9.816,1.944s-.224,3.089-.23,6C1922.6,1128.57,1922.75,1130.887,1923.309,1131.148Z" transform="translate(-1885.909 -1093.855)" fill="#ffb27d"/><path d="M1929.939,1120.5s-.224,3.089-.23,6c-5.492-.155-8.4-5.166-9.585-7.943Z" transform="translate(-1893.01 -1094.223)" fill="#ed975d"/><path d="M1904.187,1049.581s-2.878-4.548-3.569-8.437c-.493-2.776.921-13.068,11.262-11.586a14.051,14.051,0,0,1,5.827,2.2c2.245,1.517,5.486,4.791,1.863,13.771l-.941,3.034Z" transform="translate(-1878.087 -1026.321)" fill="#b5453c"/><path d="M1926.975,1068.162s-13,.214-13-7.88-1.692-13.519,6.6-14,9.912,2.608,10.572,5.309S1930.355,1067.9,1926.975,1068.162Z" transform="translate(-1888.212 -1039.134)" fill="#ffb27d"/><path d="M1913.135,1040.349s-3.558,9.5-9.019,10.9-7.829-.059-7.829-.059a15.463,15.463,0,0,0,5.057-9.135S1910.45,1035.829,1913.135,1040.349Z" transform="translate(-1874.852 -1033.398)" fill="#b5453c"/><path d="M1963.3,1043.895s2.657,2.12,3.305,4.182.939,6.3,2.176,6.16c0,0,2.681-6.455-.332-10.106C1965.256,1040.258,1963.3,1043.895,1963.3,1043.895Z" transform="translate(-1925.901 -1036.172)" fill="#b5453c"/><path d="M1824,1196.965c-1.281-5.375,3.078-15.8,7.63-24.438,4.13-7.825,8.416-14.174,8.8-13.946,10.892,6.464,11.876,1.09,11.876,1.09h0s9.894,1.313,12.695,6.135c3.475,5.983,7.229,22.7,10.958,25.867-.573,1.752-.327,2.686.28,4.857q.2.7.432,1.327a25.529,25.529,0,0,0,1.872,3.844c-1.9,1.152-5.556,3.342-8.252,1.767-4.112-2.406-7.319-9.731-9.125-12.648l-.02-.033c-3.924,22.212,1.412,27.271-1.289,29.613-2.852,2.474-6.927-1.177-15.891,2.708-5.88,2.551-14.04,6.239-19.532,6.88-2.881.338-5.03-.163-5.731-2.109C1816.665,1222.226,1826.444,1207.211,1824,1196.965Z" transform="translate(-1815.537 -1124.711)" fill="#1c468a"/><path d="M1956.9,1115.576s.242,1.028,2.8.87c0,0,2.148-.133,2.083-1.263A6.911,6.911,0,0,0,1956.9,1115.576Z" transform="translate(-1921.022 -1091.455)" fill="#fff"/><path d="M1818.7,1304.531c.7,1.946,2.85,2.447,5.731,2.109,3.8-1.656,20.225-8.019,20.042-12.33-.273-6.383-3.158-6.587-1.12-14.465,1.636-6.326-13.539-18.088-15.959-20.645-4.551,8.634-4.677,9.042-3.4,14.417C1826.444,1283.862,1816.665,1298.878,1818.7,1304.531Z" transform="translate(-1815.537 -1201.362)" fill="#163560"/><path d="M1807.625,1204.873a24.085,24.085,0,0,1,7.943-7.34c-.459-1.184,12.251-16.766,12.251-19.181,0-2.444,3.391-19.758,3.391-19.758s-10.59.654-14.257,5.768C1812.366,1170.758,1802.842,1195.371,1807.625,1204.873Z" transform="translate(-1806.316 -1124.726)" fill="#1c468a"/><path d="M1819.315,1322.036l21.163,5.522-1.986,3.566s-25.755-.18-27.12-1.748S1819.315,1322.036,1819.315,1322.036Z" transform="translate(-1810.063 -1249.229)" fill="#ffb27d"/><path d="M1997.843,1293.926c1.806,2.917,5.013,10.242,9.125,12.648,2.7,1.575,6.357-.615,8.252-1.767a25.578,25.578,0,0,1-1.872-3.844c-1.513.346-3.359.788-4.549,1.147C2006.482,1302.811,1997.843,1293.926,1997.843,1293.926Z" transform="translate(-1952.214 -1227.816)" fill="#163560"/><path d="M1927.629,1340.4s6.646-1.881,8.229-1.441,7.007,4.031,6.244,5.006-5.541-.584-7.739-.289-3.9,1.38-5.482,1.145a18.371,18.371,0,0,1-3.238-.857Z" transform="translate(-1897.214 -1262.066)" fill="#ffb27d"/><path d="M1933.98,1336.589a24.9,24.9,0,0,0,4.177-2.621.259.259,0,0,1,.4.046c.248.391.48,1.146-.661,1.9A6.133,6.133,0,0,1,1933.98,1336.589Z" transform="translate(-1903.565 -1258.26)" fill="#ffb27d"/></g><g transform="translate(43.141 53.911)"><path d="M1963.757,1376.561H1932.75a2.472,2.472,0,0,1,2.472-2.472h28.535Z" transform="translate(-1932.75 -1342.792)" fill="#ed7d2b"/><path d="M2024.765,1242.72H2072.7l-11.5,33.769h-48.25Z" transform="translate(-1993.848 -1242.72)" fill="#ed7d2b"/><path d="M2075.669,1242.72l-11.5,33.768h-48.248l11.809-33.768Z" transform="translate(-1996.106 -1242.72)" fill="#f99746"/><path d="M2143.085,1304.811a3.117,3.117,0,0,1-2.876,2.336,1.8,1.8,0,0,1-1.8-2.336,3.117,3.117,0,0,1,2.876-2.336A1.8,1.8,0,0,1,2143.085,1304.811Z" transform="translate(-2089.368 -1288.239)" fill="#f9ddbf"/><path d="M2127.773,1242.72l-11.5,33.768H2084.32c21.166-7.224,26.8-29.252,27.746-33.768Z" transform="translate(-2048.21 -1242.72)" fill="#ed893e"/></g></g><g transform="translate(36.593 140.529)"><path d="M1679.714,1504.433a1.239,1.239,0,0,0,1.229-1.007l6.021-34.127,8.661-49.082,2.422-13.725-6.169-.176-1.07,7.968-7.515,55.991-4.455,33.189A.869.869,0,0,0,1679.714,1504.433Z" transform="translate(-1678.829 -1406.315)" fill="#95c0f4"/><path d="M1729.1,1414.282a8.85,8.85,0,0,1,4.817,5.934l2.422-13.725-6.168-.176Z" transform="translate(-1717.126 -1406.315)" fill="#78acea"/></g><g transform="translate(172.574 140.529)"><path d="M2267.934,1504.433a1.238,1.238,0,0,1-1.228-1.007l-6.021-34.127-8.66-49.082-2.422-13.725,6.168-.176,1.07,7.968,7.515,55.991,4.455,33.189A.869.869,0,0,1,2267.934,1504.433Z" transform="translate(-2249.602 -1406.315)" fill="#95c0f4"/><path d="M2256.841,1414.282a8.85,8.85,0,0,0-4.817,5.934l-2.422-13.725,6.168-.176Z" transform="translate(-2249.602 -1406.315)" fill="#78acea"/></g><path d="M5.388,0H160.1a5.389,5.389,0,0,1,5.389,5.389v0a5.389,5.389,0,0,1-5.389,5.389H5.389A5.389,5.389,0,0,1,0,5.389v0A5.388,5.388,0,0,1,5.388,0Z" transform="translate(195.088 146.094) rotate(180)" fill="#78acea"/><path d="M2068.511,1819.489H1525.955a.724.724,0,0,1-.721-.721h0a.724.724,0,0,1,.721-.721h542.555a.723.723,0,0,1,.721.721h0A.724.724,0,0,1,2068.511,1819.489Z" transform="translate(-1525.234 -1579.426)" fill="#2e3552"/><g transform="translate(390.638 17.153)"><path d="M3175.178,1045.956s-2.205-7.114-3.457-7.879-6.474-3.339-6.785-2.643,2.82,4.075,3.515,5.2,1.043,2.24.557,1.753-3.13-2.115-3.409-1.753,1.322,1.753,2.087,2.866,1.6,2.991,4.313,3.408S3175.178,1045.956,3175.178,1045.956Z" transform="translate(-3164.914 -1000.326)" fill="#ffb27d"/><path d="M3519.52,1327.2s-.661,6.427-1.386,7.643-3.813,5.1-5.129,5.862.8-5.118.535-6.263-1.083,2.088-1.663,2.164-.431-2.833-.452-3.892,2.821-3.673,3.823-5.928S3519.52,1327.2,3519.52,1327.2Z" transform="translate(-3428.871 -1221.671)" fill="#ffb27d"/><path d="M3253.677,1051.573s-5.344,26.228-34.75,34.8c-9.179,2.675-30.033-27.546-30.033-27.546s.733-2.786,5.326-2.146c0,0,20.305,13.443,22.862,14.9,2.268,1.3,17.186-16.657,23.986-19.553A17.355,17.355,0,0,1,3253.677,1051.573Z" transform="translate(-3183.18 -1011.978)" fill="#233862"/><g transform="translate(39.405 98.958)"><path d="M3565.924,1741.662s3.648,3.329,2.936,5.695-4,3.943-4.449,6.834-2.224,4.468-3.826,4.468h-7.635s-1.179-2.034,1.669-2.648,3.92-4.011,3.743-7.165a55.567,55.567,0,0,1,.267-7.359l6.05-1.4Z" transform="translate(-3499.725 -1636.149)" fill="#233862"/><path d="M3351.76,1773.471s.655,7.576-.947,8.365l-20.5-.042s0-2.365,3.292-2.891,9.076-2.453,10.054-6.746S3351.76,1773.471,3351.76,1773.471Z" transform="translate(-3330.316 -1659.348)" fill="#233862"/><path d="M3347.688,1327.725s1.082,13.281,2.352,29.246c1.727,21.687,3.8,48.325,4.009,53.371.354,8.763,1.78,22.78,1.78,22.78s3.379,3.33,10.144,1.927a226.222,226.222,0,0,0,7.749-41.181c.027-.347.054-.7.081-1.046,1.6-21.553,4.092-66.936,4.092-66.936Z" transform="translate(-3343.549 -1320.629)" fill="#f99746"/><path d="M3347.688,1327.725s1.082,13.281,2.352,29.246l23.682,36.9c.027-.347.054-.7.081-1.046,1.6-21.553,4.092-66.936,4.092-66.936Z" transform="translate(-3343.549 -1320.629)" fill="#ed7d2b"/><path d="M3368.41,1312.495s19.486,48.1,32.3,70.7,16.817,28.912,16.817,28.912,7.341-2.891,8.008-4.863c0,0-4.9-43.638-13.48-54.275-4.849-6.011-10.544-24.049-10.811-30.358s-1.735-18.793-1.735-18.793Z" transform="translate(-3359.334 -1303.821)" fill="#f99746"/></g><path d="M3409.564,978.016s-13.184,6.361-20.785,4a17.937,17.937,0,0,1,5.145-4.117c-.263-1.526-.468-2.85-.584-3.972a36.668,36.668,0,0,1-.322-4.059l5.086-4,4.824-3.829C3402.548,972.806,3409.564,978.016,3409.564,978.016Z" transform="translate(-3335.446 -944.508)" fill="#ffb27d"/><path d="M3381.707,1087.451c.029.808-1.695,1.728-2.457,2.072a53.8,53.8,0,0,1-16.867,4.779c-7.045.72-15.377-.864-18.242-.806a1.19,1.19,0,0,1-.789-.317c-.2-.144-.35-8.635-.2-19.315,0-.43,0-.862.029-1.294v-.144c.058-4.173.2-8.55.409-12.926.409-9.614,1.171-18.883,2.457-24.006a26.03,26.03,0,0,1,8.245-12.955l2.629-2.3a12.653,12.653,0,0,0,8.186-.979c3.041-1.467,6.315-3.051,6.841-2.648,3.975,2.907,6.665,9.44,8.1,17.79.006.042.015.082.021.123a92.8,92.8,0,0,1,1.177,15.707c0,2.074-.059,4.2-.176,6.3a187.745,187.745,0,0,0,.19,23.866c.075,1.16.153,2.218.219,3.164C3381.59,1085.235,3381.677,1086.531,3381.707,1087.451Z" transform="translate(-3300.64 -986.03)" fill="#2a4e96"/><path d="M3463.466,1137.881c-21.855-25.233-8.3-43.572-8.3-43.572l7.105-2.306a92.83,92.83,0,0,1,1.177,15.707c0,2.074-.059,4.2-.176,6.3A187.69,187.69,0,0,0,3463.466,1137.881Z" transform="translate(-3382.852 -1043.509)" fill="#233862"/><path d="M3416.57,978.4s-3.332,6.074-9.676,7.772a36.668,36.668,0,0,1-.322-4.059l5.087-4Z" transform="translate(-3348.999 -956.75)" fill="#ed985f"/><path d="M3388.989,928.656s12.578,2.058,13.759-5.675,3.6-12.674-4.382-14.314-9.995,1.078-11.027,3.565S3385.748,927.922,3388.989,928.656Z" transform="translate(-3333.736 -903.47)" fill="#ffb27d"/><path d="M3394.322,892.722c.115-.131.378-.237.964-.268a2.375,2.375,0,0,0-1.094-.308,2.948,2.948,0,0,0-1.959-2.608,1.758,1.758,0,0,1,.852,1.268c-1.625-1.668-5.105-2.883-14.745-2.122-12.7,1-8.517,9.137-6.872,10.106s5.784-1.689,8.848-1.445,3.647,4.671,4.687,5.279.631-.467,2.037-1.1,1.54,1.695,1.134,3.21,1.526,3.514,1.526,3.514l1.953-2.1c1.953-2.1,3.793-11.011,2.906-12.91C3394.48,893.063,3394.4,892.893,3394.322,892.722Z" transform="translate(-3320.74 -888.451)" fill="#2c3a64"/><path d="M3444.919,1016.546s7.958,3.768,11.773,9.562c5.918,8.986,12.779,41.737,12.906,44.769s-5.007,24.443-5.007,24.443-5.207-.343-6.55-2.971c0,0,1.041-22,.381-23.413s-21.708-29.51-19.341-35.5S3444.919,1016.546,3444.919,1016.546Z" transform="translate(-3373.622 -986.029)" fill="#2a4e96"/></g><path d="M3070.219,1187h-29.984a5.683,5.683,0,0,1-5.667-5.667h0a5.683,5.683,0,0,1,5.667-5.667h29.984a5.683,5.683,0,0,1,5.667,5.667h0A5.683,5.683,0,0,1,3070.219,1187Z" transform="translate(-2674.984 -1090.085)" fill="#fcecdb"/><g transform="translate(376.29 87.318)"><g transform="translate(1.61)"><path d="M3113.722,1189.368a.626.626,0,0,1-.541-.31l-1.649-2.82a.626.626,0,0,1,1.08-.632l1.058,1.809,1.993-4.1a.626.626,0,0,1,1.126.547l-2.5,5.152a.625.625,0,0,1-.539.352Z" transform="translate(-3111.446 -1182.964)" fill="#f99746"/></g><g transform="translate(0 0.085)"><path d="M3108.575,1191.092a3.885,3.885,0,1,1,3.885-3.885A3.89,3.89,0,0,1,3108.575,1191.092Zm0-7.315a3.43,3.43,0,1,0,3.43,3.43A3.434,3.434,0,0,0,3108.575,1183.777Z" transform="translate(-3104.69 -1183.322)" fill="#f99746"/></g></g><g transform="translate(161.524 56.21)"><path d="M2244.774,1052.39h-33.54a8.035,8.035,0,0,0-8.012,8.012v12.688a7.975,7.975,0,0,0,1.992,5.27l-1.992,9.108,11.491-6.366h30.061a8.036,8.036,0,0,0,8.012-8.012V1060.4A8.035,8.035,0,0,0,2244.774,1052.39Z" transform="translate(-2203.223 -1052.39)" fill="#d2e3fc"/><path d="M2264.944,1084.647h-34.771a1.306,1.306,0,0,1-1.3-1.3h0a1.305,1.305,0,0,1,1.3-1.3h34.771a1.305,1.305,0,0,1,1.3,1.3h0A1.305,1.305,0,0,1,2264.944,1084.647Z" transform="translate(-2222.761 -1074.979)" fill="#b7d3f3"/><path d="M2264.944,1108.551h-34.771a1.305,1.305,0,0,1-1.3-1.3h0a1.305,1.305,0,0,1,1.3-1.3h34.771a1.305,1.305,0,0,1,1.3,1.3h0A1.305,1.305,0,0,1,2264.944,1108.551Z" transform="translate(-2222.761 -1093.188)" fill="#b7d3f3"/><path d="M2264.944,1131.56h-34.771a1.306,1.306,0,0,1-1.3-1.3h0a1.305,1.305,0,0,1,1.3-1.3h34.771a1.305,1.305,0,0,1,1.3,1.3h0A1.305,1.305,0,0,1,2264.944,1131.56Z" transform="translate(-2222.761 -1110.716)" fill="#b7d3f3"/></g></g></g></svg>