<svg xmlns="http://www.w3.org/2000/svg" width="184" height="160.61" viewBox="0 0 184 160.61">
  <g id="Group_7273" data-name="Group 7273" transform="translate(-1184 -494.39)">
    <text id="Surgical_Diseases" data-name="Surgical Diseases" transform="translate(1276 649)" fill="#24394d" font-size="24" font-family="Arial-Mdm, Arial" font-weight="500"><tspan x="-91" y="0">Surgical Diseases</tspan></text>
    <g id="surgery-scalpel-icon" transform="translate(1216 494.39)">
      <path id="Path_68097" data-name="Path 68097" d="M116.066,3.43l.175.175a12.046,12.046,0,0,1,0,17l-50.87,50.87a1.385,1.385,0,0,1-1.433.331l-23.389-6.6a1.377,1.377,0,0,1-.955-1.7,1.4,1.4,0,0,1,.351-.6L99.421,3.43a11.811,11.811,0,0,1,16.645,0ZM58.023,56.854a1.374,1.374,0,1,1,.692-2.66l9.024,2.339a1.374,1.374,0,1,1-.692,2.66l-9.024-2.339Zm5.282-5.282A1.374,1.374,0,0,1,64,48.911l9.024,2.339a1.374,1.374,0,0,1-.692,2.66l-9.024-2.339Zm5.272-5.282a1.374,1.374,0,0,1,.692-2.66l9.024,2.339a1.374,1.374,0,1,1-.692,2.66L68.577,46.29Zm5.282-5.282a1.374,1.374,0,0,1,.692-2.66l9.024,2.339a1.374,1.374,0,1,1-.692,2.66l-9.024-2.339Zm5.282-5.272a1.374,1.374,0,1,1,.692-2.66l9.024,2.339a1.374,1.374,0,0,1-.692,2.66l-9.024-2.339Zm-42.1,35.083,8.4,2.388-23.72,23.73,5.886-.517L49.633,74.4l8.2,2.329L34.255,100.3C27.862,108,15.281,109.322,0,107.87L37.042,70.819ZM114.292,5.555l-.175-.175a9.035,9.035,0,0,0-12.747,0L43.561,63.2,64,68.957l50.3-50.3a9.305,9.305,0,0,0,0-13.107Z" fill="#24394d"/>
    </g>
  </g>
</svg>
