<svg xmlns="http://www.w3.org/2000/svg" width="135" height="166" viewBox="0 0 135 166">
  <g id="Group_7284" data-name="Group 7284" transform="translate(-1143 -601)">
    <g id="Rectangle_3710" data-name="Rectangle 3710" transform="translate(1143 601)" fill="#fff" stroke="#ccd5e6" stroke-width="1" stroke-dasharray="5 5">
      <rect width="135" height="166" rx="15" stroke="none"/>
      <rect x="0.5" y="0.5" width="134" height="165" rx="14.5" fill="none"/>
    </g>
    <text id="Take_Photo" data-name="Take Photo" transform="translate(1210.5 716.315)" font-size="13" font-family="Arial-Mdm, Arial" font-weight="500"><tspan x="-31.226" y="0">Take Photo</tspan></text>
    <g id="_8324225_ui_essential_app_camera_photo_icon" data-name="8324225_ui_essential_app_camera_photo_icon" transform="translate(1187.63 647)">
      <path id="Path_68105" data-name="Path 68105" d="M35.992,8.832,33.076,3H12.664L9.748,8.832H3.916A2.915,2.915,0,0,0,1,11.748V37.992a2.915,2.915,0,0,0,2.916,2.916H41.824a2.915,2.915,0,0,0,2.916-2.916V11.748a2.915,2.915,0,0,0-2.916-2.916Z" fill="none" stroke="#24394d" stroke-linejoin="round" stroke-miterlimit="10" stroke-width="2"/>
      <line id="Line_44" data-name="Line 44" x1="3" transform="translate(37 15)" fill="none" stroke="#24394d" stroke-linejoin="round" stroke-miterlimit="10" stroke-width="2"/>
      <circle id="Ellipse_367" data-name="Ellipse 367" cx="10" cy="10" r="10" transform="translate(13 15)" fill="none" stroke="#24394d" stroke-linejoin="round" stroke-miterlimit="10" stroke-width="2"/>
    </g>
  </g>
</svg>
