<svg xmlns="http://www.w3.org/2000/svg" width="282" height="334" viewBox="0 0 282 334">
  <g id="Group_4144" data-name="Group 4144" transform="translate(-1143 -601)">
    <g id="Rectangle_3710" data-name="Rectangle 3710" transform="translate(1143 601)" fill="#fff" stroke="#ccd5e6" stroke-width="1" stroke-dasharray="5 5">
      <rect width="282" height="334" rx="15" stroke="none"/>
      <rect x="0.5" y="0.5" width="281" height="333" rx="14.5" fill="none"/>
    </g>
    <g id="photo" transform="translate(1236 705.18)">
      <g id="Group_4143" data-name="Group 4143" transform="translate(0 0)">
        <g id="Group_4142" data-name="Group 4142" transform="translate(0 0)">
          <circle id="Ellipse_353" data-name="Ellipse 353" cx="6.564" cy="6.564" r="6.564" transform="translate(29.446 20.877)" fill="#24394d" stroke="#fff" stroke-width="0.5"/>
          <path id="Path_59189" data-name="Path 59189" d="M89.887,75.6a20.213,20.213,0,0,0-11.3-5.379V36.854a13.125,13.125,0,0,0-3.738-9.116A12.738,12.738,0,0,0,65.729,24H12.854a13.125,13.125,0,0,0-9.116,3.738A12.738,12.738,0,0,0,0,36.854V91.279A13.125,13.125,0,0,0,3.738,100.4a12.738,12.738,0,0,0,9.116,3.738H64A19.287,19.287,0,0,0,89.887,75.6ZM4.832,36.854A7.631,7.631,0,0,1,7.2,31.293a8,8,0,0,1,5.652-2.37H65.729a8.094,8.094,0,0,1,8.022,8.022V65.388L60.259,51.9a2.448,2.448,0,0,0-3.464,0L36.466,72.317,22.7,58.46a2.448,2.448,0,0,0-3.464,0L4.832,73.046Zm7.931,62.63V99.3a8,8,0,0,1-5.652-2.37,8.32,8.32,0,0,1-2.279-5.652v-11.3L20.968,63.747,34.733,77.513a2.535,2.535,0,0,0,3.464,0l20.33-20.421,13.31,13.4-.82.273a8.466,8.466,0,0,0-1.185.365c-.365.091-.729.273-1.094.365a2.73,2.73,0,0,0-.729.365,8.471,8.471,0,0,0-.912.456l-1.367.82c-.273.182-.456.273-.729.456-.182.091-.273.182-.456.273a11,11,0,0,0-2.188,1.914A19.285,19.285,0,0,0,56.7,89.456a20.042,20.042,0,0,0,.456,4.011c.091.365.182.638.273,1,.273.912.547,1.823.912,2.735V97.3a16.724,16.724,0,0,0,1.185,2.188Zm73.569,0a14.421,14.421,0,0,1-20.147.182c-.365-.365-.729-.82-1.094-1.185-.273-.273-.547-.638-.82-.912a8.657,8.657,0,0,1-.912-1.55c-.182-.365-.365-.638-.547-1a7.7,7.7,0,0,1-.456-1.55c-.091-.365-.273-.82-.365-1.185a15.089,15.089,0,0,1-.273-2.917,14.633,14.633,0,0,1,4.194-10.21,14.094,14.094,0,0,1,10.21-4.194,14.633,14.633,0,0,1,10.21,4.194,14.249,14.249,0,0,1,4.194,10.21A14.581,14.581,0,0,1,86.332,99.484Z" transform="translate(0 -24)" fill="#24394d" stroke="#fff" stroke-width="0.5"/>
          <path id="Path_59190" data-name="Path 59190" d="M308.4,265.129a3.186,3.186,0,0,0-.82-.547,2.664,2.664,0,0,0-.82-.182h-.182a2.663,2.663,0,0,0-.82.182,2.152,2.152,0,0,0-.82.547l-5.652,5.652a2.45,2.45,0,0,0,3.464,3.464l1.459-1.459v10.028a2.461,2.461,0,0,0,4.923,0V272.787l1.459,1.459a2.45,2.45,0,0,0,3.464-3.464Z" transform="translate(-230.546 -209.611)" fill="#24394d" stroke="#fff" stroke-width="0.5"/>
        </g>
      </g>
    </g>
    <text id="Upload_photo_or_report" data-name="Upload photo or report" transform="translate(1284 826.82)" font-size="16" font-family="Arial-Mdm, Arial" font-weight="500"><tspan x="-76" y="0">Upload photo or report</tspan></text>
  </g>
</svg>
