<svg xmlns="http://www.w3.org/2000/svg" width="135" height="166" viewBox="0 0 135 166">
  <g id="Group_4144" data-name="Group 4144" transform="translate(-1143 -601)">
    <g id="Rectangle_3710" data-name="Rectangle 3710" transform="translate(1143 601)" fill="#fff" stroke="#ccd5e6" stroke-width="1" stroke-dasharray="5 5">
      <rect width="135" height="166" rx="15" stroke="none"/>
      <rect x="0.5" y="0.5" width="134" height="165" rx="14.5" fill="none"/>
    </g>
    <g id="photo" transform="translate(1187.713 648.686)">
      <g id="Group_4143" data-name="Group 4143" transform="translate(0 0)">
        <g id="Group_4142" data-name="Group 4142" transform="translate(0 0)">
          <circle id="Ellipse_353" data-name="Ellipse 353" cx="3.131" cy="3.131" r="3.131" transform="translate(14.046 9.959)" fill="#24394d" stroke="#fff" stroke-width="0.5"/>
          <path id="Path_59189" data-name="Path 59189" d="M42.879,48.614a9.642,9.642,0,0,0-5.392-2.566V30.132A6.261,6.261,0,0,0,35.7,25.783,6.076,6.076,0,0,0,31.354,24H6.132a6.261,6.261,0,0,0-4.349,1.783A6.076,6.076,0,0,0,0,30.132V56.094a6.261,6.261,0,0,0,1.783,4.349,6.076,6.076,0,0,0,4.349,1.783h24.4a9.2,9.2,0,0,0,12.35-13.612ZM2.3,30.132a3.64,3.64,0,0,1,1.131-2.653,3.816,3.816,0,0,1,2.7-1.131H31.354a3.861,3.861,0,0,1,3.827,3.827V43.743l-6.436-6.436a1.168,1.168,0,0,0-1.653,0l-9.7,9.741-6.567-6.61a1.168,1.168,0,0,0-1.653,0L2.3,47.4ZM6.088,60.008v-.087a3.816,3.816,0,0,1-2.7-1.131,3.969,3.969,0,0,1-1.087-2.7V50.7L10,42.961l6.567,6.567a1.209,1.209,0,0,0,1.653,0l9.7-9.741,6.349,6.393-.391.13a4.039,4.039,0,0,0-.565.174c-.174.043-.348.13-.522.174a1.3,1.3,0,0,0-.348.174,4.04,4.04,0,0,0-.435.217l-.652.391c-.13.087-.217.13-.348.217-.087.043-.13.087-.217.13a5.247,5.247,0,0,0-1.044.913,9.2,9.2,0,0,0-2.7,6.523,9.561,9.561,0,0,0,.217,1.913c.043.174.087.3.13.478.13.435.261.87.435,1.3v.043a7.977,7.977,0,0,0,.565,1.044Zm35.094,0a6.879,6.879,0,0,1-9.611.087c-.174-.174-.348-.391-.522-.565-.13-.13-.261-.3-.391-.435a4.13,4.13,0,0,1-.435-.739c-.087-.174-.174-.3-.261-.478a3.674,3.674,0,0,1-.217-.739c-.043-.174-.13-.391-.174-.565a7.2,7.2,0,0,1-.13-1.392,6.98,6.98,0,0,1,2-4.871,6.723,6.723,0,0,1,4.871-2,6.98,6.98,0,0,1,4.871,2,6.8,6.8,0,0,1,2,4.871A6.955,6.955,0,0,1,41.183,60.008Z" transform="translate(0 -24)" fill="#24394d" stroke="#fff" stroke-width="0.5"/>
          <path id="Path_59190" data-name="Path 59190" d="M303.275,264.748a1.522,1.522,0,0,0-.391-.261,1.272,1.272,0,0,0-.391-.087h-.087a1.271,1.271,0,0,0-.391.087,1.027,1.027,0,0,0-.391.261l-2.7,2.7a1.169,1.169,0,1,0,1.653,1.653l.7-.7v4.784a1.174,1.174,0,0,0,2.348,0V268.4l.7.7a1.169,1.169,0,0,0,1.653-1.653Z" transform="translate(-266.137 -238.264)" fill="#24394d" stroke="#fff" stroke-width="0.5"/>
        </g>
      </g>
    </g>
    <text id="Upload_Photo" data-name="Upload Photo" transform="translate(1210.5 716.315)" font-size="13" font-family="Arial-Mdm, Arial" font-weight="500"><tspan x="-37.616" y="0">Upload Photo</tspan></text>
  </g>
</svg>
