<svg xmlns="http://www.w3.org/2000/svg" width="26.282" height="26.282" viewBox="0 0 26.282 26.282"><path d="M13.141,0A13.141,13.141,0,1,0,26.282,13.141,13.18,13.18,0,0,0,13.141,0Zm0,4.38c2.409,0,4.38,2.409,4.38,5.475s-1.971,5.475-4.38,5.475-4.38-2.409-4.38-5.475S10.732,4.38,13.141,4.38Zm7.228,16.974a11.124,11.124,0,0,1-7.228,2.738,11.124,11.124,0,0,1-7.228-2.738,1.064,1.064,0,0,1-.11-1.533,9.841,9.841,0,0,1,4.6-2.957,6.032,6.032,0,0,0,5.475,0,9.328,9.328,0,0,1,4.6,2.957A.985.985,0,0,1,20.369,21.354Z" fill="#24394d"/></svg>